<svg width="168" height="73" viewBox="0 0 168 73" fill="none" xmlns="http://www.w3.org/2000/svg">
<g filter="url(#filter0_dd_1_2621)">
<path fill-rule="evenodd" clip-rule="evenodd" d="M10.9192 4.97456C27.0797 2.34181 140.506 2.34181 156.363 4.97456C161.447 5.87524 164.709 8.92368 165.695 13.5656C168.806 28.1843 168.73 42.803 165.695 57.4909C164.785 62.1329 161.447 65.597 156.363 66.0127C140.506 67.3291 27.0797 67.3291 10.9192 66.0127C5.76003 65.597 2.11823 62.1329 1.51127 57.4909C-0.309626 42.803 -0.688979 28.1843 1.51127 13.5656C2.19411 8.92368 5.8359 5.80595 10.9192 4.97456Z" fill="white"/>
</g>
<path fill-rule="evenodd" clip-rule="evenodd" d="M13.4643 4.882C28.9514 2.37267 137.652 2.37267 152.848 4.882C157.72 5.74046 160.846 8.64601 161.791 13.0704C164.772 27.0038 164.7 40.9372 161.791 54.9367C160.919 59.361 157.72 62.6628 152.848 63.059C137.652 64.3137 28.9514 64.3137 13.4643 63.059C8.52002 62.6628 5.02997 59.361 4.4483 54.9367C2.70328 40.9372 2.33973 27.0038 4.4483 13.0704C5.10268 8.64601 8.59273 5.67442 13.4643 4.882Z" fill="#E6E6E6"/>
<g filter="url(#filter1_di_1_2621)">
<path d="M13.745 2.00503C28.1737 -0.62946 139.449 -0.706945 153.651 2.00503C158.108 2.85736 161.129 5.95676 161.96 10.5284C163.245 17.1921 163.924 23.8558 164 30.5195C163.924 37.1832 163.245 42.8079 161.96 49.4716C161.129 54.0432 158.108 57.1426 153.651 57.995C139.449 60.7069 28.1737 60.6295 13.745 57.995C9.21247 57.2201 5.96412 54.1207 5.35977 49.4716C4.5288 42.8079 4.07554 36.9507 4 30.3645C4.07554 23.7783 4.5288 17.1921 5.35977 10.5284C5.96412 5.87927 9.21247 2.77988 13.745 2.00503Z" fill="#98DE01"/>
</g>
<g filter="url(#filter2_i_1_2621)">
<path fill-rule="evenodd" clip-rule="evenodd" d="M153.651 2.00503C139.449 -0.706944 28.1737 -0.62946 13.745 2.00503C9.21246 2.77988 5.96412 5.87927 5.35977 10.5284C4.5288 17.1921 4.07554 23.7783 4 30.3645C16.8333 32.5893 50.7 35.7351 83.5 30.5195C116.3 25.3039 150.833 28.3463 164 30.5195C163.924 23.8558 163.245 17.1921 161.96 10.5284C161.129 5.95676 158.108 2.85736 153.651 2.00503Z" fill="#B6E84B"/>
</g>
<path fill-rule="evenodd" clip-rule="evenodd" d="M8.70394 9.09093C10.7375 5.1979 15.5868 2.61587 17.0801 3.3959C18.5472 4.16224 17.0557 8.97589 15.0221 12.8689C12.9885 16.7619 9.1392 21.344 7.67212 20.5776C6.17885 19.7976 6.67037 12.984 8.70394 9.09093Z" fill="white"/>
<path fill-rule="evenodd" clip-rule="evenodd" d="M158.647 50.8505C156.613 54.7435 151.764 57.3255 150.271 56.5455C148.804 55.7792 150.295 50.9655 152.329 47.0725C154.362 43.1795 158.212 38.5974 159.679 39.3638C161.172 40.1438 160.68 46.9575 158.647 50.8505Z" fill="white"/>
<g filter="url(#filter3_i_1_2621)">
<path d="M39.9436 39.125C37.3769 39.125 35.2686 38.3083 33.6186 36.675C31.9686 35.0417 31.1436 32.9583 31.1436 30.425C31.1436 27.7917 32.0019 25.6 33.7186 23.85C35.4519 22.0833 37.6352 21.2 40.2686 21.2C42.8352 21.2 44.9269 22.075 46.5436 23.825C48.1602 25.5583 48.9686 27.725 48.9686 30.325C48.9686 32.925 48.1269 35.0417 46.4436 36.675C44.7602 38.3083 42.5936 39.125 39.9436 39.125ZM35.9936 30.3C35.9936 31.5167 36.3602 32.55 37.0936 33.4C37.8269 34.25 38.7936 34.675 39.9936 34.675C41.2269 34.675 42.2186 34.25 42.9686 33.4C43.7352 32.5333 44.1186 31.4833 44.1186 30.25C44.1186 29.0167 43.7602 27.9417 43.0436 27.025C42.3269 26.1083 41.3602 25.65 40.1436 25.65C38.9102 25.65 37.9102 26.1083 37.1436 27.025C36.3769 27.9417 35.9936 29.0333 35.9936 30.3ZM52.9863 38.925C52.503 38.8417 52.228 38.525 52.1613 37.975C51.9947 36.475 51.9113 34.3833 51.9113 31.7C51.9113 28.4833 52.1363 25.3417 52.5863 22.275C52.603 22.225 52.6113 22.1667 52.6113 22.1C52.6447 22 52.6863 21.925 52.7363 21.875C52.9697 21.525 53.5447 21.3 54.4613 21.2C54.9113 21.15 55.503 21.125 56.2363 21.125C56.7697 21.125 57.303 21.1583 57.8363 21.225C58.3863 21.275 59.0113 21.375 59.7113 21.525C60.428 21.6583 61.0863 21.8833 61.6863 22.2C62.303 22.5 62.8697 22.875 63.3863 23.325C63.9197 23.7583 64.3363 24.3333 64.6363 25.05C64.953 25.7667 65.1113 26.575 65.1113 27.475C65.1113 28.1917 64.978 28.925 64.7113 29.675C64.428 30.4417 64.0113 31.125 63.4613 31.725C62.9113 32.3083 62.3197 32.775 61.6863 33.125C61.053 33.475 60.353 33.7667 59.5863 34C58.8363 34.2333 58.1363 34.3917 57.4863 34.475C56.853 34.5583 56.2197 34.6 55.5863 34.6C55.6363 35.5667 55.7197 36.425 55.8363 37.175C55.8363 37.1917 55.8363 37.225 55.8363 37.275C55.853 37.3083 55.8613 37.3417 55.8613 37.375C55.8613 37.875 55.603 38.275 55.0863 38.575C54.5863 38.8583 54.0613 39 53.5113 39C53.3447 39 53.1697 38.975 52.9863 38.925ZM55.5613 30.5H55.5863C56.1363 30.5 56.6947 30.4583 57.2613 30.375C57.8447 30.275 58.4447 30.125 59.0613 29.925C59.678 29.7083 60.178 29.3917 60.5613 28.975C60.9613 28.5417 61.1613 28.025 61.1613 27.425C61.1613 27.125 61.1197 26.8917 61.0363 26.725C60.803 26.175 60.1613 25.7833 59.1113 25.55C58.078 25.3167 57.0863 25.2 56.1363 25.2H55.9613C55.778 26.8333 55.6447 28.6 55.5613 30.5ZM70.5555 25.3C70.2388 25.3 69.7555 25.3 69.1055 25.3C68.4721 25.2833 67.9888 25.275 67.6555 25.275C67.2721 25.275 66.9721 25.0667 66.7555 24.65C66.5388 24.2333 66.4305 23.7833 66.4305 23.3C66.4305 22.7667 66.5305 22.2833 66.7305 21.85C66.9305 21.4167 67.2388 21.2 67.6555 21.2C68.3721 21.2 69.4471 21.2167 70.8805 21.25C72.3138 21.2667 73.3971 21.275 74.1305 21.275C74.4805 21.275 75.0055 21.2667 75.7055 21.25C76.4221 21.2167 76.9638 21.2 77.3305 21.2C77.7638 21.2 78.0805 21.4 78.2805 21.8C78.4971 22.2 78.6055 22.675 78.6055 23.225C78.6055 24.125 78.3638 24.75 77.8805 25.1C77.7305 25.1833 77.4888 25.2417 77.1555 25.275C76.5721 25.325 75.6805 25.35 74.4805 25.35C74.3638 31.85 74.3055 36.0167 74.3055 37.85C74.3055 38.0333 74.2471 38.225 74.1305 38.425C73.8805 38.775 73.3055 38.95 72.4055 38.95C72.0388 38.95 71.6888 38.9 71.3555 38.8C71.0888 38.7333 70.8805 38.65 70.7305 38.55C70.4971 38.35 70.3805 38.125 70.3805 37.875C70.3805 37.625 70.3971 37.2667 70.4305 36.8C70.4805 36.3333 70.5055 36.0167 70.5055 35.85C70.5555 34.4667 70.5805 33.0833 70.5805 31.7C70.5805 31.2167 70.5721 30.2333 70.5555 28.75C70.5388 27.2667 70.5388 26.1167 70.5555 25.3ZM85.6658 37.025C85.6658 37.0417 85.6742 37.0667 85.6908 37.1V37.125V37.175C85.7075 37.2083 85.7158 37.2417 85.7158 37.275C85.7158 37.8917 85.3992 38.3583 84.7658 38.675C84.1492 38.975 83.5242 39.125 82.8908 39.125C82.2408 39.125 81.7658 38.975 81.4658 38.675C81.2658 38.425 81.1658 38.1667 81.1658 37.9C81.1492 37.7667 81.1158 37.3083 81.0658 36.525C80.9492 34.6583 80.8908 33.0583 80.8908 31.725C80.8908 29.2083 80.9825 27.0833 81.1658 25.35C81.2658 24.0667 81.4158 23.0833 81.6158 22.4C81.8325 21.65 82.5408 21.275 83.7408 21.275C84.2575 21.275 84.7658 21.3583 85.2658 21.525C85.9158 21.7917 86.2408 22.1917 86.2408 22.725C86.2408 22.8417 86.2325 22.9333 86.2158 23C85.6325 25.9667 85.3408 29.0583 85.3408 32.275C85.3408 34.225 85.4492 35.8083 85.6658 37.025ZM97.1213 39.125C94.5546 39.125 92.4463 38.3083 90.7963 36.675C89.1463 35.0417 88.3213 32.9583 88.3213 30.425C88.3213 27.7917 89.1796 25.6 90.8963 23.85C92.6296 22.0833 94.813 21.2 97.4463 21.2C100.013 21.2 102.105 22.075 103.721 23.825C105.338 25.5583 106.146 27.725 106.146 30.325C106.146 32.925 105.305 35.0417 103.621 36.675C101.938 38.3083 99.7713 39.125 97.1213 39.125ZM93.1713 30.3C93.1713 31.5167 93.538 32.55 94.2713 33.4C95.0046 34.25 95.9713 34.675 97.1713 34.675C98.4046 34.675 99.3963 34.25 100.146 33.4C100.913 32.5333 101.296 31.4833 101.296 30.25C101.296 29.0167 100.938 27.9417 100.221 27.025C99.5046 26.1083 98.538 25.65 97.3213 25.65C96.088 25.65 95.088 26.1083 94.3213 27.025C93.5546 27.9417 93.1713 29.0333 93.1713 30.3ZM113.189 28.875C113.106 30.275 113.064 33.2083 113.064 37.675C113.064 38.125 112.839 38.45 112.389 38.65C111.939 38.85 111.456 38.95 110.939 38.95C109.822 38.95 109.214 38.5417 109.114 37.725C109.064 37.1417 109.039 35.95 109.039 34.15C109.039 31.45 109.181 28.6833 109.464 25.85C109.464 25.8167 109.506 25.425 109.589 24.675C109.689 23.9083 109.772 23.3417 109.839 22.975C109.972 22.3417 110.406 21.8917 111.139 21.625C111.672 21.3917 112.197 21.275 112.714 21.275C113.197 21.275 113.589 21.4083 113.889 21.675C113.989 21.775 114.064 21.8667 114.114 21.95C114.947 23.4 115.506 24.4083 115.789 24.975C116.022 25.3917 116.356 26.0167 116.789 26.85C117.239 27.6667 117.572 28.2833 117.789 28.7C118.306 29.6667 118.881 30.65 119.514 31.65C119.531 31.3333 119.589 30.025 119.689 27.725C119.789 25.425 119.839 23.6667 119.839 22.45C119.839 22.1333 119.964 21.8833 120.214 21.7C120.647 21.3333 121.247 21.15 122.014 21.15C122.831 21.15 123.372 21.3583 123.639 21.775C123.739 21.9583 123.789 22.1833 123.789 22.45V26.275C123.789 29.7417 123.756 32.3417 123.689 34.075C123.656 35.975 123.606 37.225 123.539 37.825C123.522 37.9917 123.439 38.1917 123.289 38.425C122.922 38.875 122.214 39.1 121.164 39.1C120.314 39.1 119.714 38.9167 119.364 38.55C119.131 38.3167 118.706 37.775 118.089 36.925C117.822 36.5417 117.439 35.95 116.939 35.15C116.772 34.9 115.522 32.8083 113.189 28.875ZM130.372 33.775C130.439 34.3583 130.739 34.775 131.272 35.025C131.806 35.2583 132.406 35.375 133.072 35.375C133.506 35.375 133.981 35.325 134.497 35.225C135.014 35.1083 135.506 34.9 135.972 34.6C136.439 34.2833 136.672 33.9083 136.672 33.475C136.672 33.125 136.256 32.7833 135.422 32.45C135.139 32.35 134.631 32.1917 133.897 31.975C133.181 31.7417 132.622 31.55 132.222 31.4C131.572 31.1667 130.997 30.925 130.497 30.675C130.014 30.4083 129.522 30.075 129.022 29.675C128.522 29.2583 128.131 28.75 127.847 28.15C127.581 27.55 127.447 26.875 127.447 26.125C127.447 25.0917 127.781 24.1917 128.447 23.425C129.114 22.6417 129.914 22.075 130.847 21.725C131.781 21.375 132.756 21.2 133.772 21.2C134.989 21.2 136.189 21.4167 137.372 21.85C138.572 22.2833 139.489 23.0167 140.122 24.05C140.406 24.5167 140.547 24.9833 140.547 25.45C140.547 26.15 140.322 26.7083 139.872 27.125C139.422 27.5417 138.956 27.75 138.472 27.75C137.872 27.75 137.414 27.45 137.097 26.85C136.914 26.5 136.806 26.2917 136.772 26.225C136.639 26.0083 136.506 25.8583 136.372 25.775C135.856 25.4417 135.031 25.275 133.897 25.275C133.547 25.275 133.131 25.325 132.647 25.425C132.164 25.525 131.822 25.6583 131.622 25.825C131.472 25.9417 131.397 26.0417 131.397 26.125C131.397 26.2417 131.456 26.3833 131.572 26.55C132.089 27.0667 133.064 27.5167 134.497 27.9C135.831 28.3167 136.697 28.6083 137.097 28.775C139.447 29.825 140.622 31.4 140.622 33.5C140.622 34.75 140.239 35.8333 139.472 36.75C138.722 37.6667 137.797 38.3333 136.697 38.75C135.614 39.15 134.456 39.35 133.222 39.35C132.472 39.35 131.731 39.25 130.997 39.05C130.281 38.8667 129.606 38.5917 128.972 38.225C128.356 37.8583 127.856 37.3667 127.472 36.75C127.089 36.1167 126.897 35.4083 126.897 34.625C126.897 34.075 127.139 33.6083 127.622 33.225C128.106 32.825 128.631 32.625 129.197 32.625C129.347 32.625 129.497 32.65 129.647 32.7C129.864 32.7333 130.022 32.825 130.122 32.975C130.206 33.0417 130.281 33.175 130.347 33.375C130.347 33.3917 130.347 33.425 130.347 33.475C130.364 33.5083 130.372 33.5417 130.372 33.575V33.775Z" fill="#5F8B01"/>
</g>
<defs>
<filter id="filter0_dd_1_2621" x="0" y="3" width="168" height="70" filterUnits="userSpaceOnUse" color-interpolation-filters="sRGB">
<feFlood flood-opacity="0" result="BackgroundImageFix"/>
<feColorMatrix in="SourceAlpha" type="matrix" values="0 0 0 0 0 0 0 0 0 0 0 0 0 0 0 0 0 0 127 0" result="hardAlpha"/>
<feOffset dy="6"/>
<feComposite in2="hardAlpha" operator="out"/>
<feColorMatrix type="matrix" values="0 0 0 0 0 0 0 0 0 0 0 0 0 0 0 0 0 0 0.25 0"/>
<feBlend mode="normal" in2="BackgroundImageFix" result="effect1_dropShadow_1_2621"/>
<feColorMatrix in="SourceAlpha" type="matrix" values="0 0 0 0 0 0 0 0 0 0 0 0 0 0 0 0 0 0 127 0" result="hardAlpha"/>
<feOffset dy="2"/>
<feComposite in2="hardAlpha" operator="out"/>
<feColorMatrix type="matrix" values="0 0 0 0 0.901961 0 0 0 0 0.901961 0 0 0 0 0.901961 0 0 0 1 0"/>
<feBlend mode="normal" in2="effect1_dropShadow_1_2621" result="effect2_dropShadow_1_2621"/>
<feBlend mode="normal" in="SourceGraphic" in2="effect2_dropShadow_1_2621" result="shape"/>
</filter>
<filter id="filter1_di_1_2621" x="4" y="-2" width="160" height="66" filterUnits="userSpaceOnUse" color-interpolation-filters="sRGB">
<feFlood flood-opacity="0" result="BackgroundImageFix"/>
<feColorMatrix in="SourceAlpha" type="matrix" values="0 0 0 0 0 0 0 0 0 0 0 0 0 0 0 0 0 0 127 0" result="hardAlpha"/>
<feOffset dy="4"/>
<feComposite in2="hardAlpha" operator="out"/>
<feColorMatrix type="matrix" values="0 0 0 0 0.427451 0 0 0 0 0.764706 0 0 0 0 0 0 0 0 1 0"/>
<feBlend mode="normal" in2="BackgroundImageFix" result="effect1_dropShadow_1_2621"/>
<feBlend mode="normal" in="SourceGraphic" in2="effect1_dropShadow_1_2621" result="shape"/>
<feColorMatrix in="SourceAlpha" type="matrix" values="0 0 0 0 0 0 0 0 0 0 0 0 0 0 0 0 0 0 127 0" result="hardAlpha"/>
<feOffset dy="-2"/>
<feGaussianBlur stdDeviation="5.5"/>
<feComposite in2="hardAlpha" operator="arithmetic" k2="-1" k3="1"/>
<feColorMatrix type="matrix" values="0 0 0 0 0.788235 0 0 0 0 0.984314 0 0 0 0 0.0235294 0 0 0 1 0"/>
<feBlend mode="normal" in2="shape" result="effect2_innerShadow_1_2621"/>
</filter>
<filter id="filter2_i_1_2621" x="4" y="0" width="160" height="37.3588" filterUnits="userSpaceOnUse" color-interpolation-filters="sRGB">
<feFlood flood-opacity="0" result="BackgroundImageFix"/>
<feBlend mode="normal" in="SourceGraphic" in2="BackgroundImageFix" result="shape"/>
<feColorMatrix in="SourceAlpha" type="matrix" values="0 0 0 0 0 0 0 0 0 0 0 0 0 0 0 0 0 0 127 0" result="hardAlpha"/>
<feOffset dy="4"/>
<feGaussianBlur stdDeviation="2"/>
<feComposite in2="hardAlpha" operator="arithmetic" k2="-1" k3="1"/>
<feColorMatrix type="matrix" values="0 0 0 0 0.788235 0 0 0 0 0.984314 0 0 0 0 0.0235294 0 0 0 1 0"/>
<feBlend mode="normal" in2="shape" result="effect1_innerShadow_1_2621"/>
</filter>
<filter id="filter3_i_1_2621" x="31.1436" y="21.125" width="109.479" height="18.225" filterUnits="userSpaceOnUse" color-interpolation-filters="sRGB">
<feFlood flood-opacity="0" result="BackgroundImageFix"/>
<feBlend mode="normal" in="SourceGraphic" in2="BackgroundImageFix" result="shape"/>
<feColorMatrix in="SourceAlpha" type="matrix" values="0 0 0 0 0 0 0 0 0 0 0 0 0 0 0 0 0 0 127 0" result="hardAlpha"/>
<feOffset/>
<feGaussianBlur stdDeviation="1"/>
<feComposite in2="hardAlpha" operator="arithmetic" k2="-1" k3="1"/>
<feColorMatrix type="matrix" values="0 0 0 0 0 0 0 0 0 0 0 0 0 0 0 0 0 0 0.25 0"/>
<feBlend mode="normal" in2="shape" result="effect1_innerShadow_1_2621"/>
</filter>
</defs>
</svg>
