<svg width="168" height="73" viewBox="0 0 168 73" fill="none" xmlns="http://www.w3.org/2000/svg">
<g filter="url(#filter0_dd_1_2139)">
<path fill-rule="evenodd" clip-rule="evenodd" d="M10.9192 4.97456C27.0797 2.34181 140.506 2.34181 156.363 4.97456C161.447 5.87524 164.709 8.92368 165.695 13.5656C168.806 28.1843 168.73 42.803 165.695 57.4909C164.785 62.1329 161.447 65.597 156.363 66.0127C140.506 67.3291 27.0797 67.3291 10.9192 66.0127C5.76003 65.597 2.11823 62.1329 1.51127 57.4909C-0.309626 42.803 -0.688979 28.1843 1.51127 13.5656C2.19411 8.92368 5.8359 5.80595 10.9192 4.97456Z" fill="white"/>
</g>
<path fill-rule="evenodd" clip-rule="evenodd" d="M13.4643 4.882C28.9514 2.37267 137.652 2.37267 152.848 4.882C157.72 5.74046 160.846 8.64601 161.791 13.0704C164.772 27.0038 164.7 40.9372 161.791 54.9367C160.919 59.361 157.72 62.6628 152.848 63.059C137.652 64.3137 28.9514 64.3137 13.4643 63.059C8.52002 62.6628 5.02997 59.361 4.4483 54.9367C2.70328 40.9372 2.33973 27.0038 4.4483 13.0704C5.10268 8.64601 8.59273 5.67442 13.4643 4.882Z" fill="#E6E6E6"/>
<g filter="url(#filter1_di_1_2139)">
<path d="M13.745 2.00503C28.1737 -0.62946 139.449 -0.706945 153.651 2.00503C158.108 2.85736 161.129 5.95676 161.96 10.5284C163.245 17.1921 163.924 23.8558 164 30.5195C163.924 37.1832 163.245 42.8079 161.96 49.4716C161.129 54.0432 158.108 57.1426 153.651 57.995C139.449 60.7069 28.1737 60.6295 13.745 57.995C9.21247 57.2201 5.96412 54.1207 5.35977 49.4716C4.5288 42.8079 4.07554 36.9507 4 30.3645C4.07554 23.7783 4.5288 17.1921 5.35977 10.5284C5.96412 5.87927 9.21247 2.77988 13.745 2.00503Z" fill="#01DE98"/>
</g>
<g filter="url(#filter2_i_1_2139)">
<path fill-rule="evenodd" clip-rule="evenodd" d="M153.651 2.00503C139.449 -0.706944 28.1737 -0.62946 13.745 2.00503C9.21246 2.77988 5.96412 5.87927 5.35977 10.5284C4.5288 17.1921 4.07554 23.7783 4 30.3645C16.8333 32.5893 50.7 35.7351 83.5 30.5195C116.3 25.3039 150.833 28.3463 164 30.5195C163.924 23.8558 163.245 17.1921 161.96 10.5284C161.129 5.95676 158.108 2.85736 153.651 2.00503Z" fill="#4BE8B1"/>
</g>
<path fill-rule="evenodd" clip-rule="evenodd" d="M8.70394 9.09093C10.7375 5.1979 15.5868 2.61587 17.0801 3.3959C18.5472 4.16224 17.0557 8.97589 15.0221 12.8689C12.9885 16.7619 9.1392 21.344 7.67212 20.5776C6.17885 19.7976 6.67037 12.984 8.70394 9.09093Z" fill="white"/>
<path fill-rule="evenodd" clip-rule="evenodd" d="M158.647 50.8505C156.613 54.7435 151.764 57.3255 150.271 56.5455C148.804 55.7792 150.295 50.9655 152.329 47.0725C154.362 43.1795 158.212 38.5974 159.679 39.3638C161.172 40.1438 160.68 46.9575 158.647 50.8505Z" fill="white"/>
<g filter="url(#filter3_i_1_2139)">
<path d="M29.8493 37.775C29.916 38.3583 30.216 38.775 30.7493 39.025C31.2827 39.2583 31.8827 39.375 32.5493 39.375C32.9827 39.375 33.4577 39.325 33.9743 39.225C34.491 39.1083 34.9827 38.9 35.4493 38.6C35.916 38.2833 36.1493 37.9083 36.1493 37.475C36.1493 37.125 35.7327 36.7833 34.8993 36.45C34.616 36.35 34.1076 36.1917 33.3743 35.975C32.6577 35.7417 32.0993 35.55 31.6993 35.4C31.0493 35.1667 30.4743 34.925 29.9743 34.675C29.491 34.4083 28.9993 34.075 28.4993 33.675C27.9993 33.2583 27.6076 32.75 27.3243 32.15C27.0576 31.55 26.9243 30.875 26.9243 30.125C26.9243 29.0917 27.2576 28.1917 27.9243 27.425C28.591 26.6417 29.391 26.075 30.3243 25.725C31.2577 25.375 32.2327 25.2 33.2493 25.2C34.466 25.2 35.666 25.4167 36.8493 25.85C38.0493 26.2833 38.966 27.0167 39.5993 28.05C39.8827 28.5167 40.0243 28.9833 40.0243 29.45C40.0243 30.15 39.7993 30.7083 39.3493 31.125C38.8993 31.5417 38.4327 31.75 37.9493 31.75C37.3493 31.75 36.891 31.45 36.5743 30.85C36.391 30.5 36.2827 30.2917 36.2493 30.225C36.116 30.0083 35.9827 29.8583 35.8493 29.775C35.3327 29.4417 34.5077 29.275 33.3743 29.275C33.0243 29.275 32.6077 29.325 32.1243 29.425C31.641 29.525 31.2993 29.6583 31.0993 29.825C30.9493 29.9417 30.8743 30.0417 30.8743 30.125C30.8743 30.2417 30.9327 30.3833 31.0493 30.55C31.566 31.0667 32.541 31.5167 33.9743 31.9C35.3077 32.3167 36.1743 32.6083 36.5743 32.775C38.9243 33.825 40.0993 35.4 40.0993 37.5C40.0993 38.75 39.716 39.8333 38.9493 40.75C38.1993 41.6667 37.2743 42.3333 36.1743 42.75C35.091 43.15 33.9327 43.35 32.6993 43.35C31.9493 43.35 31.2077 43.25 30.4743 43.05C29.7577 42.8667 29.0827 42.5917 28.4493 42.225C27.8326 41.8583 27.3326 41.3667 26.9493 40.75C26.566 40.1167 26.3743 39.4083 26.3743 38.625C26.3743 38.075 26.616 37.6083 27.0993 37.225C27.5826 36.825 28.1076 36.625 28.6743 36.625C28.8243 36.625 28.9743 36.65 29.1243 36.7C29.341 36.7333 29.4993 36.825 29.5993 36.975C29.6826 37.0417 29.7576 37.175 29.8243 37.375C29.8243 37.3917 29.8243 37.425 29.8243 37.475C29.841 37.5083 29.8493 37.5417 29.8493 37.575V37.775ZM47.1835 32.675H50.8335C51.2168 32.675 51.5168 32.8667 51.7335 33.25C51.9502 33.6333 52.0585 34.0667 52.0585 34.55C52.0585 35.05 51.9502 35.5417 51.7335 36.025C51.5168 36.5083 51.2085 36.75 50.8085 36.75H47.0335C47.0835 37.6 47.2085 38.4083 47.4085 39.175C47.7085 39.275 48.0918 39.325 48.5585 39.325C49.1085 39.325 49.8835 39.225 50.8835 39.025C51.8835 38.8083 52.5335 38.6833 52.8335 38.65H53.0335C53.4835 38.65 53.8418 38.9167 54.1085 39.45C54.3752 39.9667 54.5085 40.5167 54.5085 41.1C54.5085 41.6167 54.3752 42.0167 54.1085 42.3C53.8252 42.6 53.0085 42.85 51.6585 43.05C50.3252 43.2667 49.2752 43.375 48.5085 43.375C46.9585 43.375 45.6585 43 44.6085 42.25C44.0585 41.85 43.6585 40.9417 43.4085 39.525C43.1752 38.1083 43.0585 36.825 43.0585 35.675C43.0585 33.3417 43.3835 30.4833 44.0335 27.1C44.1835 26.45 44.5168 25.975 45.0335 25.675C45.3835 25.4417 46.5418 25.275 48.5085 25.175C49.5252 25.1417 50.7668 25.125 52.2335 25.125C52.5502 25.125 52.7835 25.1333 52.9335 25.15C53.1668 25.1833 53.3752 25.2417 53.5585 25.325C54.0252 25.5917 54.2585 26.1417 54.2585 26.975C54.2585 27.4083 54.1752 27.8583 54.0085 28.325C53.8585 28.7917 53.6252 29.0833 53.3085 29.2C53.1918 29.25 52.6168 29.275 51.5835 29.275C50.5835 29.2417 49.9752 29.225 49.7585 29.225C49.0585 29.225 48.3668 29.25 47.6835 29.3C47.4002 31.1833 47.2335 32.3083 47.1835 32.675ZM60.0716 29.3C59.7549 29.3 59.2716 29.3 58.6216 29.3C57.9882 29.2833 57.5049 29.275 57.1716 29.275C56.7882 29.275 56.4882 29.0667 56.2716 28.65C56.0549 28.2333 55.9466 27.7833 55.9466 27.3C55.9466 26.7667 56.0466 26.2833 56.2466 25.85C56.4466 25.4167 56.7549 25.2 57.1716 25.2C57.8882 25.2 58.9632 25.2167 60.3966 25.25C61.8299 25.2667 62.9132 25.275 63.6466 25.275C63.9966 25.275 64.5216 25.2667 65.2216 25.25C65.9382 25.2167 66.4799 25.2 66.8466 25.2C67.2799 25.2 67.5966 25.4 67.7966 25.8C68.0132 26.2 68.1216 26.675 68.1216 27.225C68.1216 28.125 67.8799 28.75 67.3966 29.1C67.2466 29.1833 67.0049 29.2417 66.6716 29.275C66.0882 29.325 65.1966 29.35 63.9966 29.35C63.8799 35.85 63.8216 40.0167 63.8216 41.85C63.8216 42.0333 63.7632 42.225 63.6466 42.425C63.3966 42.775 62.8216 42.95 61.9216 42.95C61.5549 42.95 61.2049 42.9 60.8716 42.8C60.6049 42.7333 60.3966 42.65 60.2466 42.55C60.0132 42.35 59.8966 42.125 59.8966 41.875C59.8966 41.625 59.9132 41.2667 59.9466 40.8C59.9966 40.3333 60.0216 40.0167 60.0216 39.85C60.0716 38.4667 60.0966 37.0833 60.0966 35.7C60.0966 35.2167 60.0882 34.2333 60.0716 32.75C60.0549 31.2667 60.0549 30.1167 60.0716 29.3ZM73.1819 29.3C72.8653 29.3 72.3819 29.3 71.7319 29.3C71.0986 29.2833 70.6153 29.275 70.2819 29.275C69.8986 29.275 69.5986 29.0667 69.3819 28.65C69.1653 28.2333 69.0569 27.7833 69.0569 27.3C69.0569 26.7667 69.1569 26.2833 69.3569 25.85C69.5569 25.4167 69.8653 25.2 70.2819 25.2C70.9986 25.2 72.0736 25.2167 73.5069 25.25C74.9403 25.2667 76.0236 25.275 76.7569 25.275C77.1069 25.275 77.6319 25.2667 78.3319 25.25C79.0486 25.2167 79.5903 25.2 79.9569 25.2C80.3903 25.2 80.7069 25.4 80.9069 25.8C81.1236 26.2 81.2319 26.675 81.2319 27.225C81.2319 28.125 80.9903 28.75 80.5069 29.1C80.3569 29.1833 80.1153 29.2417 79.7819 29.275C79.1986 29.325 78.3069 29.35 77.1069 29.35C76.9903 35.85 76.9319 40.0167 76.9319 41.85C76.9319 42.0333 76.8736 42.225 76.7569 42.425C76.5069 42.775 75.9319 42.95 75.0319 42.95C74.6653 42.95 74.3153 42.9 73.9819 42.8C73.7153 42.7333 73.5069 42.65 73.3569 42.55C73.1236 42.35 73.0069 42.125 73.0069 41.875C73.0069 41.625 73.0236 41.2667 73.0569 40.8C73.1069 40.3333 73.1319 40.0167 73.1319 39.85C73.1819 38.4667 73.2069 37.0833 73.2069 35.7C73.2069 35.2167 73.1986 34.2333 73.1819 32.75C73.1653 31.2667 73.1653 30.1167 73.1819 29.3ZM88.2923 41.025C88.2923 41.0417 88.3006 41.0667 88.3173 41.1V41.125V41.175C88.334 41.2083 88.3423 41.2417 88.3423 41.275C88.3423 41.8917 88.0256 42.3583 87.3923 42.675C86.7756 42.975 86.1506 43.125 85.5173 43.125C84.8673 43.125 84.3923 42.975 84.0923 42.675C83.8923 42.425 83.7923 42.1667 83.7923 41.9C83.7756 41.7667 83.7423 41.3083 83.6923 40.525C83.5756 38.6583 83.5173 37.0583 83.5173 35.725C83.5173 33.2083 83.609 31.0833 83.7923 29.35C83.8923 28.0667 84.0423 27.0833 84.2423 26.4C84.459 25.65 85.1673 25.275 86.3673 25.275C86.884 25.275 87.3923 25.3583 87.8923 25.525C88.5423 25.7917 88.8673 26.1917 88.8673 26.725C88.8673 26.8417 88.859 26.9333 88.8423 27C88.259 29.9667 87.9673 33.0583 87.9673 36.275C87.9673 38.225 88.0756 39.8083 88.2923 41.025ZM95.5274 32.875C95.4441 34.275 95.4024 37.2083 95.4024 41.675C95.4024 42.125 95.1774 42.45 94.7274 42.65C94.2774 42.85 93.7941 42.95 93.2774 42.95C92.1608 42.95 91.5524 42.5417 91.4524 41.725C91.4024 41.1417 91.3774 39.95 91.3774 38.15C91.3774 35.45 91.5191 32.6833 91.8024 29.85C91.8024 29.8167 91.8441 29.425 91.9274 28.675C92.0274 27.9083 92.1108 27.3417 92.1774 26.975C92.3108 26.3417 92.7441 25.8917 93.4774 25.625C94.0108 25.3917 94.5358 25.275 95.0524 25.275C95.5358 25.275 95.9274 25.4083 96.2274 25.675C96.3274 25.775 96.4024 25.8667 96.4524 25.95C97.2858 27.4 97.8441 28.4083 98.1274 28.975C98.3608 29.3917 98.6941 30.0167 99.1274 30.85C99.5774 31.6667 99.9108 32.2833 100.127 32.7C100.644 33.6667 101.219 34.65 101.852 35.65C101.869 35.3333 101.927 34.025 102.027 31.725C102.127 29.425 102.177 27.6667 102.177 26.45C102.177 26.1333 102.302 25.8833 102.552 25.7C102.986 25.3333 103.586 25.15 104.352 25.15C105.169 25.15 105.711 25.3583 105.977 25.775C106.077 25.9583 106.127 26.1833 106.127 26.45V30.275C106.127 33.7417 106.094 36.3417 106.027 38.075C105.994 39.975 105.944 41.225 105.877 41.825C105.861 41.9917 105.777 42.1917 105.627 42.425C105.261 42.875 104.552 43.1 103.502 43.1C102.652 43.1 102.052 42.9167 101.702 42.55C101.469 42.3167 101.044 41.775 100.427 40.925C100.161 40.5417 99.7774 39.95 99.2774 39.15C99.1108 38.9 97.8608 36.8083 95.5274 32.875ZM121.286 37C120.952 36.9333 120.577 36.9 120.161 36.9C119.494 36.9 118.744 37 117.911 37.2C117.811 37.2333 117.736 37.25 117.686 37.25C117.219 37.25 116.894 36.9333 116.711 36.3C116.561 35.9 116.486 35.4167 116.486 34.85C116.486 33.7667 116.719 33.1583 117.186 33.025C117.886 32.775 119.152 32.65 120.986 32.65C122.986 32.65 124.286 33.1167 124.886 34.05C125.119 34.4667 125.236 34.975 125.236 35.575C125.236 36.9917 125.019 38.225 124.586 39.275C124.169 40.325 123.594 41.1417 122.861 41.725C122.127 42.3083 121.336 42.7333 120.486 43C119.652 43.2833 118.752 43.425 117.786 43.425C115.302 43.425 113.244 42.5333 111.611 40.75C109.977 38.95 109.161 36.8 109.161 34.3C109.161 31.8167 110.002 29.675 111.686 27.875C113.369 26.0583 115.444 25.15 117.911 25.15C119.327 25.15 120.652 25.4833 121.886 26.15C123.136 26.8167 124.086 27.9 124.736 29.4C124.752 29.4333 124.769 29.4833 124.786 29.55C124.819 29.6167 124.836 29.6583 124.836 29.675C124.869 29.8417 124.886 29.975 124.886 30.075C124.886 30.6583 124.519 31.1167 123.786 31.45C123.269 31.7167 122.802 31.85 122.386 31.85C121.969 31.85 121.586 31.6167 121.236 31.15C121.186 31.0833 121.111 30.9917 121.011 30.875C120.927 30.7417 120.861 30.6417 120.811 30.575C120.527 30.1083 120.127 29.7417 119.611 29.475C119.111 29.1917 118.586 29.05 118.036 29.05C116.852 29.05 115.819 29.5917 114.936 30.675C114.052 31.7417 113.611 33.0583 113.611 34.625C113.611 36.0917 114.002 37.2 114.786 37.95C115.586 38.7 116.577 39.075 117.761 39.075C118.494 39.075 119.236 38.8917 119.986 38.525C120.752 38.1417 121.186 37.6333 121.286 37ZM131.217 37.775C131.283 38.3583 131.583 38.775 132.117 39.025C132.65 39.2583 133.25 39.375 133.917 39.375C134.35 39.375 134.825 39.325 135.342 39.225C135.858 39.1083 136.35 38.9 136.817 38.6C137.283 38.2833 137.517 37.9083 137.517 37.475C137.517 37.125 137.1 36.7833 136.267 36.45C135.983 36.35 135.475 36.1917 134.742 35.975C134.025 35.7417 133.467 35.55 133.067 35.4C132.417 35.1667 131.842 34.925 131.342 34.675C130.858 34.4083 130.367 34.075 129.867 33.675C129.367 33.2583 128.975 32.75 128.692 32.15C128.425 31.55 128.292 30.875 128.292 30.125C128.292 29.0917 128.625 28.1917 129.292 27.425C129.958 26.6417 130.758 26.075 131.692 25.725C132.625 25.375 133.6 25.2 134.617 25.2C135.833 25.2 137.033 25.4167 138.217 25.85C139.417 26.2833 140.333 27.0167 140.967 28.05C141.25 28.5167 141.392 28.9833 141.392 29.45C141.392 30.15 141.167 30.7083 140.717 31.125C140.267 31.5417 139.8 31.75 139.317 31.75C138.717 31.75 138.258 31.45 137.942 30.85C137.758 30.5 137.65 30.2917 137.617 30.225C137.483 30.0083 137.35 29.8583 137.217 29.775C136.7 29.4417 135.875 29.275 134.742 29.275C134.392 29.275 133.975 29.325 133.492 29.425C133.008 29.525 132.667 29.6583 132.467 29.825C132.317 29.9417 132.242 30.0417 132.242 30.125C132.242 30.2417 132.3 30.3833 132.417 30.55C132.933 31.0667 133.908 31.5167 135.342 31.9C136.675 32.3167 137.542 32.6083 137.942 32.775C140.292 33.825 141.467 35.4 141.467 37.5C141.467 38.75 141.083 39.8333 140.317 40.75C139.567 41.6667 138.642 42.3333 137.542 42.75C136.458 43.15 135.3 43.35 134.067 43.35C133.317 43.35 132.575 43.25 131.842 43.05C131.125 42.8667 130.45 42.5917 129.817 42.225C129.2 41.8583 128.7 41.3667 128.317 40.75C127.933 40.1167 127.742 39.4083 127.742 38.625C127.742 38.075 127.983 37.6083 128.467 37.225C128.95 36.825 129.475 36.625 130.042 36.625C130.192 36.625 130.342 36.65 130.492 36.7C130.708 36.7333 130.867 36.825 130.967 36.975C131.05 37.0417 131.125 37.175 131.192 37.375C131.192 37.3917 131.192 37.425 131.192 37.475C131.208 37.5083 131.217 37.5417 131.217 37.575V37.775Z" fill="#018B5F"/>
</g>
<defs>
<filter id="filter0_dd_1_2139" x="0" y="3" width="168" height="70" filterUnits="userSpaceOnUse" color-interpolation-filters="sRGB">
<feFlood flood-opacity="0" result="BackgroundImageFix"/>
<feColorMatrix in="SourceAlpha" type="matrix" values="0 0 0 0 0 0 0 0 0 0 0 0 0 0 0 0 0 0 127 0" result="hardAlpha"/>
<feOffset dy="6"/>
<feComposite in2="hardAlpha" operator="out"/>
<feColorMatrix type="matrix" values="0 0 0 0 0 0 0 0 0 0 0 0 0 0 0 0 0 0 0.25 0"/>
<feBlend mode="normal" in2="BackgroundImageFix" result="effect1_dropShadow_1_2139"/>
<feColorMatrix in="SourceAlpha" type="matrix" values="0 0 0 0 0 0 0 0 0 0 0 0 0 0 0 0 0 0 127 0" result="hardAlpha"/>
<feOffset dy="2"/>
<feComposite in2="hardAlpha" operator="out"/>
<feColorMatrix type="matrix" values="0 0 0 0 0.901961 0 0 0 0 0.901961 0 0 0 0 0.901961 0 0 0 1 0"/>
<feBlend mode="normal" in2="effect1_dropShadow_1_2139" result="effect2_dropShadow_1_2139"/>
<feBlend mode="normal" in="SourceGraphic" in2="effect2_dropShadow_1_2139" result="shape"/>
</filter>
<filter id="filter1_di_1_2139" x="4" y="-2" width="160" height="66" filterUnits="userSpaceOnUse" color-interpolation-filters="sRGB">
<feFlood flood-opacity="0" result="BackgroundImageFix"/>
<feColorMatrix in="SourceAlpha" type="matrix" values="0 0 0 0 0 0 0 0 0 0 0 0 0 0 0 0 0 0 127 0" result="hardAlpha"/>
<feOffset dy="4"/>
<feComposite in2="hardAlpha" operator="out"/>
<feColorMatrix type="matrix" values="0 0 0 0 0 0 0 0 0 0.764706 0 0 0 0 0.637255 0 0 0 1 0"/>
<feBlend mode="normal" in2="BackgroundImageFix" result="effect1_dropShadow_1_2139"/>
<feBlend mode="normal" in="SourceGraphic" in2="effect1_dropShadow_1_2139" result="shape"/>
<feColorMatrix in="SourceAlpha" type="matrix" values="0 0 0 0 0 0 0 0 0 0 0 0 0 0 0 0 0 0 127 0" result="hardAlpha"/>
<feOffset dy="-2"/>
<feGaussianBlur stdDeviation="5.5"/>
<feComposite in2="hardAlpha" operator="arithmetic" k2="-1" k3="1"/>
<feColorMatrix type="matrix" values="0 0 0 0 0.0235294 0 0 0 0 0.984314 0 0 0 0 0.503922 0 0 0 1 0"/>
<feBlend mode="normal" in2="shape" result="effect2_innerShadow_1_2139"/>
</filter>
<filter id="filter2_i_1_2139" x="4" y="0" width="160" height="37.3589" filterUnits="userSpaceOnUse" color-interpolation-filters="sRGB">
<feFlood flood-opacity="0" result="BackgroundImageFix"/>
<feBlend mode="normal" in="SourceGraphic" in2="BackgroundImageFix" result="shape"/>
<feColorMatrix in="SourceAlpha" type="matrix" values="0 0 0 0 0 0 0 0 0 0 0 0 0 0 0 0 0 0 127 0" result="hardAlpha"/>
<feOffset dy="4"/>
<feGaussianBlur stdDeviation="2"/>
<feComposite in2="hardAlpha" operator="arithmetic" k2="-1" k3="1"/>
<feColorMatrix type="matrix" values="0 0 0 0 0.0235294 0 0 0 0 0.984314 0 0 0 0 0.760131 0 0 0 1 0"/>
<feBlend mode="normal" in2="shape" result="effect1_innerShadow_1_2139"/>
</filter>
<filter id="filter3_i_1_2139" x="26.3743" y="25.125" width="115.092" height="18.3" filterUnits="userSpaceOnUse" color-interpolation-filters="sRGB">
<feFlood flood-opacity="0" result="BackgroundImageFix"/>
<feBlend mode="normal" in="SourceGraphic" in2="BackgroundImageFix" result="shape"/>
<feColorMatrix in="SourceAlpha" type="matrix" values="0 0 0 0 0 0 0 0 0 0 0 0 0 0 0 0 0 0 127 0" result="hardAlpha"/>
<feOffset/>
<feGaussianBlur stdDeviation="1"/>
<feComposite in2="hardAlpha" operator="arithmetic" k2="-1" k3="1"/>
<feColorMatrix type="matrix" values="0 0 0 0 0 0 0 0 0 0 0 0 0 0 0 0 0 0 0.25 0"/>
<feBlend mode="normal" in2="shape" result="effect1_innerShadow_1_2139"/>
</filter>
</defs>
</svg>
