<svg width="168" height="73" viewBox="0 0 168 73" fill="none" xmlns="http://www.w3.org/2000/svg">
<g filter="url(#filter0_dd_1_2395)">
<path fill-rule="evenodd" clip-rule="evenodd" d="M10.9192 4.97456C27.0797 2.34181 140.506 2.34181 156.363 4.97456C161.447 5.87524 164.709 8.92368 165.695 13.5656C168.806 28.1843 168.73 42.803 165.695 57.4909C164.785 62.1329 161.447 65.597 156.363 66.0127C140.506 67.3291 27.0797 67.3291 10.9192 66.0127C5.76003 65.597 2.11823 62.1329 1.51127 57.4909C-0.309626 42.803 -0.688979 28.1843 1.51127 13.5656C2.19411 8.92368 5.8359 5.80595 10.9192 4.97456Z" fill="white"/>
</g>
<path fill-rule="evenodd" clip-rule="evenodd" d="M13.4643 4.882C28.9514 2.37267 137.652 2.37267 152.848 4.882C157.72 5.74046 160.846 8.64601 161.791 13.0704C164.772 27.0038 164.7 40.9372 161.791 54.9367C160.919 59.361 157.72 62.6628 152.848 63.059C137.652 64.3137 28.9514 64.3137 13.4643 63.059C8.52002 62.6628 5.02997 59.361 4.4483 54.9367C2.70328 40.9372 2.33973 27.0038 4.4483 13.0704C5.10268 8.64601 8.59273 5.67442 13.4643 4.882Z" fill="#E6E6E6"/>
<g filter="url(#filter1_di_1_2395)">
<path d="M13.745 2.00503C28.1737 -0.62946 139.449 -0.706945 153.651 2.00503C158.108 2.85736 161.129 5.95676 161.96 10.5284C163.245 17.1921 163.924 23.8558 164 30.5195C163.924 37.1832 163.245 42.8079 161.96 49.4716C161.129 54.0432 158.108 57.1426 153.651 57.995C139.449 60.7069 28.1737 60.6295 13.745 57.995C9.21247 57.2201 5.96412 54.1207 5.35977 49.4716C4.5288 42.8079 4.07554 36.9507 4 30.3645C4.07554 23.7783 4.5288 17.1921 5.35977 10.5284C5.96412 5.87927 9.21247 2.77988 13.745 2.00503Z" fill="#525252"/>
</g>
<g filter="url(#filter2_i_1_2395)">
<path fill-rule="evenodd" clip-rule="evenodd" d="M153.651 2.00503C139.449 -0.706944 28.1737 -0.62946 13.745 2.00503C9.21246 2.77988 5.96412 5.87927 5.35977 10.5284C4.5288 17.1921 4.07554 23.7783 4 30.3645C16.8333 32.5893 50.7 35.7351 83.5 30.5195C116.3 25.3039 150.833 28.3463 164 30.5195C163.924 23.8558 163.245 17.1921 161.96 10.5284C161.129 5.95676 158.108 2.85736 153.651 2.00503Z" fill="#4F4F4F"/>
</g>
<path fill-rule="evenodd" clip-rule="evenodd" d="M8.70394 9.09093C10.7375 5.1979 15.5868 2.61587 17.0801 3.3959C18.5472 4.16224 17.0557 8.97589 15.0221 12.8689C12.9885 16.7619 9.1392 21.344 7.67212 20.5776C6.17885 19.7976 6.67037 12.984 8.70394 9.09093Z" fill="white"/>
<path fill-rule="evenodd" clip-rule="evenodd" d="M158.647 50.8505C156.613 54.7435 151.764 57.3255 150.271 56.5455C148.804 55.7792 150.295 50.9655 152.329 47.0725C154.362 43.1795 158.212 38.5974 159.679 39.3638C161.172 40.1438 160.68 46.9575 158.647 50.8505Z" fill="white"/>
<g filter="url(#filter3_i_1_2395)">
<path d="M37.9436 43.125C35.3769 43.125 33.2686 42.3083 31.6186 40.675C29.9686 39.0417 29.1436 36.9583 29.1436 34.425C29.1436 31.7917 30.0019 29.6 31.7186 27.85C33.4519 26.0833 35.6352 25.2 38.2686 25.2C40.8352 25.2 42.9269 26.075 44.5436 27.825C46.1602 29.5583 46.9686 31.725 46.9686 34.325C46.9686 36.925 46.1269 39.0417 44.4436 40.675C42.7602 42.3083 40.5936 43.125 37.9436 43.125ZM33.9936 34.3C33.9936 35.5167 34.3602 36.55 35.0936 37.4C35.8269 38.25 36.7936 38.675 37.9936 38.675C39.2269 38.675 40.2186 38.25 40.9686 37.4C41.7352 36.5333 42.1186 35.4833 42.1186 34.25C42.1186 33.0167 41.7602 31.9417 41.0436 31.025C40.3269 30.1083 39.3602 29.65 38.1436 29.65C36.9102 29.65 35.9102 30.1083 35.1436 31.025C34.3769 31.9417 33.9936 33.0333 33.9936 34.3ZM50.9863 42.925C50.503 42.8417 50.228 42.525 50.1613 41.975C49.9947 40.475 49.9113 38.3833 49.9113 35.7C49.9113 32.4833 50.1363 29.3417 50.5863 26.275C50.603 26.225 50.6113 26.1667 50.6113 26.1C50.6447 26 50.6863 25.925 50.7363 25.875C50.9697 25.525 51.5447 25.3 52.4613 25.2C52.9113 25.15 53.503 25.125 54.2363 25.125C54.7697 25.125 55.303 25.1583 55.8363 25.225C56.3863 25.275 57.0113 25.375 57.7113 25.525C58.428 25.6583 59.0863 25.8833 59.6863 26.2C60.303 26.5 60.8697 26.875 61.3863 27.325C61.9197 27.7583 62.3363 28.3333 62.6363 29.05C62.953 29.7667 63.1113 30.575 63.1113 31.475C63.1113 32.1917 62.978 32.925 62.7113 33.675C62.428 34.4417 62.0113 35.125 61.4613 35.725C60.9113 36.3083 60.3197 36.775 59.6863 37.125C59.053 37.475 58.353 37.7667 57.5863 38C56.8363 38.2333 56.1363 38.3917 55.4863 38.475C54.853 38.5583 54.2197 38.6 53.5863 38.6C53.6363 39.5667 53.7197 40.425 53.8363 41.175C53.8363 41.1917 53.8363 41.225 53.8363 41.275C53.853 41.3083 53.8613 41.3417 53.8613 41.375C53.8613 41.875 53.603 42.275 53.0863 42.575C52.5863 42.8583 52.0613 43 51.5113 43C51.3447 43 51.1697 42.975 50.9863 42.925ZM53.5613 34.5H53.5863C54.1363 34.5 54.6947 34.4583 55.2613 34.375C55.8447 34.275 56.4447 34.125 57.0613 33.925C57.678 33.7083 58.178 33.3917 58.5613 32.975C58.9613 32.5417 59.1613 32.025 59.1613 31.425C59.1613 31.125 59.1197 30.8917 59.0363 30.725C58.803 30.175 58.1613 29.7833 57.1113 29.55C56.078 29.3167 55.0863 29.2 54.1363 29.2H53.9613C53.778 30.8333 53.6447 32.6 53.5613 34.5ZM68.5555 29.3C68.2388 29.3 67.7555 29.3 67.1055 29.3C66.4721 29.2833 65.9888 29.275 65.6555 29.275C65.2721 29.275 64.9721 29.0667 64.7555 28.65C64.5388 28.2333 64.4305 27.7833 64.4305 27.3C64.4305 26.7667 64.5305 26.2833 64.7305 25.85C64.9305 25.4167 65.2388 25.2 65.6555 25.2C66.3721 25.2 67.4471 25.2167 68.8805 25.25C70.3138 25.2667 71.3971 25.275 72.1305 25.275C72.4805 25.275 73.0055 25.2667 73.7055 25.25C74.4221 25.2167 74.9638 25.2 75.3305 25.2C75.7638 25.2 76.0805 25.4 76.2805 25.8C76.4971 26.2 76.6055 26.675 76.6055 27.225C76.6055 28.125 76.3638 28.75 75.8805 29.1C75.7305 29.1833 75.4888 29.2417 75.1555 29.275C74.5721 29.325 73.6805 29.35 72.4805 29.35C72.3638 35.85 72.3055 40.0167 72.3055 41.85C72.3055 42.0333 72.2471 42.225 72.1305 42.425C71.8805 42.775 71.3055 42.95 70.4055 42.95C70.0388 42.95 69.6888 42.9 69.3555 42.8C69.0888 42.7333 68.8805 42.65 68.7305 42.55C68.4971 42.35 68.3805 42.125 68.3805 41.875C68.3805 41.625 68.3971 41.2667 68.4305 40.8C68.4805 40.3333 68.5055 40.0167 68.5055 39.85C68.5555 38.4667 68.5805 37.0833 68.5805 35.7C68.5805 35.2167 68.5721 34.2333 68.5555 32.75C68.5388 31.2667 68.5388 30.1167 68.5555 29.3ZM83.6658 41.025C83.6658 41.0417 83.6742 41.0667 83.6908 41.1V41.125V41.175C83.7075 41.2083 83.7158 41.2417 83.7158 41.275C83.7158 41.8917 83.3992 42.3583 82.7658 42.675C82.1492 42.975 81.5242 43.125 80.8908 43.125C80.2408 43.125 79.7658 42.975 79.4658 42.675C79.2658 42.425 79.1658 42.1667 79.1658 41.9C79.1492 41.7667 79.1158 41.3083 79.0658 40.525C78.9492 38.6583 78.8908 37.0583 78.8908 35.725C78.8908 33.2083 78.9825 31.0833 79.1658 29.35C79.2658 28.0667 79.4158 27.0833 79.6158 26.4C79.8325 25.65 80.5408 25.275 81.7408 25.275C82.2575 25.275 82.7658 25.3583 83.2658 25.525C83.9158 25.7917 84.2408 26.1917 84.2408 26.725C84.2408 26.8417 84.2325 26.9333 84.2158 27C83.6325 29.9667 83.3408 33.0583 83.3408 36.275C83.3408 38.225 83.4492 39.8083 83.6658 41.025ZM95.1213 43.125C92.5546 43.125 90.4463 42.3083 88.7963 40.675C87.1463 39.0417 86.3213 36.9583 86.3213 34.425C86.3213 31.7917 87.1796 29.6 88.8963 27.85C90.6296 26.0833 92.813 25.2 95.4463 25.2C98.013 25.2 100.105 26.075 101.721 27.825C103.338 29.5583 104.146 31.725 104.146 34.325C104.146 36.925 103.305 39.0417 101.621 40.675C99.938 42.3083 97.7713 43.125 95.1213 43.125ZM91.1713 34.3C91.1713 35.5167 91.538 36.55 92.2713 37.4C93.0046 38.25 93.9713 38.675 95.1713 38.675C96.4046 38.675 97.3963 38.25 98.1463 37.4C98.913 36.5333 99.2963 35.4833 99.2963 34.25C99.2963 33.0167 98.938 31.9417 98.2213 31.025C97.5046 30.1083 96.538 29.65 95.3213 29.65C94.088 29.65 93.088 30.1083 92.3213 31.025C91.5546 31.9417 91.1713 33.0333 91.1713 34.3ZM111.189 32.875C111.106 34.275 111.064 37.2083 111.064 41.675C111.064 42.125 110.839 42.45 110.389 42.65C109.939 42.85 109.456 42.95 108.939 42.95C107.822 42.95 107.214 42.5417 107.114 41.725C107.064 41.1417 107.039 39.95 107.039 38.15C107.039 35.45 107.181 32.6833 107.464 29.85C107.464 29.8167 107.506 29.425 107.589 28.675C107.689 27.9083 107.772 27.3417 107.839 26.975C107.972 26.3417 108.406 25.8917 109.139 25.625C109.672 25.3917 110.197 25.275 110.714 25.275C111.197 25.275 111.589 25.4083 111.889 25.675C111.989 25.775 112.064 25.8667 112.114 25.95C112.947 27.4 113.506 28.4083 113.789 28.975C114.022 29.3917 114.356 30.0167 114.789 30.85C115.239 31.6667 115.572 32.2833 115.789 32.7C116.306 33.6667 116.881 34.65 117.514 35.65C117.531 35.3333 117.589 34.025 117.689 31.725C117.789 29.425 117.839 27.6667 117.839 26.45C117.839 26.1333 117.964 25.8833 118.214 25.7C118.647 25.3333 119.247 25.15 120.014 25.15C120.831 25.15 121.372 25.3583 121.639 25.775C121.739 25.9583 121.789 26.1833 121.789 26.45V30.275C121.789 33.7417 121.756 36.3417 121.689 38.075C121.656 39.975 121.606 41.225 121.539 41.825C121.522 41.9917 121.439 42.1917 121.289 42.425C120.922 42.875 120.214 43.1 119.164 43.1C118.314 43.1 117.714 42.9167 117.364 42.55C117.131 42.3167 116.706 41.775 116.089 40.925C115.822 40.5417 115.439 39.95 114.939 39.15C114.772 38.9 113.522 36.8083 111.189 32.875ZM128.372 37.775C128.439 38.3583 128.739 38.775 129.272 39.025C129.806 39.2583 130.406 39.375 131.072 39.375C131.506 39.375 131.981 39.325 132.497 39.225C133.014 39.1083 133.506 38.9 133.972 38.6C134.439 38.2833 134.672 37.9083 134.672 37.475C134.672 37.125 134.256 36.7833 133.422 36.45C133.139 36.35 132.631 36.1917 131.897 35.975C131.181 35.7417 130.622 35.55 130.222 35.4C129.572 35.1667 128.997 34.925 128.497 34.675C128.014 34.4083 127.522 34.075 127.022 33.675C126.522 33.2583 126.131 32.75 125.847 32.15C125.581 31.55 125.447 30.875 125.447 30.125C125.447 29.0917 125.781 28.1917 126.447 27.425C127.114 26.6417 127.914 26.075 128.847 25.725C129.781 25.375 130.756 25.2 131.772 25.2C132.989 25.2 134.189 25.4167 135.372 25.85C136.572 26.2833 137.489 27.0167 138.122 28.05C138.406 28.5167 138.547 28.9833 138.547 29.45C138.547 30.15 138.322 30.7083 137.872 31.125C137.422 31.5417 136.956 31.75 136.472 31.75C135.872 31.75 135.414 31.45 135.097 30.85C134.914 30.5 134.806 30.2917 134.772 30.225C134.639 30.0083 134.506 29.8583 134.372 29.775C133.856 29.4417 133.031 29.275 131.897 29.275C131.547 29.275 131.131 29.325 130.647 29.425C130.164 29.525 129.822 29.6583 129.622 29.825C129.472 29.9417 129.397 30.0417 129.397 30.125C129.397 30.2417 129.456 30.3833 129.572 30.55C130.089 31.0667 131.064 31.5167 132.497 31.9C133.831 32.3167 134.697 32.6083 135.097 32.775C137.447 33.825 138.622 35.4 138.622 37.5C138.622 38.75 138.239 39.8333 137.472 40.75C136.722 41.6667 135.797 42.3333 134.697 42.75C133.614 43.15 132.456 43.35 131.222 43.35C130.472 43.35 129.731 43.25 128.997 43.05C128.281 42.8667 127.606 42.5917 126.972 42.225C126.356 41.8583 125.856 41.3667 125.472 40.75C125.089 40.1167 124.897 39.4083 124.897 38.625C124.897 38.075 125.139 37.6083 125.622 37.225C126.106 36.825 126.631 36.625 127.197 36.625C127.347 36.625 127.497 36.65 127.647 36.7C127.864 36.7333 128.022 36.825 128.122 36.975C128.206 37.0417 128.281 37.175 128.347 37.375C128.347 37.3917 128.347 37.425 128.347 37.475C128.364 37.5083 128.372 37.5417 128.372 37.575V37.775Z" fill="#292929"/>
</g>
<defs>
<filter id="filter0_dd_1_2395" x="0" y="3" width="168" height="70" filterUnits="userSpaceOnUse" color-interpolation-filters="sRGB">
<feFlood flood-opacity="0" result="BackgroundImageFix"/>
<feColorMatrix in="SourceAlpha" type="matrix" values="0 0 0 0 0 0 0 0 0 0 0 0 0 0 0 0 0 0 127 0" result="hardAlpha"/>
<feOffset dy="6"/>
<feComposite in2="hardAlpha" operator="out"/>
<feColorMatrix type="matrix" values="0 0 0 0 0 0 0 0 0 0 0 0 0 0 0 0 0 0 0.25 0"/>
<feBlend mode="normal" in2="BackgroundImageFix" result="effect1_dropShadow_1_2395"/>
<feColorMatrix in="SourceAlpha" type="matrix" values="0 0 0 0 0 0 0 0 0 0 0 0 0 0 0 0 0 0 127 0" result="hardAlpha"/>
<feOffset dy="2"/>
<feComposite in2="hardAlpha" operator="out"/>
<feColorMatrix type="matrix" values="0 0 0 0 0.901961 0 0 0 0 0.901961 0 0 0 0 0.901961 0 0 0 1 0"/>
<feBlend mode="normal" in2="effect1_dropShadow_1_2395" result="effect2_dropShadow_1_2395"/>
<feBlend mode="normal" in="SourceGraphic" in2="effect2_dropShadow_1_2395" result="shape"/>
</filter>
<filter id="filter1_di_1_2395" x="4" y="-2" width="160" height="66" filterUnits="userSpaceOnUse" color-interpolation-filters="sRGB">
<feFlood flood-opacity="0" result="BackgroundImageFix"/>
<feColorMatrix in="SourceAlpha" type="matrix" values="0 0 0 0 0 0 0 0 0 0 0 0 0 0 0 0 0 0 127 0" result="hardAlpha"/>
<feOffset dy="4"/>
<feComposite in2="hardAlpha" operator="out"/>
<feColorMatrix type="matrix" values="0 0 0 0 0.233333 0 0 0 0 0.233333 0 0 0 0 0.233333 0 0 0 1 0"/>
<feBlend mode="normal" in2="BackgroundImageFix" result="effect1_dropShadow_1_2395"/>
<feBlend mode="normal" in="SourceGraphic" in2="effect1_dropShadow_1_2395" result="shape"/>
<feColorMatrix in="SourceAlpha" type="matrix" values="0 0 0 0 0 0 0 0 0 0 0 0 0 0 0 0 0 0 127 0" result="hardAlpha"/>
<feOffset dy="-2"/>
<feGaussianBlur stdDeviation="5.5"/>
<feComposite in2="hardAlpha" operator="arithmetic" k2="-1" k3="1"/>
<feColorMatrix type="matrix" values="0 0 0 0 0.241667 0 0 0 0 0.241667 0 0 0 0 0.241667 0 0 0 1 0"/>
<feBlend mode="normal" in2="shape" result="effect2_innerShadow_1_2395"/>
</filter>
<filter id="filter2_i_1_2395" x="4" y="0" width="160" height="37.3589" filterUnits="userSpaceOnUse" color-interpolation-filters="sRGB">
<feFlood flood-opacity="0" result="BackgroundImageFix"/>
<feBlend mode="normal" in="SourceGraphic" in2="BackgroundImageFix" result="shape"/>
<feColorMatrix in="SourceAlpha" type="matrix" values="0 0 0 0 0 0 0 0 0 0 0 0 0 0 0 0 0 0 127 0" result="hardAlpha"/>
<feOffset dy="4"/>
<feGaussianBlur stdDeviation="2"/>
<feComposite in2="hardAlpha" operator="arithmetic" k2="-1" k3="1"/>
<feColorMatrix type="matrix" values="0 0 0 0 0.341667 0 0 0 0 0.341667 0 0 0 0 0.341667 0 0 0 1 0"/>
<feBlend mode="normal" in2="shape" result="effect1_innerShadow_1_2395"/>
</filter>
<filter id="filter3_i_1_2395" x="29.1436" y="25.125" width="109.479" height="18.225" filterUnits="userSpaceOnUse" color-interpolation-filters="sRGB">
<feFlood flood-opacity="0" result="BackgroundImageFix"/>
<feBlend mode="normal" in="SourceGraphic" in2="BackgroundImageFix" result="shape"/>
<feColorMatrix in="SourceAlpha" type="matrix" values="0 0 0 0 0 0 0 0 0 0 0 0 0 0 0 0 0 0 127 0" result="hardAlpha"/>
<feOffset/>
<feGaussianBlur stdDeviation="1"/>
<feComposite in2="hardAlpha" operator="arithmetic" k2="-1" k3="1"/>
<feColorMatrix type="matrix" values="0 0 0 0 0 0 0 0 0 0 0 0 0 0 0 0 0 0 0.25 0"/>
<feBlend mode="normal" in2="shape" result="effect1_innerShadow_1_2395"/>
</filter>
</defs>
</svg>
