<svg width="168" height="73" viewBox="0 0 168 73" fill="none" xmlns="http://www.w3.org/2000/svg">
<g filter="url(#filter0_dd_1_2042)">
<path fill-rule="evenodd" clip-rule="evenodd" d="M10.9192 4.97456C27.0797 2.34181 140.506 2.34181 156.363 4.97456C161.447 5.87524 164.709 8.92368 165.695 13.5656C168.806 28.1843 168.73 42.803 165.695 57.4909C164.785 62.1329 161.447 65.597 156.363 66.0127C140.506 67.3291 27.0797 67.3291 10.9192 66.0127C5.76003 65.597 2.11823 62.1329 1.51127 57.4909C-0.309626 42.803 -0.688979 28.1843 1.51127 13.5656C2.19411 8.92368 5.8359 5.80595 10.9192 4.97456Z" fill="white"/>
</g>
<path fill-rule="evenodd" clip-rule="evenodd" d="M13.4643 4.882C28.9514 2.37267 137.652 2.37267 152.848 4.882C157.72 5.74046 160.846 8.64601 161.791 13.0704C164.772 27.0038 164.7 40.9372 161.791 54.9367C160.919 59.361 157.72 62.6628 152.848 63.059C137.652 64.3137 28.9514 64.3137 13.4643 63.059C8.52002 62.6628 5.02997 59.361 4.4483 54.9367C2.70328 40.9372 2.33973 27.0038 4.4483 13.0704C5.10268 8.64601 8.59273 5.67442 13.4643 4.882Z" fill="#E6E6E6"/>
<g filter="url(#filter1_di_1_2042)">
<path d="M13.745 2.00503C28.1737 -0.62946 139.449 -0.706945 153.651 2.00503C158.108 2.85736 161.129 5.95676 161.96 10.5284C163.245 17.1921 163.924 23.8558 164 30.5195C163.924 37.1832 163.245 42.8079 161.96 49.4716C161.129 54.0432 158.108 57.1426 153.651 57.995C139.449 60.7069 28.1737 60.6295 13.745 57.995C9.21247 57.2201 5.96412 54.1207 5.35977 49.4716C4.5288 42.8079 4.07554 36.9507 4 30.3645C4.07554 23.7783 4.5288 17.1921 5.35977 10.5284C5.96412 5.87927 9.21247 2.77988 13.745 2.00503Z" fill="#DE0101"/>
</g>
<g filter="url(#filter2_i_1_2042)">
<path fill-rule="evenodd" clip-rule="evenodd" d="M153.651 2.00503C139.449 -0.706944 28.1737 -0.62946 13.745 2.00503C9.21246 2.77988 5.96412 5.87927 5.35977 10.5284C4.5288 17.1921 4.07554 23.7783 4 30.3645C16.8333 32.5893 50.7 35.7351 83.5 30.5195C116.3 25.3039 150.833 28.3463 164 30.5195C163.924 23.8558 163.245 17.1921 161.96 10.5284C161.129 5.95676 158.108 2.85736 153.651 2.00503Z" fill="#E84B4B"/>
</g>
<path fill-rule="evenodd" clip-rule="evenodd" d="M8.70394 9.09093C10.7375 5.1979 15.5868 2.61587 17.0801 3.3959C18.5472 4.16224 17.0557 8.97589 15.0221 12.8689C12.9885 16.7619 9.1392 21.344 7.67212 20.5776C6.17885 19.7976 6.67037 12.984 8.70394 9.09093Z" fill="white"/>
<path fill-rule="evenodd" clip-rule="evenodd" d="M158.647 50.8505C156.613 54.7435 151.764 57.3255 150.271 56.5455C148.804 55.7792 150.295 50.9655 152.329 47.0725C154.362 43.1795 158.212 38.5974 159.679 39.3638C161.172 40.1438 160.68 46.9575 158.647 50.8505Z" fill="white"/>
<g filter="url(#filter3_i_1_2042)">
<path d="M63.0287 32.675H66.6787C67.062 32.675 67.362 32.8667 67.5787 33.25C67.7954 33.6333 67.9037 34.0667 67.9037 34.55C67.9037 35.05 67.7954 35.5417 67.5787 36.025C67.362 36.5083 67.0537 36.75 66.6537 36.75H62.8787C62.9287 37.6 63.0537 38.4083 63.2537 39.175C63.5537 39.275 63.937 39.325 64.4037 39.325C64.9537 39.325 65.7287 39.225 66.7287 39.025C67.7287 38.8083 68.3787 38.6833 68.6787 38.65H68.8787C69.3287 38.65 69.687 38.9167 69.9537 39.45C70.2204 39.9667 70.3537 40.5167 70.3537 41.1C70.3537 41.6167 70.2204 42.0167 69.9537 42.3C69.6704 42.6 68.8537 42.85 67.5037 43.05C66.1704 43.2667 65.1204 43.375 64.3537 43.375C62.8037 43.375 61.5037 43 60.4537 42.25C59.9037 41.85 59.5037 40.9417 59.2537 39.525C59.0204 38.1083 58.9037 36.825 58.9037 35.675C58.9037 33.3417 59.2287 30.4833 59.8787 27.1C60.0287 26.45 60.362 25.975 60.8787 25.675C61.2287 25.4417 62.387 25.275 64.3537 25.175C65.3704 25.1417 66.612 25.125 68.0787 25.125C68.3954 25.125 68.6287 25.1333 68.7787 25.15C69.012 25.1833 69.2204 25.2417 69.4037 25.325C69.8704 25.5917 70.1037 26.1417 70.1037 26.975C70.1037 27.4083 70.0204 27.8583 69.8537 28.325C69.7037 28.7917 69.4704 29.0833 69.1537 29.2C69.037 29.25 68.462 29.275 67.4287 29.275C66.4287 29.2417 65.8204 29.225 65.6037 29.225C64.9037 29.225 64.212 29.25 63.5287 29.3C63.2454 31.1833 63.0787 32.3083 63.0287 32.675ZM79.5168 37.55C79.3168 37.8 78.7001 38.6333 77.6668 40.05C76.8501 41.1667 76.1501 42.025 75.5668 42.625C75.3001 42.8917 75.0251 43.025 74.7418 43.025C74.5085 43.025 74.2918 42.9833 74.0918 42.9C73.7085 42.7667 73.3335 42.5417 72.9668 42.225C72.5001 41.7583 72.2668 41.275 72.2668 40.775C72.2668 40.5583 72.3585 40.2917 72.5418 39.975C72.6918 39.7917 72.9501 39.4917 73.3168 39.075C73.6835 38.6583 73.9585 38.325 74.1418 38.075C74.4585 37.675 74.9335 37.0417 75.5668 36.175C76.2168 35.2917 76.7168 34.6333 77.0668 34.2C75.3501 31.7667 74.4001 30.425 74.2168 30.175C74.0001 29.8917 73.4668 29.25 72.6168 28.25C72.5335 28.1167 72.4835 28.025 72.4668 27.975C72.3835 27.8417 72.3418 27.675 72.3418 27.475C72.3418 26.875 72.6418 26.35 73.2418 25.9C73.8585 25.4333 74.3668 25.2 74.7668 25.2C75.0501 25.2 75.2751 25.2667 75.4418 25.4C75.8585 25.7 76.6085 26.6 77.6918 28.1C78.5418 29.3667 79.1918 30.3167 79.6418 30.95C81.5585 28.6833 83.2501 26.8667 84.7168 25.5C84.8835 25.3333 85.0585 25.25 85.2418 25.25C85.6585 25.25 86.1751 25.5167 86.7918 26.05C87.4085 26.5667 87.7168 27.125 87.7168 27.725C87.7168 28.025 87.6251 28.25 87.4418 28.4C87.2085 28.65 86.8751 28.9917 86.4418 29.425C86.0251 29.8417 85.7335 30.1333 85.5668 30.3C84.0668 31.9167 82.8918 33.2583 82.0418 34.325C83.7418 36.5917 85.2668 38.3 86.6168 39.45C86.6335 39.4667 86.6585 39.4833 86.6918 39.5L86.7418 39.55L86.8418 39.65L87.0418 39.975C87.1085 40.175 87.1418 40.35 87.1418 40.5C87.1418 41.0833 86.8585 41.6417 86.2918 42.175C85.7418 42.6917 85.2585 42.95 84.8418 42.95C84.6751 42.95 84.5085 42.8917 84.3418 42.775C84.2585 42.725 84.1085 42.6083 83.8918 42.425C83.6918 42.2417 83.5668 42.125 83.5168 42.075L82.7418 41.3C81.7418 40.3167 80.6668 39.0667 79.5168 37.55ZM95.0555 41.025C95.0555 41.0417 95.0638 41.0667 95.0805 41.1V41.125V41.175C95.0971 41.2083 95.1055 41.2417 95.1055 41.275C95.1055 41.8917 94.7888 42.3583 94.1555 42.675C93.5388 42.975 92.9138 43.125 92.2805 43.125C91.6305 43.125 91.1555 42.975 90.8555 42.675C90.6555 42.425 90.5555 42.1667 90.5555 41.9C90.5388 41.7667 90.5055 41.3083 90.4555 40.525C90.3388 38.6583 90.2805 37.0583 90.2805 35.725C90.2805 33.2083 90.3721 31.0833 90.5555 29.35C90.6555 28.0667 90.8055 27.0833 91.0055 26.4C91.2221 25.65 91.9305 25.275 93.1305 25.275C93.6471 25.275 94.1555 25.3583 94.6555 25.525C95.3055 25.7917 95.6305 26.1917 95.6305 26.725C95.6305 26.8417 95.6221 26.9333 95.6055 27C95.0221 29.9667 94.7305 33.0583 94.7305 36.275C94.7305 38.225 94.8388 39.8083 95.0555 41.025ZM101.161 29.3C100.844 29.3 100.361 29.3 99.7109 29.3C99.0776 29.2833 98.5943 29.275 98.2609 29.275C97.8776 29.275 97.5776 29.0667 97.3609 28.65C97.1443 28.2333 97.0359 27.7833 97.0359 27.3C97.0359 26.7667 97.1359 26.2833 97.3359 25.85C97.5359 25.4167 97.8443 25.2 98.2609 25.2C98.9776 25.2 100.053 25.2167 101.486 25.25C102.919 25.2667 104.003 25.275 104.736 25.275C105.086 25.275 105.611 25.2667 106.311 25.25C107.028 25.2167 107.569 25.2 107.936 25.2C108.369 25.2 108.686 25.4 108.886 25.8C109.103 26.2 109.211 26.675 109.211 27.225C109.211 28.125 108.969 28.75 108.486 29.1C108.336 29.1833 108.094 29.2417 107.761 29.275C107.178 29.325 106.286 29.35 105.086 29.35C104.969 35.85 104.911 40.0167 104.911 41.85C104.911 42.0333 104.853 42.225 104.736 42.425C104.486 42.775 103.911 42.95 103.011 42.95C102.644 42.95 102.294 42.9 101.961 42.8C101.694 42.7333 101.486 42.65 101.336 42.55C101.103 42.35 100.986 42.125 100.986 41.875C100.986 41.625 101.003 41.2667 101.036 40.8C101.086 40.3333 101.111 40.0167 101.111 39.85C101.161 38.4667 101.186 37.0833 101.186 35.7C101.186 35.2167 101.178 34.2333 101.161 32.75C101.144 31.2667 101.144 30.1167 101.161 29.3Z" fill="#8B0101"/>
</g>
<defs>
<filter id="filter0_dd_1_2042" x="0" y="3" width="168" height="70" filterUnits="userSpaceOnUse" color-interpolation-filters="sRGB">
<feFlood flood-opacity="0" result="BackgroundImageFix"/>
<feColorMatrix in="SourceAlpha" type="matrix" values="0 0 0 0 0 0 0 0 0 0 0 0 0 0 0 0 0 0 127 0" result="hardAlpha"/>
<feOffset dy="6"/>
<feComposite in2="hardAlpha" operator="out"/>
<feColorMatrix type="matrix" values="0 0 0 0 0 0 0 0 0 0 0 0 0 0 0 0 0 0 0.25 0"/>
<feBlend mode="normal" in2="BackgroundImageFix" result="effect1_dropShadow_1_2042"/>
<feColorMatrix in="SourceAlpha" type="matrix" values="0 0 0 0 0 0 0 0 0 0 0 0 0 0 0 0 0 0 127 0" result="hardAlpha"/>
<feOffset dy="2"/>
<feComposite in2="hardAlpha" operator="out"/>
<feColorMatrix type="matrix" values="0 0 0 0 0.901961 0 0 0 0 0.901961 0 0 0 0 0.901961 0 0 0 1 0"/>
<feBlend mode="normal" in2="effect1_dropShadow_1_2042" result="effect2_dropShadow_1_2042"/>
<feBlend mode="normal" in="SourceGraphic" in2="effect2_dropShadow_1_2042" result="shape"/>
</filter>
<filter id="filter1_di_1_2042" x="4" y="-2" width="160" height="66" filterUnits="userSpaceOnUse" color-interpolation-filters="sRGB">
<feFlood flood-opacity="0" result="BackgroundImageFix"/>
<feColorMatrix in="SourceAlpha" type="matrix" values="0 0 0 0 0 0 0 0 0 0 0 0 0 0 0 0 0 0 127 0" result="hardAlpha"/>
<feOffset dy="4"/>
<feComposite in2="hardAlpha" operator="out"/>
<feColorMatrix type="matrix" values="0 0 0 0 0.764706 0 0 0 0 0 0 0 0 0 0 0 0 0 1 0"/>
<feBlend mode="normal" in2="BackgroundImageFix" result="effect1_dropShadow_1_2042"/>
<feBlend mode="normal" in="SourceGraphic" in2="effect1_dropShadow_1_2042" result="shape"/>
<feColorMatrix in="SourceAlpha" type="matrix" values="0 0 0 0 0 0 0 0 0 0 0 0 0 0 0 0 0 0 127 0" result="hardAlpha"/>
<feOffset dy="-2"/>
<feGaussianBlur stdDeviation="5.5"/>
<feComposite in2="hardAlpha" operator="arithmetic" k2="-1" k3="1"/>
<feColorMatrix type="matrix" values="0 0 0 0 0.984314 0 0 0 0 0.0235294 0 0 0 0 0.0235294 0 0 0 1 0"/>
<feBlend mode="normal" in2="shape" result="effect2_innerShadow_1_2042"/>
</filter>
<filter id="filter2_i_1_2042" x="4" y="0" width="160" height="37.3588" filterUnits="userSpaceOnUse" color-interpolation-filters="sRGB">
<feFlood flood-opacity="0" result="BackgroundImageFix"/>
<feBlend mode="normal" in="SourceGraphic" in2="BackgroundImageFix" result="shape"/>
<feColorMatrix in="SourceAlpha" type="matrix" values="0 0 0 0 0 0 0 0 0 0 0 0 0 0 0 0 0 0 127 0" result="hardAlpha"/>
<feOffset dy="4"/>
<feGaussianBlur stdDeviation="2"/>
<feComposite in2="hardAlpha" operator="arithmetic" k2="-1" k3="1"/>
<feColorMatrix type="matrix" values="0 0 0 0 0.984314 0 0 0 0 0.0235294 0 0 0 0 0.0235294 0 0 0 1 0"/>
<feBlend mode="normal" in2="shape" result="effect1_innerShadow_1_2042"/>
</filter>
<filter id="filter3_i_1_2042" x="58.9037" y="25.125" width="50.3072" height="18.25" filterUnits="userSpaceOnUse" color-interpolation-filters="sRGB">
<feFlood flood-opacity="0" result="BackgroundImageFix"/>
<feBlend mode="normal" in="SourceGraphic" in2="BackgroundImageFix" result="shape"/>
<feColorMatrix in="SourceAlpha" type="matrix" values="0 0 0 0 0 0 0 0 0 0 0 0 0 0 0 0 0 0 127 0" result="hardAlpha"/>
<feOffset/>
<feGaussianBlur stdDeviation="1"/>
<feComposite in2="hardAlpha" operator="arithmetic" k2="-1" k3="1"/>
<feColorMatrix type="matrix" values="0 0 0 0 0 0 0 0 0 0 0 0 0 0 0 0 0 0 0.25 0"/>
<feBlend mode="normal" in2="shape" result="effect1_innerShadow_1_2042"/>
</filter>
</defs>
</svg>
