<svg width="168" height="73" viewBox="0 0 168 73" fill="none" xmlns="http://www.w3.org/2000/svg">
<g filter="url(#filter0_dd_1_2271)">
<path fill-rule="evenodd" clip-rule="evenodd" d="M10.9192 4.97456C27.0797 2.34181 140.506 2.34181 156.363 4.97456C161.447 5.87524 164.709 8.92368 165.695 13.5656C168.806 28.1843 168.73 42.803 165.695 57.4909C164.785 62.1329 161.447 65.597 156.363 66.0127C140.506 67.3291 27.0797 67.3291 10.9192 66.0127C5.76003 65.597 2.11823 62.1329 1.51127 57.4909C-0.309626 42.803 -0.688979 28.1843 1.51127 13.5656C2.19411 8.92368 5.8359 5.80595 10.9192 4.97456Z" fill="white"/>
</g>
<path fill-rule="evenodd" clip-rule="evenodd" d="M13.4643 4.882C28.9514 2.37267 137.652 2.37267 152.848 4.882C157.72 5.74046 160.846 8.64601 161.791 13.0704C164.772 27.0038 164.7 40.9372 161.791 54.9367C160.919 59.361 157.72 62.6628 152.848 63.059C137.652 64.3137 28.9514 64.3137 13.4643 63.059C8.52002 62.6628 5.02997 59.361 4.4483 54.9367C2.70328 40.9372 2.33973 27.0038 4.4483 13.0704C5.10268 8.64601 8.59273 5.67442 13.4643 4.882Z" fill="#E6E6E6"/>
<g filter="url(#filter1_di_1_2271)">
<path d="M13.745 2.00503C28.1737 -0.62946 139.449 -0.706945 153.651 2.00503C158.108 2.85736 161.129 5.95676 161.96 10.5284C163.245 17.1921 163.924 23.8558 164 30.5195C163.924 37.1832 163.245 42.8079 161.96 49.4716C161.129 54.0432 158.108 57.1426 153.651 57.995C139.449 60.7069 28.1737 60.6295 13.745 57.995C9.21247 57.2201 5.96412 54.1207 5.35977 49.4716C4.5288 42.8079 4.07554 36.9507 4 30.3645C4.07554 23.7783 4.5288 17.1921 5.35977 10.5284C5.96412 5.87927 9.21247 2.77988 13.745 2.00503Z" fill="#DE01C1"/>
</g>
<g filter="url(#filter2_i_1_2271)">
<path fill-rule="evenodd" clip-rule="evenodd" d="M153.651 2.00503C139.449 -0.706944 28.1737 -0.62946 13.745 2.00503C9.21246 2.77988 5.96412 5.87927 5.35977 10.5284C4.5288 17.1921 4.07554 23.7783 4 30.3645C16.8333 32.5893 50.7 35.7351 83.5 30.5195C116.3 25.3039 150.833 28.3463 164 30.5195C163.924 23.8558 163.245 17.1921 161.96 10.5284C161.129 5.95676 158.108 2.85736 153.651 2.00503Z" fill="#E84BB4"/>
</g>
<path fill-rule="evenodd" clip-rule="evenodd" d="M8.70394 9.09093C10.7375 5.1979 15.5868 2.61587 17.0801 3.3959C18.5472 4.16224 17.0557 8.97589 15.0221 12.8689C12.9885 16.7619 9.1392 21.344 7.67212 20.5776C6.17885 19.7976 6.67037 12.984 8.70394 9.09093Z" fill="white"/>
<path fill-rule="evenodd" clip-rule="evenodd" d="M158.647 50.8505C156.613 54.7435 151.764 57.3255 150.271 56.5455C148.804 55.7792 150.295 50.9655 152.329 47.0725C154.362 43.1795 158.212 38.5974 159.679 39.3638C161.172 40.1438 160.68 46.9575 158.647 50.8505Z" fill="white"/>
<g filter="url(#filter3_i_1_2271)">
<path d="M35.8752 42.925C35.3419 42.8417 35.0502 42.525 35.0002 41.975C34.8335 40.475 34.7502 38.3833 34.7502 35.7C34.7502 32.4833 34.9752 29.3417 35.4252 26.275C35.4419 26.225 35.4502 26.1667 35.4502 26.1C35.6002 25.6333 36.2335 25.3333 37.3502 25.2C37.8502 25.15 38.4752 25.125 39.2252 25.125C39.7585 25.125 40.3085 25.1583 40.8752 25.225C41.4419 25.275 42.0919 25.375 42.8252 25.525C43.5752 25.6583 44.2669 25.8833 44.9002 26.2C45.5335 26.5 46.1252 26.875 46.6752 27.325C47.2252 27.7583 47.6585 28.3333 47.9752 29.05C48.3085 29.75 48.4752 30.5417 48.4752 31.425C48.4752 33.975 47.2419 35.9167 44.7752 37.25C45.0419 38 45.7252 38.8583 46.8252 39.825C47.0252 40.0583 47.1252 40.3333 47.1252 40.65C47.1252 41.2667 46.7919 41.8167 46.1252 42.3C45.4752 42.7833 44.9169 43.025 44.4502 43.025C44.2002 43.025 43.9169 42.9167 43.6002 42.7C42.2169 41.7 41.1752 40.2833 40.4752 38.45C39.8252 38.55 39.3085 38.6 38.9252 38.6C38.9752 39.5667 39.0585 40.425 39.1752 41.175C39.1752 41.1917 39.1752 41.225 39.1752 41.275C39.1919 41.3083 39.2002 41.3417 39.2002 41.375C39.2002 41.925 38.8169 42.3667 38.0502 42.7C37.5169 42.9 37.0002 43 36.5002 43C36.3335 43 36.1252 42.975 35.8752 42.925ZM38.9002 34.5H38.9252C39.4752 34.5 40.0335 34.4583 40.6002 34.375C41.1835 34.275 41.7835 34.125 42.4002 33.925C43.0169 33.7083 43.5169 33.3917 43.9002 32.975C44.3002 32.5417 44.5002 32.025 44.5002 31.425C44.5002 31.125 44.4585 30.8917 44.3752 30.725C44.1419 30.175 43.5002 29.7833 42.4502 29.55C41.4169 29.3167 40.4252 29.2 39.4752 29.2H39.3002C39.1169 30.8333 38.9835 32.6 38.9002 34.5ZM55.2885 32.675H58.9385C59.3218 32.675 59.6218 32.8667 59.8385 33.25C60.0551 33.6333 60.1635 34.0667 60.1635 34.55C60.1635 35.05 60.0551 35.5417 59.8385 36.025C59.6218 36.5083 59.3135 36.75 58.9135 36.75H55.1385C55.1885 37.6 55.3135 38.4083 55.5135 39.175C55.8135 39.275 56.1968 39.325 56.6635 39.325C57.2135 39.325 57.9885 39.225 58.9885 39.025C59.9885 38.8083 60.6385 38.6833 60.9385 38.65H61.1385C61.5885 38.65 61.9468 38.9167 62.2135 39.45C62.4801 39.9667 62.6135 40.5167 62.6135 41.1C62.6135 41.6167 62.4801 42.0167 62.2135 42.3C61.9301 42.6 61.1135 42.85 59.7635 43.05C58.4301 43.2667 57.3801 43.375 56.6135 43.375C55.0635 43.375 53.7635 43 52.7135 42.25C52.1635 41.85 51.7635 40.9417 51.5135 39.525C51.2801 38.1083 51.1635 36.825 51.1635 35.675C51.1635 33.3417 51.4885 30.4833 52.1385 27.1C52.2885 26.45 52.6218 25.975 53.1385 25.675C53.4885 25.4417 54.6468 25.275 56.6135 25.175C57.6301 25.1417 58.8718 25.125 60.3385 25.125C60.6551 25.125 60.8885 25.1333 61.0385 25.15C61.2718 25.1833 61.4801 25.2417 61.6635 25.325C62.1301 25.5917 62.3635 26.1417 62.3635 26.975C62.3635 27.4083 62.2801 27.8583 62.1135 28.325C61.9635 28.7917 61.7301 29.0833 61.4135 29.2C61.2968 29.25 60.7218 29.275 59.6885 29.275C58.6885 29.2417 58.0801 29.225 57.8635 29.225C57.1635 29.225 56.4718 29.25 55.7885 29.3C55.5051 31.1833 55.3385 32.3083 55.2885 32.675ZM68.2766 37.775C68.3432 38.3583 68.6432 38.775 69.1766 39.025C69.7099 39.2583 70.3099 39.375 70.9766 39.375C71.4099 39.375 71.8849 39.325 72.4016 39.225C72.9182 39.1083 73.4099 38.9 73.8766 38.6C74.3432 38.2833 74.5766 37.9083 74.5766 37.475C74.5766 37.125 74.1599 36.7833 73.3266 36.45C73.0432 36.35 72.5349 36.1917 71.8016 35.975C71.0849 35.7417 70.5266 35.55 70.1266 35.4C69.4766 35.1667 68.9016 34.925 68.4016 34.675C67.9182 34.4083 67.4266 34.075 66.9266 33.675C66.4266 33.2583 66.0349 32.75 65.7516 32.15C65.4849 31.55 65.3516 30.875 65.3516 30.125C65.3516 29.0917 65.6849 28.1917 66.3516 27.425C67.0182 26.6417 67.8182 26.075 68.7516 25.725C69.6849 25.375 70.6599 25.2 71.6766 25.2C72.8932 25.2 74.0932 25.4167 75.2766 25.85C76.4766 26.2833 77.3932 27.0167 78.0266 28.05C78.3099 28.5167 78.4516 28.9833 78.4516 29.45C78.4516 30.15 78.2266 30.7083 77.7766 31.125C77.3266 31.5417 76.8599 31.75 76.3766 31.75C75.7766 31.75 75.3182 31.45 75.0016 30.85C74.8182 30.5 74.7099 30.2917 74.6766 30.225C74.5432 30.0083 74.4099 29.8583 74.2766 29.775C73.7599 29.4417 72.9349 29.275 71.8016 29.275C71.4516 29.275 71.0349 29.325 70.5516 29.425C70.0682 29.525 69.7266 29.6583 69.5266 29.825C69.3766 29.9417 69.3016 30.0417 69.3016 30.125C69.3016 30.2417 69.3599 30.3833 69.4766 30.55C69.9932 31.0667 70.9682 31.5167 72.4016 31.9C73.7349 32.3167 74.6016 32.6083 75.0016 32.775C77.3516 33.825 78.5266 35.4 78.5266 37.5C78.5266 38.75 78.1432 39.8333 77.3766 40.75C76.6266 41.6667 75.7016 42.3333 74.6016 42.75C73.5182 43.15 72.3599 43.35 71.1266 43.35C70.3766 43.35 69.6349 43.25 68.9016 43.05C68.1849 42.8667 67.5099 42.5917 66.8766 42.225C66.2599 41.8583 65.7599 41.3667 65.3766 40.75C64.9932 40.1167 64.8016 39.4083 64.8016 38.625C64.8016 38.075 65.0432 37.6083 65.5266 37.225C66.0099 36.825 66.5349 36.625 67.1016 36.625C67.2516 36.625 67.4016 36.65 67.5516 36.7C67.7682 36.7333 67.9266 36.825 68.0266 36.975C68.1099 37.0417 68.1849 37.175 68.2516 37.375C68.2516 37.3917 68.2516 37.425 68.2516 37.475C68.2682 37.5083 68.2766 37.5417 68.2766 37.575V37.775ZM86.3107 26.6V26.9C85.9774 28.75 85.8107 30.5583 85.8107 32.325C85.8107 32.875 85.8191 33.3667 85.8357 33.8C85.8691 34.2167 85.9191 34.725 85.9857 35.325C86.0524 35.925 86.1607 36.4417 86.3107 36.875C86.4607 37.3083 86.6524 37.725 86.8857 38.125C87.1357 38.525 87.4524 38.8333 87.8357 39.05C88.2191 39.2667 88.6691 39.375 89.1857 39.375C90.0691 39.375 90.8274 39.1333 91.4607 38.65C92.0941 38.15 92.5691 37.4917 92.8857 36.675C93.2024 35.8583 93.4274 35.0333 93.5607 34.2C93.6941 33.3667 93.7607 32.4917 93.7607 31.575C93.7607 30.725 93.6191 29.2333 93.3357 27.1C93.3357 27.0667 93.3274 27.0333 93.3107 27C93.3107 26.9667 93.3107 26.9333 93.3107 26.9C93.3107 26.4167 93.6191 26.0083 94.2357 25.675C94.8691 25.3417 95.4857 25.175 96.0857 25.175C96.6024 25.175 97.0107 25.35 97.3107 25.7C97.8107 26.2333 98.0607 27.9083 98.0607 30.725C98.0607 33.275 97.8691 35.225 97.4857 36.575C96.9191 38.6083 95.9357 40.2667 94.5357 41.55C93.1524 42.8333 91.4441 43.475 89.4107 43.475C88.0107 43.475 86.7691 43.1917 85.6857 42.625C84.6191 42.0417 83.7774 41.2667 83.1607 40.3C82.5607 39.3167 82.1107 38.25 81.8107 37.1C81.5107 35.9333 81.3607 34.6917 81.3607 33.375C81.3607 32.5917 81.4441 31.225 81.6107 29.275C81.7941 27.3083 81.9774 26.1917 82.1607 25.925C82.4941 25.4417 83.1524 25.2 84.1357 25.2C84.7191 25.2 85.2274 25.325 85.6607 25.575C86.0941 25.8083 86.3107 26.15 86.3107 26.6ZM105.415 32.95C105.298 34.55 105.24 35.9083 105.24 37.025C105.24 38.1583 105.273 39.1667 105.34 40.05C105.34 40.1 105.348 40.2167 105.365 40.4C105.398 40.5833 105.423 40.7333 105.44 40.85C105.49 41.1833 105.515 41.4667 105.515 41.7C105.515 42.15 105.231 42.4833 104.665 42.7C104.115 42.9 103.573 43 103.04 43C102.756 43 102.506 42.9583 102.29 42.875C101.906 42.7583 101.673 42.5 101.59 42.1C101.556 41.85 101.523 41.4417 101.49 40.875C101.34 39.1917 101.265 37.5167 101.265 35.85C101.265 35.1 101.273 34.5333 101.29 34.15C101.373 30.8833 101.623 28.475 102.04 26.925C102.19 26.3417 102.531 25.9167 103.065 25.65C103.615 25.3833 104.131 25.25 104.615 25.25C105.398 25.25 105.906 25.4583 106.14 25.875C106.19 25.975 106.256 26.125 106.34 26.325C106.44 26.525 106.506 26.6583 106.54 26.725C106.856 27.4083 107.181 28.0583 107.515 28.675C107.681 29.0083 108.098 29.8167 108.765 31.1C109.448 32.3833 109.965 33.375 110.315 34.075C111.265 32.0417 112.281 30.0833 113.365 28.2C113.931 27.1833 114.348 26.4583 114.615 26.025C114.815 25.7083 115.156 25.5 115.64 25.4C115.956 25.3167 116.298 25.275 116.665 25.275C117.948 25.275 118.698 25.5583 118.915 26.125C119.581 27.775 119.915 30.65 119.915 34.75C119.915 35.5333 119.89 36.7083 119.84 38.275C119.806 39.8417 119.79 41.0167 119.79 41.8C119.79 42 119.756 42.1583 119.69 42.275C119.506 42.5417 119.206 42.7417 118.79 42.875C118.473 42.9417 118.173 42.975 117.89 42.975C117.49 42.975 117.123 42.925 116.79 42.825C116.556 42.7417 116.373 42.6417 116.24 42.525C116.023 42.3583 115.89 42.1417 115.84 41.875C115.84 41.8417 115.781 40.7583 115.665 38.625C115.581 36.2083 115.448 34.225 115.265 32.675C114.681 33.9083 114.065 35.3583 113.415 37.025C113.348 37.2083 113.206 37.6083 112.99 38.225C112.79 38.8417 112.64 39.275 112.54 39.525C112.256 40.1417 111.548 40.45 110.415 40.45C109.331 40.45 108.631 40.1583 108.315 39.575C108.298 39.5417 108.04 38.95 107.54 37.8C106.49 35.3667 105.781 33.75 105.415 32.95ZM127.237 32.675H130.887C131.27 32.675 131.57 32.8667 131.787 33.25C132.003 33.6333 132.112 34.0667 132.112 34.55C132.112 35.05 132.003 35.5417 131.787 36.025C131.57 36.5083 131.262 36.75 130.862 36.75H127.087C127.137 37.6 127.262 38.4083 127.462 39.175C127.762 39.275 128.145 39.325 128.612 39.325C129.162 39.325 129.937 39.225 130.937 39.025C131.937 38.8083 132.587 38.6833 132.887 38.65H133.087C133.537 38.65 133.895 38.9167 134.162 39.45C134.428 39.9667 134.562 40.5167 134.562 41.1C134.562 41.6167 134.428 42.0167 134.162 42.3C133.878 42.6 133.062 42.85 131.712 43.05C130.378 43.2667 129.328 43.375 128.562 43.375C127.012 43.375 125.712 43 124.662 42.25C124.112 41.85 123.712 40.9417 123.462 39.525C123.228 38.1083 123.112 36.825 123.112 35.675C123.112 33.3417 123.437 30.4833 124.087 27.1C124.237 26.45 124.57 25.975 125.087 25.675C125.437 25.4417 126.595 25.275 128.562 25.175C129.578 25.1417 130.82 25.125 132.287 25.125C132.603 25.125 132.837 25.1333 132.987 25.15C133.22 25.1833 133.428 25.2417 133.612 25.325C134.078 25.5917 134.312 26.1417 134.312 26.975C134.312 27.4083 134.228 27.8583 134.062 28.325C133.912 28.7917 133.678 29.0833 133.362 29.2C133.245 29.25 132.67 29.275 131.637 29.275C130.637 29.2417 130.028 29.225 129.812 29.225C129.112 29.225 128.42 29.25 127.737 29.3C127.453 31.1833 127.287 32.3083 127.237 32.675Z" fill="#8B0162"/>
</g>
<defs>
<filter id="filter0_dd_1_2271" x="0" y="3" width="168" height="70" filterUnits="userSpaceOnUse" color-interpolation-filters="sRGB">
<feFlood flood-opacity="0" result="BackgroundImageFix"/>
<feColorMatrix in="SourceAlpha" type="matrix" values="0 0 0 0 0 0 0 0 0 0 0 0 0 0 0 0 0 0 127 0" result="hardAlpha"/>
<feOffset dy="6"/>
<feComposite in2="hardAlpha" operator="out"/>
<feColorMatrix type="matrix" values="0 0 0 0 0 0 0 0 0 0 0 0 0 0 0 0 0 0 0.25 0"/>
<feBlend mode="normal" in2="BackgroundImageFix" result="effect1_dropShadow_1_2271"/>
<feColorMatrix in="SourceAlpha" type="matrix" values="0 0 0 0 0 0 0 0 0 0 0 0 0 0 0 0 0 0 127 0" result="hardAlpha"/>
<feOffset dy="2"/>
<feComposite in2="hardAlpha" operator="out"/>
<feColorMatrix type="matrix" values="0 0 0 0 0.901961 0 0 0 0 0.901961 0 0 0 0 0.901961 0 0 0 1 0"/>
<feBlend mode="normal" in2="effect1_dropShadow_1_2271" result="effect2_dropShadow_1_2271"/>
<feBlend mode="normal" in="SourceGraphic" in2="effect2_dropShadow_1_2271" result="shape"/>
</filter>
<filter id="filter1_di_1_2271" x="4" y="-2" width="160" height="66" filterUnits="userSpaceOnUse" color-interpolation-filters="sRGB">
<feFlood flood-opacity="0" result="BackgroundImageFix"/>
<feColorMatrix in="SourceAlpha" type="matrix" values="0 0 0 0 0 0 0 0 0 0 0 0 0 0 0 0 0 0 127 0" result="hardAlpha"/>
<feOffset dy="4"/>
<feComposite in2="hardAlpha" operator="out"/>
<feColorMatrix type="matrix" values="0 0 0 0 0.637255 0 0 0 0 0 0 0 0 0 0.764706 0 0 0 1 0"/>
<feBlend mode="normal" in2="BackgroundImageFix" result="effect1_dropShadow_1_2271"/>
<feBlend mode="normal" in="SourceGraphic" in2="effect1_dropShadow_1_2271" result="shape"/>
<feColorMatrix in="SourceAlpha" type="matrix" values="0 0 0 0 0 0 0 0 0 0 0 0 0 0 0 0 0 0 127 0" result="hardAlpha"/>
<feOffset dy="-2"/>
<feGaussianBlur stdDeviation="5.5"/>
<feComposite in2="hardAlpha" operator="arithmetic" k2="-1" k3="1"/>
<feColorMatrix type="matrix" values="0 0 0 0 0.824183 0 0 0 0 0.0235294 0 0 0 0 0.984314 0 0 0 1 0"/>
<feBlend mode="normal" in2="shape" result="effect2_innerShadow_1_2271"/>
</filter>
<filter id="filter2_i_1_2271" x="4" y="0" width="160" height="37.3589" filterUnits="userSpaceOnUse" color-interpolation-filters="sRGB">
<feFlood flood-opacity="0" result="BackgroundImageFix"/>
<feBlend mode="normal" in="SourceGraphic" in2="BackgroundImageFix" result="shape"/>
<feColorMatrix in="SourceAlpha" type="matrix" values="0 0 0 0 0 0 0 0 0 0 0 0 0 0 0 0 0 0 127 0" result="hardAlpha"/>
<feOffset dy="4"/>
<feGaussianBlur stdDeviation="2"/>
<feComposite in2="hardAlpha" operator="arithmetic" k2="-1" k3="1"/>
<feColorMatrix type="matrix" values="0 0 0 0 1 0 0 0 0 0.258333 0 0 0 0 0.839306 0 0 0 1 0"/>
<feBlend mode="normal" in2="shape" result="effect1_innerShadow_1_2271"/>
</filter>
<filter id="filter3_i_1_2271" x="34.7502" y="25.125" width="99.8115" height="18.35" filterUnits="userSpaceOnUse" color-interpolation-filters="sRGB">
<feFlood flood-opacity="0" result="BackgroundImageFix"/>
<feBlend mode="normal" in="SourceGraphic" in2="BackgroundImageFix" result="shape"/>
<feColorMatrix in="SourceAlpha" type="matrix" values="0 0 0 0 0 0 0 0 0 0 0 0 0 0 0 0 0 0 127 0" result="hardAlpha"/>
<feOffset/>
<feGaussianBlur stdDeviation="1"/>
<feComposite in2="hardAlpha" operator="arithmetic" k2="-1" k3="1"/>
<feColorMatrix type="matrix" values="0 0 0 0 0 0 0 0 0 0 0 0 0 0 0 0 0 0 0.25 0"/>
<feBlend mode="normal" in2="shape" result="effect1_innerShadow_1_2271"/>
</filter>
</defs>
</svg>
