<svg width="168" height="73" viewBox="0 0 168 73" fill="none" xmlns="http://www.w3.org/2000/svg">
<g filter="url(#filter0_dd_1_2641)">
<path fill-rule="evenodd" clip-rule="evenodd" d="M10.9192 4.97456C27.0797 2.34181 140.506 2.34181 156.363 4.97456C161.447 5.87524 164.709 8.92368 165.695 13.5656C168.806 28.1843 168.73 42.803 165.695 57.4909C164.785 62.1329 161.447 65.597 156.363 66.0127C140.506 67.3291 27.0797 67.3291 10.9192 66.0127C5.76003 65.597 2.11823 62.1329 1.51127 57.4909C-0.309626 42.803 -0.688979 28.1843 1.51127 13.5656C2.19411 8.92368 5.8359 5.80595 10.9192 4.97456Z" fill="white"/>
</g>
<path fill-rule="evenodd" clip-rule="evenodd" d="M13.4643 4.882C28.9514 2.37267 137.652 2.37267 152.848 4.882C157.72 5.74046 160.846 8.64601 161.791 13.0704C164.772 27.0038 164.7 40.9372 161.791 54.9367C160.919 59.361 157.72 62.6628 152.848 63.059C137.652 64.3137 28.9514 64.3137 13.4643 63.059C8.52002 62.6628 5.02997 59.361 4.4483 54.9367C2.70328 40.9372 2.33973 27.0038 4.4483 13.0704C5.10268 8.64601 8.59273 5.67442 13.4643 4.882Z" fill="#E6E6E6"/>
<g filter="url(#filter1_di_1_2641)">
<path d="M13.745 2.00503C28.1737 -0.62946 139.449 -0.706945 153.651 2.00503C158.108 2.85736 161.129 5.95676 161.96 10.5284C163.245 17.1921 163.924 23.8558 164 30.5195C163.924 37.1832 163.245 42.8079 161.96 49.4716C161.129 54.0432 158.108 57.1426 153.651 57.995C139.449 60.7069 28.1737 60.6295 13.745 57.995C9.21247 57.2201 5.96412 54.1207 5.35977 49.4716C4.5288 42.8079 4.07554 36.9507 4 30.3645C4.07554 23.7783 4.5288 17.1921 5.35977 10.5284C5.96412 5.87927 9.21247 2.77988 13.745 2.00503Z" fill="#98DE01"/>
</g>
<g filter="url(#filter2_i_1_2641)">
<path fill-rule="evenodd" clip-rule="evenodd" d="M153.651 2.00503C139.449 -0.706944 28.1737 -0.62946 13.745 2.00503C9.21246 2.77988 5.96412 5.87927 5.35977 10.5284C4.5288 17.1921 4.07554 23.7783 4 30.3645C16.8333 32.5893 50.7 35.7351 83.5 30.5195C116.3 25.3039 150.833 28.3463 164 30.5195C163.924 23.8558 163.245 17.1921 161.96 10.5284C161.129 5.95676 158.108 2.85736 153.651 2.00503Z" fill="#B6E84B"/>
</g>
<path fill-rule="evenodd" clip-rule="evenodd" d="M8.70394 9.09093C10.7375 5.1979 15.5868 2.61587 17.0801 3.3959C18.5472 4.16224 17.0557 8.97589 15.0221 12.8689C12.9885 16.7619 9.1392 21.344 7.67212 20.5776C6.17885 19.7976 6.67037 12.984 8.70394 9.09093Z" fill="white"/>
<path fill-rule="evenodd" clip-rule="evenodd" d="M158.647 50.8505C156.613 54.7435 151.764 57.3255 150.271 56.5455C148.804 55.7792 150.295 50.9655 152.329 47.0725C154.362 43.1795 158.212 38.5974 159.679 39.3638C161.172 40.1438 160.68 46.9575 158.647 50.8505Z" fill="white"/>
<g filter="url(#filter3_i_1_2641)">
<path d="M64.0287 31.675H67.6787C68.062 31.675 68.362 31.8667 68.5787 32.25C68.7954 32.6333 68.9037 33.0667 68.9037 33.55C68.9037 34.05 68.7954 34.5417 68.5787 35.025C68.362 35.5083 68.0537 35.75 67.6537 35.75H63.8787C63.9287 36.6 64.0537 37.4083 64.2537 38.175C64.5537 38.275 64.937 38.325 65.4037 38.325C65.9537 38.325 66.7287 38.225 67.7287 38.025C68.7287 37.8083 69.3787 37.6833 69.6787 37.65H69.8787C70.3287 37.65 70.687 37.9167 70.9537 38.45C71.2204 38.9667 71.3537 39.5167 71.3537 40.1C71.3537 40.6167 71.2204 41.0167 70.9537 41.3C70.6704 41.6 69.8537 41.85 68.5037 42.05C67.1704 42.2667 66.1204 42.375 65.3537 42.375C63.8037 42.375 62.5037 42 61.4537 41.25C60.9037 40.85 60.5037 39.9417 60.2537 38.525C60.0204 37.1083 59.9037 35.825 59.9037 34.675C59.9037 32.3417 60.2287 29.4833 60.8787 26.1C61.0287 25.45 61.362 24.975 61.8787 24.675C62.2287 24.4417 63.387 24.275 65.3537 24.175C66.3704 24.1417 67.612 24.125 69.0787 24.125C69.3954 24.125 69.6287 24.1333 69.7787 24.15C70.012 24.1833 70.2204 24.2417 70.4037 24.325C70.8704 24.5917 71.1037 25.1417 71.1037 25.975C71.1037 26.4083 71.0204 26.8583 70.8537 27.325C70.7037 27.7917 70.4704 28.0833 70.1537 28.2C70.037 28.25 69.462 28.275 68.4287 28.275C67.4287 28.2417 66.8204 28.225 66.6037 28.225C65.9037 28.225 65.212 28.25 64.5287 28.3C64.2454 30.1833 64.0787 31.3083 64.0287 31.675ZM80.5168 36.55C80.3168 36.8 79.7001 37.6333 78.6668 39.05C77.8501 40.1667 77.1501 41.025 76.5668 41.625C76.3001 41.8917 76.0251 42.025 75.7418 42.025C75.5085 42.025 75.2918 41.9833 75.0918 41.9C74.7085 41.7667 74.3335 41.5417 73.9668 41.225C73.5001 40.7583 73.2668 40.275 73.2668 39.775C73.2668 39.5583 73.3585 39.2917 73.5418 38.975C73.6918 38.7917 73.9501 38.4917 74.3168 38.075C74.6835 37.6583 74.9585 37.325 75.1418 37.075C75.4585 36.675 75.9335 36.0417 76.5668 35.175C77.2168 34.2917 77.7168 33.6333 78.0668 33.2C76.3501 30.7667 75.4001 29.425 75.2168 29.175C75.0001 28.8917 74.4668 28.25 73.6168 27.25C73.5335 27.1167 73.4835 27.025 73.4668 26.975C73.3835 26.8417 73.3418 26.675 73.3418 26.475C73.3418 25.875 73.6418 25.35 74.2418 24.9C74.8585 24.4333 75.3668 24.2 75.7668 24.2C76.0501 24.2 76.2751 24.2667 76.4418 24.4C76.8585 24.7 77.6085 25.6 78.6918 27.1C79.5418 28.3667 80.1918 29.3167 80.6418 29.95C82.5585 27.6833 84.2501 25.8667 85.7168 24.5C85.8835 24.3333 86.0585 24.25 86.2418 24.25C86.6585 24.25 87.1751 24.5167 87.7918 25.05C88.4085 25.5667 88.7168 26.125 88.7168 26.725C88.7168 27.025 88.6251 27.25 88.4418 27.4C88.2085 27.65 87.8751 27.9917 87.4418 28.425C87.0251 28.8417 86.7335 29.1333 86.5668 29.3C85.0668 30.9167 83.8918 32.2583 83.0418 33.325C84.7418 35.5917 86.2668 37.3 87.6168 38.45C87.6335 38.4667 87.6585 38.4833 87.6918 38.5L87.7418 38.55L87.8418 38.65L88.0418 38.975C88.1085 39.175 88.1418 39.35 88.1418 39.5C88.1418 40.0833 87.8585 40.6417 87.2918 41.175C86.7418 41.6917 86.2585 41.95 85.8418 41.95C85.6751 41.95 85.5085 41.8917 85.3418 41.775C85.2585 41.725 85.1085 41.6083 84.8918 41.425C84.6918 41.2417 84.5668 41.125 84.5168 41.075L83.7418 40.3C82.7418 39.3167 81.6668 38.0667 80.5168 36.55ZM96.0555 40.025C96.0555 40.0417 96.0638 40.0667 96.0805 40.1V40.125V40.175C96.0971 40.2083 96.1055 40.2417 96.1055 40.275C96.1055 40.8917 95.7888 41.3583 95.1555 41.675C94.5388 41.975 93.9138 42.125 93.2805 42.125C92.6305 42.125 92.1555 41.975 91.8555 41.675C91.6555 41.425 91.5555 41.1667 91.5555 40.9C91.5388 40.7667 91.5055 40.3083 91.4555 39.525C91.3388 37.6583 91.2805 36.0583 91.2805 34.725C91.2805 32.2083 91.3721 30.0833 91.5555 28.35C91.6555 27.0667 91.8055 26.0833 92.0055 25.4C92.2221 24.65 92.9305 24.275 94.1305 24.275C94.6471 24.275 95.1555 24.3583 95.6555 24.525C96.3055 24.7917 96.6305 25.1917 96.6305 25.725C96.6305 25.8417 96.6221 25.9333 96.6055 26C96.0221 28.9667 95.7305 32.0583 95.7305 35.275C95.7305 37.225 95.8388 38.8083 96.0555 40.025ZM102.161 28.3C101.844 28.3 101.361 28.3 100.711 28.3C100.078 28.2833 99.5943 28.275 99.2609 28.275C98.8776 28.275 98.5776 28.0667 98.3609 27.65C98.1443 27.2333 98.0359 26.7833 98.0359 26.3C98.0359 25.7667 98.1359 25.2833 98.3359 24.85C98.5359 24.4167 98.8443 24.2 99.2609 24.2C99.9776 24.2 101.053 24.2167 102.486 24.25C103.919 24.2667 105.003 24.275 105.736 24.275C106.086 24.275 106.611 24.2667 107.311 24.25C108.028 24.2167 108.569 24.2 108.936 24.2C109.369 24.2 109.686 24.4 109.886 24.8C110.103 25.2 110.211 25.675 110.211 26.225C110.211 27.125 109.969 27.75 109.486 28.1C109.336 28.1833 109.094 28.2417 108.761 28.275C108.178 28.325 107.286 28.35 106.086 28.35C105.969 34.85 105.911 39.0167 105.911 40.85C105.911 41.0333 105.853 41.225 105.736 41.425C105.486 41.775 104.911 41.95 104.011 41.95C103.644 41.95 103.294 41.9 102.961 41.8C102.694 41.7333 102.486 41.65 102.336 41.55C102.103 41.35 101.986 41.125 101.986 40.875C101.986 40.625 102.003 40.2667 102.036 39.8C102.086 39.3333 102.111 39.0167 102.111 38.85C102.161 37.4667 102.186 36.0833 102.186 34.7C102.186 34.2167 102.178 33.2333 102.161 31.75C102.144 30.2667 102.144 29.1167 102.161 28.3Z" fill="#5F8B01"/>
</g>
<defs>
<filter id="filter0_dd_1_2641" x="0" y="3" width="168" height="70" filterUnits="userSpaceOnUse" color-interpolation-filters="sRGB">
<feFlood flood-opacity="0" result="BackgroundImageFix"/>
<feColorMatrix in="SourceAlpha" type="matrix" values="0 0 0 0 0 0 0 0 0 0 0 0 0 0 0 0 0 0 127 0" result="hardAlpha"/>
<feOffset dy="6"/>
<feComposite in2="hardAlpha" operator="out"/>
<feColorMatrix type="matrix" values="0 0 0 0 0 0 0 0 0 0 0 0 0 0 0 0 0 0 0.25 0"/>
<feBlend mode="normal" in2="BackgroundImageFix" result="effect1_dropShadow_1_2641"/>
<feColorMatrix in="SourceAlpha" type="matrix" values="0 0 0 0 0 0 0 0 0 0 0 0 0 0 0 0 0 0 127 0" result="hardAlpha"/>
<feOffset dy="2"/>
<feComposite in2="hardAlpha" operator="out"/>
<feColorMatrix type="matrix" values="0 0 0 0 0.901961 0 0 0 0 0.901961 0 0 0 0 0.901961 0 0 0 1 0"/>
<feBlend mode="normal" in2="effect1_dropShadow_1_2641" result="effect2_dropShadow_1_2641"/>
<feBlend mode="normal" in="SourceGraphic" in2="effect2_dropShadow_1_2641" result="shape"/>
</filter>
<filter id="filter1_di_1_2641" x="4" y="-2" width="160" height="66" filterUnits="userSpaceOnUse" color-interpolation-filters="sRGB">
<feFlood flood-opacity="0" result="BackgroundImageFix"/>
<feColorMatrix in="SourceAlpha" type="matrix" values="0 0 0 0 0 0 0 0 0 0 0 0 0 0 0 0 0 0 127 0" result="hardAlpha"/>
<feOffset dy="4"/>
<feComposite in2="hardAlpha" operator="out"/>
<feColorMatrix type="matrix" values="0 0 0 0 0.427451 0 0 0 0 0.764706 0 0 0 0 0 0 0 0 1 0"/>
<feBlend mode="normal" in2="BackgroundImageFix" result="effect1_dropShadow_1_2641"/>
<feBlend mode="normal" in="SourceGraphic" in2="effect1_dropShadow_1_2641" result="shape"/>
<feColorMatrix in="SourceAlpha" type="matrix" values="0 0 0 0 0 0 0 0 0 0 0 0 0 0 0 0 0 0 127 0" result="hardAlpha"/>
<feOffset dy="-2"/>
<feGaussianBlur stdDeviation="5.5"/>
<feComposite in2="hardAlpha" operator="arithmetic" k2="-1" k3="1"/>
<feColorMatrix type="matrix" values="0 0 0 0 0.788235 0 0 0 0 0.984314 0 0 0 0 0.0235294 0 0 0 1 0"/>
<feBlend mode="normal" in2="shape" result="effect2_innerShadow_1_2641"/>
</filter>
<filter id="filter2_i_1_2641" x="4" y="0" width="160" height="37.3588" filterUnits="userSpaceOnUse" color-interpolation-filters="sRGB">
<feFlood flood-opacity="0" result="BackgroundImageFix"/>
<feBlend mode="normal" in="SourceGraphic" in2="BackgroundImageFix" result="shape"/>
<feColorMatrix in="SourceAlpha" type="matrix" values="0 0 0 0 0 0 0 0 0 0 0 0 0 0 0 0 0 0 127 0" result="hardAlpha"/>
<feOffset dy="4"/>
<feGaussianBlur stdDeviation="2"/>
<feComposite in2="hardAlpha" operator="arithmetic" k2="-1" k3="1"/>
<feColorMatrix type="matrix" values="0 0 0 0 0.788235 0 0 0 0 0.984314 0 0 0 0 0.0235294 0 0 0 1 0"/>
<feBlend mode="normal" in2="shape" result="effect1_innerShadow_1_2641"/>
</filter>
<filter id="filter3_i_1_2641" x="59.9037" y="24.125" width="50.3072" height="18.25" filterUnits="userSpaceOnUse" color-interpolation-filters="sRGB">
<feFlood flood-opacity="0" result="BackgroundImageFix"/>
<feBlend mode="normal" in="SourceGraphic" in2="BackgroundImageFix" result="shape"/>
<feColorMatrix in="SourceAlpha" type="matrix" values="0 0 0 0 0 0 0 0 0 0 0 0 0 0 0 0 0 0 127 0" result="hardAlpha"/>
<feOffset/>
<feGaussianBlur stdDeviation="1"/>
<feComposite in2="hardAlpha" operator="arithmetic" k2="-1" k3="1"/>
<feColorMatrix type="matrix" values="0 0 0 0 0 0 0 0 0 0 0 0 0 0 0 0 0 0 0.25 0"/>
<feBlend mode="normal" in2="shape" result="effect1_innerShadow_1_2641"/>
</filter>
</defs>
</svg>
