<svg width="168" height="73" viewBox="0 0 168 73" fill="none" xmlns="http://www.w3.org/2000/svg">
<g filter="url(#filter0_dd_1_2611)">
<path fill-rule="evenodd" clip-rule="evenodd" d="M10.9192 4.97456C27.0797 2.34181 140.506 2.34181 156.363 4.97456C161.447 5.87524 164.709 8.92368 165.695 13.5656C168.806 28.1843 168.73 42.803 165.695 57.4909C164.785 62.1329 161.447 65.597 156.363 66.0127C140.506 67.3291 27.0797 67.3291 10.9192 66.0127C5.76003 65.597 2.11823 62.1329 1.51127 57.4909C-0.309626 42.803 -0.688979 28.1843 1.51127 13.5656C2.19411 8.92368 5.8359 5.80595 10.9192 4.97456Z" fill="white"/>
</g>
<path fill-rule="evenodd" clip-rule="evenodd" d="M13.4643 4.882C28.9514 2.37267 137.652 2.37267 152.848 4.882C157.72 5.74046 160.846 8.64601 161.791 13.0704C164.772 27.0038 164.7 40.9372 161.791 54.9367C160.919 59.361 157.72 62.6628 152.848 63.059C137.652 64.3137 28.9514 64.3137 13.4643 63.059C8.52002 62.6628 5.02997 59.361 4.4483 54.9367C2.70328 40.9372 2.33973 27.0038 4.4483 13.0704C5.10268 8.64601 8.59273 5.67442 13.4643 4.882Z" fill="#E6E6E6"/>
<g filter="url(#filter1_di_1_2611)">
<path d="M13.745 2.00503C28.1737 -0.62946 139.449 -0.706945 153.651 2.00503C158.108 2.85736 161.129 5.95676 161.96 10.5284C163.245 17.1921 163.924 23.8558 164 30.5195C163.924 37.1832 163.245 42.8079 161.96 49.4716C161.129 54.0432 158.108 57.1426 153.651 57.995C139.449 60.7069 28.1737 60.6295 13.745 57.995C9.21247 57.2201 5.96412 54.1207 5.35977 49.4716C4.5288 42.8079 4.07554 36.9507 4 30.3645C4.07554 23.7783 4.5288 17.1921 5.35977 10.5284C5.96412 5.87927 9.21247 2.77988 13.745 2.00503Z" fill="#98DE01"/>
</g>
<g filter="url(#filter2_i_1_2611)">
<path fill-rule="evenodd" clip-rule="evenodd" d="M153.651 2.00503C139.449 -0.706944 28.1737 -0.62946 13.745 2.00503C9.21246 2.77988 5.96412 5.87927 5.35977 10.5284C4.5288 17.1921 4.07554 23.7783 4 30.3645C16.8333 32.5893 50.7 35.7351 83.5 30.5195C116.3 25.3039 150.833 28.3463 164 30.5195C163.924 23.8558 163.245 17.1921 161.96 10.5284C161.129 5.95676 158.108 2.85736 153.651 2.00503Z" fill="#B6E84B"/>
</g>
<path fill-rule="evenodd" clip-rule="evenodd" d="M8.70394 9.09093C10.7375 5.1979 15.5868 2.61587 17.0801 3.3959C18.5472 4.16224 17.0557 8.97589 15.0221 12.8689C12.9885 16.7619 9.1392 21.344 7.67212 20.5776C6.17885 19.7976 6.67037 12.984 8.70394 9.09093Z" fill="white"/>
<path fill-rule="evenodd" clip-rule="evenodd" d="M158.647 50.8505C156.613 54.7435 151.764 57.3255 150.271 56.5455C148.804 55.7792 150.295 50.9655 152.329 47.0725C154.362 43.1795 158.212 38.5974 159.679 39.3638C161.172 40.1438 160.68 46.9575 158.647 50.8505Z" fill="white"/>
<g filter="url(#filter3_i_1_2611)">
<path d="M35.8498 38.925C35.3165 38.8417 35.0248 38.525 34.9748 37.975C34.8081 36.475 34.7248 34.3833 34.7248 31.7C34.7248 28.4833 34.9498 25.3417 35.3998 22.275C35.4165 22.225 35.4248 22.1667 35.4248 22.1C35.5748 21.6333 36.2081 21.3333 37.3248 21.2C37.8248 21.15 38.4498 21.125 39.1998 21.125C39.7331 21.125 40.2831 21.1583 40.8498 21.225C41.4165 21.275 42.0665 21.375 42.7998 21.525C43.5498 21.6583 44.2415 21.8833 44.8748 22.2C45.5081 22.5 46.0998 22.875 46.6498 23.325C47.1998 23.7583 47.6331 24.3333 47.9498 25.05C48.2831 25.75 48.4498 26.5417 48.4498 27.425C48.4498 29.975 47.2165 31.9167 44.7498 33.25C45.0165 34 45.6998 34.8583 46.7998 35.825C46.9998 36.0583 47.0998 36.3333 47.0998 36.65C47.0998 37.2667 46.7665 37.8167 46.0998 38.3C45.4498 38.7833 44.8915 39.025 44.4248 39.025C44.1748 39.025 43.8915 38.9167 43.5748 38.7C42.1915 37.7 41.1498 36.2833 40.4498 34.45C39.7998 34.55 39.2831 34.6 38.8998 34.6C38.9498 35.5667 39.0331 36.425 39.1498 37.175C39.1498 37.1917 39.1498 37.225 39.1498 37.275C39.1665 37.3083 39.1748 37.3417 39.1748 37.375C39.1748 37.925 38.7915 38.3667 38.0248 38.7C37.4915 38.9 36.9748 39 36.4748 39C36.3081 39 36.0998 38.975 35.8498 38.925ZM38.8748 30.5H38.8998C39.4498 30.5 40.0081 30.4583 40.5748 30.375C41.1581 30.275 41.7581 30.125 42.3748 29.925C42.9915 29.7083 43.4915 29.3917 43.8748 28.975C44.2748 28.5417 44.4748 28.025 44.4748 27.425C44.4748 27.125 44.4331 26.8917 44.3498 26.725C44.1165 26.175 43.4748 25.7833 42.4248 25.55C41.3915 25.3167 40.3998 25.2 39.4498 25.2H39.2748C39.0915 26.8333 38.9581 28.6 38.8748 30.5ZM55.2631 28.675H58.9131C59.2964 28.675 59.5964 28.8667 59.8131 29.25C60.0298 29.6333 60.1381 30.0667 60.1381 30.55C60.1381 31.05 60.0298 31.5417 59.8131 32.025C59.5964 32.5083 59.2881 32.75 58.8881 32.75H55.1131C55.1631 33.6 55.2881 34.4083 55.4881 35.175C55.7881 35.275 56.1714 35.325 56.6381 35.325C57.1881 35.325 57.9631 35.225 58.9631 35.025C59.9631 34.8083 60.6131 34.6833 60.9131 34.65H61.1131C61.5631 34.65 61.9214 34.9167 62.1881 35.45C62.4548 35.9667 62.5881 36.5167 62.5881 37.1C62.5881 37.6167 62.4548 38.0167 62.1881 38.3C61.9048 38.6 61.0881 38.85 59.7381 39.05C58.4048 39.2667 57.3548 39.375 56.5881 39.375C55.0381 39.375 53.7381 39 52.6881 38.25C52.1381 37.85 51.7381 36.9417 51.4881 35.525C51.2548 34.1083 51.1381 32.825 51.1381 31.675C51.1381 29.3417 51.4631 26.4833 52.1131 23.1C52.2631 22.45 52.5964 21.975 53.1131 21.675C53.4631 21.4417 54.6214 21.275 56.5881 21.175C57.6048 21.1417 58.8464 21.125 60.3131 21.125C60.6298 21.125 60.8631 21.1333 61.0131 21.15C61.2464 21.1833 61.4548 21.2417 61.6381 21.325C62.1048 21.5917 62.3381 22.1417 62.3381 22.975C62.3381 23.4083 62.2548 23.8583 62.0881 24.325C61.9381 24.7917 61.7048 25.0833 61.3881 25.2C61.2714 25.25 60.6964 25.275 59.6631 25.275C58.6631 25.2417 58.0548 25.225 57.8381 25.225C57.1381 25.225 56.4464 25.25 55.7631 25.3C55.4798 27.1833 55.3131 28.3083 55.2631 28.675ZM68.2512 33.775C68.3178 34.3583 68.6178 34.775 69.1512 35.025C69.6845 35.2583 70.2845 35.375 70.9512 35.375C71.3845 35.375 71.8595 35.325 72.3762 35.225C72.8928 35.1083 73.3845 34.9 73.8512 34.6C74.3178 34.2833 74.5512 33.9083 74.5512 33.475C74.5512 33.125 74.1345 32.7833 73.3012 32.45C73.0178 32.35 72.5095 32.1917 71.7762 31.975C71.0595 31.7417 70.5012 31.55 70.1012 31.4C69.4512 31.1667 68.8762 30.925 68.3762 30.675C67.8928 30.4083 67.4012 30.075 66.9012 29.675C66.4012 29.2583 66.0095 28.75 65.7262 28.15C65.4595 27.55 65.3262 26.875 65.3262 26.125C65.3262 25.0917 65.6595 24.1917 66.3262 23.425C66.9928 22.6417 67.7928 22.075 68.7262 21.725C69.6595 21.375 70.6345 21.2 71.6512 21.2C72.8678 21.2 74.0678 21.4167 75.2512 21.85C76.4512 22.2833 77.3678 23.0167 78.0012 24.05C78.2845 24.5167 78.4262 24.9833 78.4262 25.45C78.4262 26.15 78.2012 26.7083 77.7512 27.125C77.3012 27.5417 76.8345 27.75 76.3512 27.75C75.7512 27.75 75.2928 27.45 74.9762 26.85C74.7928 26.5 74.6845 26.2917 74.6512 26.225C74.5178 26.0083 74.3845 25.8583 74.2512 25.775C73.7345 25.4417 72.9095 25.275 71.7762 25.275C71.4262 25.275 71.0095 25.325 70.5262 25.425C70.0428 25.525 69.7012 25.6583 69.5012 25.825C69.3512 25.9417 69.2762 26.0417 69.2762 26.125C69.2762 26.2417 69.3345 26.3833 69.4512 26.55C69.9678 27.0667 70.9428 27.5167 72.3762 27.9C73.7095 28.3167 74.5762 28.6083 74.9762 28.775C77.3262 29.825 78.5012 31.4 78.5012 33.5C78.5012 34.75 78.1178 35.8333 77.3512 36.75C76.6012 37.6667 75.6762 38.3333 74.5762 38.75C73.4928 39.15 72.3345 39.35 71.1012 39.35C70.3512 39.35 69.6095 39.25 68.8762 39.05C68.1595 38.8667 67.4845 38.5917 66.8512 38.225C66.2345 37.8583 65.7345 37.3667 65.3512 36.75C64.9678 36.1167 64.7762 35.4083 64.7762 34.625C64.7762 34.075 65.0178 33.6083 65.5012 33.225C65.9845 32.825 66.5095 32.625 67.0762 32.625C67.2262 32.625 67.3762 32.65 67.5262 32.7C67.7428 32.7333 67.9012 32.825 68.0012 32.975C68.0845 33.0417 68.1595 33.175 68.2262 33.375C68.2262 33.3917 68.2262 33.425 68.2262 33.475C68.2428 33.5083 68.2512 33.5417 68.2512 33.575V33.775ZM84.4354 25.3C84.1187 25.3 83.6354 25.3 82.9854 25.3C82.352 25.2833 81.8687 25.275 81.5354 25.275C81.152 25.275 80.852 25.0667 80.6354 24.65C80.4187 24.2333 80.3104 23.7833 80.3104 23.3C80.3104 22.7667 80.4104 22.2833 80.6104 21.85C80.8104 21.4167 81.1187 21.2 81.5354 21.2C82.252 21.2 83.327 21.2167 84.7604 21.25C86.1937 21.2667 87.277 21.275 88.0104 21.275C88.3604 21.275 88.8854 21.2667 89.5854 21.25C90.302 21.2167 90.8437 21.2 91.2104 21.2C91.6437 21.2 91.9604 21.4 92.1604 21.8C92.377 22.2 92.4854 22.675 92.4854 23.225C92.4854 24.125 92.2437 24.75 91.7604 25.1C91.6104 25.1833 91.3687 25.2417 91.0354 25.275C90.452 25.325 89.5604 25.35 88.3604 25.35C88.2437 31.85 88.1854 36.0167 88.1854 37.85C88.1854 38.0333 88.127 38.225 88.0104 38.425C87.7604 38.775 87.1854 38.95 86.2854 38.95C85.9187 38.95 85.5687 38.9 85.2354 38.8C84.9687 38.7333 84.7604 38.65 84.6104 38.55C84.377 38.35 84.2604 38.125 84.2604 37.875C84.2604 37.625 84.277 37.2667 84.3104 36.8C84.3604 36.3333 84.3854 36.0167 84.3854 35.85C84.4354 34.4667 84.4604 33.0833 84.4604 31.7C84.4604 31.2167 84.452 30.2333 84.4354 28.75C84.4187 27.2667 84.4187 26.1167 84.4354 25.3ZM102.563 35.8H96.9135C96.8635 36.0167 96.7885 36.4583 96.6885 37.125C96.6885 37.1583 96.6301 37.475 96.5135 38.075C96.4801 38.1583 96.4468 38.2667 96.4135 38.4C96.3968 38.4167 96.3885 38.4417 96.3885 38.475C96.3885 38.5083 96.3801 38.5333 96.3635 38.55L96.2885 38.7C96.1218 38.9 95.8385 39.0333 95.4385 39.1C95.2385 39.1167 94.9718 39.125 94.6385 39.125C94.3718 39.125 94.1051 39.1083 93.8385 39.075C93.5885 39.0583 93.2968 39.0167 92.9635 38.95C92.6301 38.8667 92.3551 38.7333 92.1385 38.55C91.9385 38.3667 91.8385 38.15 91.8385 37.9C91.8385 37.8333 91.8468 37.7583 91.8635 37.675C91.8801 37.625 91.9051 37.5333 91.9385 37.4C91.9385 37.35 91.9468 37.3 91.9635 37.25C91.9801 37.1833 91.9885 37.1333 91.9885 37.1L92.0135 37.025C92.9968 32.4917 94.8635 27.7833 97.6135 22.9C97.6635 22.7833 97.7551 22.6083 97.8885 22.375C98.2718 21.6417 98.9801 21.275 100.013 21.275C100.83 21.275 101.413 21.5083 101.763 21.975C102.647 23.175 103.563 25.0833 104.513 27.7C104.813 28.5167 105.297 29.9833 105.963 32.1C106.647 34.2167 107.213 35.8417 107.663 36.975C107.713 37.075 107.738 37.2 107.738 37.35C107.738 37.75 107.572 38.0667 107.238 38.3C107.072 38.45 106.772 38.6333 106.338 38.85C105.672 39.1 105.097 39.225 104.613 39.225C104.347 39.225 104.122 39.175 103.938 39.075C103.638 38.9083 103.33 38.35 103.013 37.4C102.913 36.9833 102.763 36.45 102.563 35.8ZM98.2635 31.725H101.363C101.13 31.1083 100.613 29.8333 99.8135 27.9C99.3968 28.85 98.8801 30.125 98.2635 31.725ZM110.777 38.925C110.243 38.8417 109.952 38.525 109.902 37.975C109.735 36.475 109.652 34.3833 109.652 31.7C109.652 28.4833 109.877 25.3417 110.327 22.275C110.343 22.225 110.352 22.1667 110.352 22.1C110.502 21.6333 111.135 21.3333 112.252 21.2C112.752 21.15 113.377 21.125 114.127 21.125C114.66 21.125 115.21 21.1583 115.777 21.225C116.343 21.275 116.993 21.375 117.727 21.525C118.477 21.6583 119.168 21.8833 119.802 22.2C120.435 22.5 121.027 22.875 121.577 23.325C122.127 23.7583 122.56 24.3333 122.877 25.05C123.21 25.75 123.377 26.5417 123.377 27.425C123.377 29.975 122.143 31.9167 119.677 33.25C119.943 34 120.627 34.8583 121.727 35.825C121.927 36.0583 122.027 36.3333 122.027 36.65C122.027 37.2667 121.693 37.8167 121.027 38.3C120.377 38.7833 119.818 39.025 119.352 39.025C119.102 39.025 118.818 38.9167 118.502 38.7C117.118 37.7 116.077 36.2833 115.377 34.45C114.727 34.55 114.21 34.6 113.827 34.6C113.877 35.5667 113.96 36.425 114.077 37.175C114.077 37.1917 114.077 37.225 114.077 37.275C114.093 37.3083 114.102 37.3417 114.102 37.375C114.102 37.925 113.718 38.3667 112.952 38.7C112.418 38.9 111.902 39 111.402 39C111.235 39 111.027 38.975 110.777 38.925ZM113.802 30.5H113.827C114.377 30.5 114.935 30.4583 115.502 30.375C116.085 30.275 116.685 30.125 117.302 29.925C117.918 29.7083 118.418 29.3917 118.802 28.975C119.202 28.5417 119.402 28.025 119.402 27.425C119.402 27.125 119.36 26.8917 119.277 26.725C119.043 26.175 118.402 25.7833 117.352 25.55C116.318 25.3167 115.327 25.2 114.377 25.2H114.202C114.018 26.8333 113.885 28.6 113.802 30.5ZM129.04 25.3C128.723 25.3 128.24 25.3 127.59 25.3C126.957 25.2833 126.473 25.275 126.14 25.275C125.757 25.275 125.457 25.0667 125.24 24.65C125.023 24.2333 124.915 23.7833 124.915 23.3C124.915 22.7667 125.015 22.2833 125.215 21.85C125.415 21.4167 125.723 21.2 126.14 21.2C126.857 21.2 127.932 21.2167 129.365 21.25C130.798 21.2667 131.882 21.275 132.615 21.275C132.965 21.275 133.49 21.2667 134.19 21.25C134.907 21.2167 135.448 21.2 135.815 21.2C136.248 21.2 136.565 21.4 136.765 21.8C136.982 22.2 137.09 22.675 137.09 23.225C137.09 24.125 136.848 24.75 136.365 25.1C136.215 25.1833 135.973 25.2417 135.64 25.275C135.057 25.325 134.165 25.35 132.965 25.35C132.848 31.85 132.79 36.0167 132.79 37.85C132.79 38.0333 132.732 38.225 132.615 38.425C132.365 38.775 131.79 38.95 130.89 38.95C130.523 38.95 130.173 38.9 129.84 38.8C129.573 38.7333 129.365 38.65 129.215 38.55C128.982 38.35 128.865 38.125 128.865 37.875C128.865 37.625 128.882 37.2667 128.915 36.8C128.965 36.3333 128.99 36.0167 128.99 35.85C129.04 34.4667 129.065 33.0833 129.065 31.7C129.065 31.2167 129.057 30.2333 129.04 28.75C129.023 27.2667 129.023 26.1167 129.04 25.3Z" fill="#5F8B01"/>
</g>
<defs>
<filter id="filter0_dd_1_2611" x="0" y="3" width="168" height="70" filterUnits="userSpaceOnUse" color-interpolation-filters="sRGB">
<feFlood flood-opacity="0" result="BackgroundImageFix"/>
<feColorMatrix in="SourceAlpha" type="matrix" values="0 0 0 0 0 0 0 0 0 0 0 0 0 0 0 0 0 0 127 0" result="hardAlpha"/>
<feOffset dy="6"/>
<feComposite in2="hardAlpha" operator="out"/>
<feColorMatrix type="matrix" values="0 0 0 0 0 0 0 0 0 0 0 0 0 0 0 0 0 0 0.25 0"/>
<feBlend mode="normal" in2="BackgroundImageFix" result="effect1_dropShadow_1_2611"/>
<feColorMatrix in="SourceAlpha" type="matrix" values="0 0 0 0 0 0 0 0 0 0 0 0 0 0 0 0 0 0 127 0" result="hardAlpha"/>
<feOffset dy="2"/>
<feComposite in2="hardAlpha" operator="out"/>
<feColorMatrix type="matrix" values="0 0 0 0 0.901961 0 0 0 0 0.901961 0 0 0 0 0.901961 0 0 0 1 0"/>
<feBlend mode="normal" in2="effect1_dropShadow_1_2611" result="effect2_dropShadow_1_2611"/>
<feBlend mode="normal" in="SourceGraphic" in2="effect2_dropShadow_1_2611" result="shape"/>
</filter>
<filter id="filter1_di_1_2611" x="4" y="-2" width="160" height="66" filterUnits="userSpaceOnUse" color-interpolation-filters="sRGB">
<feFlood flood-opacity="0" result="BackgroundImageFix"/>
<feColorMatrix in="SourceAlpha" type="matrix" values="0 0 0 0 0 0 0 0 0 0 0 0 0 0 0 0 0 0 127 0" result="hardAlpha"/>
<feOffset dy="4"/>
<feComposite in2="hardAlpha" operator="out"/>
<feColorMatrix type="matrix" values="0 0 0 0 0.427451 0 0 0 0 0.764706 0 0 0 0 0 0 0 0 1 0"/>
<feBlend mode="normal" in2="BackgroundImageFix" result="effect1_dropShadow_1_2611"/>
<feBlend mode="normal" in="SourceGraphic" in2="effect1_dropShadow_1_2611" result="shape"/>
<feColorMatrix in="SourceAlpha" type="matrix" values="0 0 0 0 0 0 0 0 0 0 0 0 0 0 0 0 0 0 127 0" result="hardAlpha"/>
<feOffset dy="-2"/>
<feGaussianBlur stdDeviation="5.5"/>
<feComposite in2="hardAlpha" operator="arithmetic" k2="-1" k3="1"/>
<feColorMatrix type="matrix" values="0 0 0 0 0.788235 0 0 0 0 0.984314 0 0 0 0 0.0235294 0 0 0 1 0"/>
<feBlend mode="normal" in2="shape" result="effect2_innerShadow_1_2611"/>
</filter>
<filter id="filter2_i_1_2611" x="4" y="0" width="160" height="37.3588" filterUnits="userSpaceOnUse" color-interpolation-filters="sRGB">
<feFlood flood-opacity="0" result="BackgroundImageFix"/>
<feBlend mode="normal" in="SourceGraphic" in2="BackgroundImageFix" result="shape"/>
<feColorMatrix in="SourceAlpha" type="matrix" values="0 0 0 0 0 0 0 0 0 0 0 0 0 0 0 0 0 0 127 0" result="hardAlpha"/>
<feOffset dy="4"/>
<feGaussianBlur stdDeviation="2"/>
<feComposite in2="hardAlpha" operator="arithmetic" k2="-1" k3="1"/>
<feColorMatrix type="matrix" values="0 0 0 0 0.788235 0 0 0 0 0.984314 0 0 0 0 0.0235294 0 0 0 1 0"/>
<feBlend mode="normal" in2="shape" result="effect1_innerShadow_1_2611"/>
</filter>
<filter id="filter3_i_1_2611" x="34.7248" y="21.125" width="102.365" height="18.25" filterUnits="userSpaceOnUse" color-interpolation-filters="sRGB">
<feFlood flood-opacity="0" result="BackgroundImageFix"/>
<feBlend mode="normal" in="SourceGraphic" in2="BackgroundImageFix" result="shape"/>
<feColorMatrix in="SourceAlpha" type="matrix" values="0 0 0 0 0 0 0 0 0 0 0 0 0 0 0 0 0 0 127 0" result="hardAlpha"/>
<feOffset/>
<feGaussianBlur stdDeviation="1"/>
<feComposite in2="hardAlpha" operator="arithmetic" k2="-1" k3="1"/>
<feColorMatrix type="matrix" values="0 0 0 0 0 0 0 0 0 0 0 0 0 0 0 0 0 0 0.25 0"/>
<feBlend mode="normal" in2="shape" result="effect1_innerShadow_1_2611"/>
</filter>
</defs>
</svg>
