<svg width="168" height="73" viewBox="0 0 168 73" fill="none" xmlns="http://www.w3.org/2000/svg">
<g filter="url(#filter0_dd_1_2581)">
<path fill-rule="evenodd" clip-rule="evenodd" d="M10.9192 4.97456C27.0797 2.34181 140.506 2.34181 156.363 4.97456C161.447 5.87524 164.709 8.92368 165.695 13.5656C168.806 28.1843 168.73 42.803 165.695 57.4909C164.785 62.1329 161.447 65.597 156.363 66.0127C140.506 67.3291 27.0797 67.3291 10.9192 66.0127C5.76003 65.597 2.11823 62.1329 1.51127 57.4909C-0.309626 42.803 -0.688979 28.1843 1.51127 13.5656C2.19411 8.92368 5.8359 5.80595 10.9192 4.97456Z" fill="white"/>
</g>
<path fill-rule="evenodd" clip-rule="evenodd" d="M13.4643 4.882C28.9514 2.37267 137.652 2.37267 152.848 4.882C157.72 5.74046 160.846 8.64601 161.791 13.0704C164.772 27.0038 164.7 40.9372 161.791 54.9367C160.919 59.361 157.72 62.6628 152.848 63.059C137.652 64.3137 28.9514 64.3137 13.4643 63.059C8.52002 62.6628 5.02997 59.361 4.4483 54.9367C2.70328 40.9372 2.33973 27.0038 4.4483 13.0704C5.10268 8.64601 8.59273 5.67442 13.4643 4.882Z" fill="#E6E6E6"/>
<g filter="url(#filter1_di_1_2581)">
<path d="M13.745 2.00503C28.1737 -0.62946 139.449 -0.706945 153.651 2.00503C158.108 2.85736 161.129 5.95676 161.96 10.5284C163.245 17.1921 163.924 23.8558 164 30.5195C163.924 37.1832 163.245 42.8079 161.96 49.4716C161.129 54.0432 158.108 57.1426 153.651 57.995C139.449 60.7069 28.1737 60.6295 13.745 57.995C9.21247 57.2201 5.96412 54.1207 5.35977 49.4716C4.5288 42.8079 4.07554 36.9507 4 30.3645C4.07554 23.7783 4.5288 17.1921 5.35977 10.5284C5.96412 5.87927 9.21247 2.77988 13.745 2.00503Z" fill="#B9B9B9"/>
</g>
<g filter="url(#filter2_i_1_2581)">
<path fill-rule="evenodd" clip-rule="evenodd" d="M153.651 2.00503C139.449 -0.706944 28.1737 -0.62946 13.745 2.00503C9.21246 2.77988 5.96412 5.87927 5.35977 10.5284C4.5288 17.1921 4.07554 23.7783 4 30.3645C16.8333 32.5893 50.7 35.7351 83.5 30.5195C116.3 25.3039 150.833 28.3463 164 30.5195C163.924 23.8558 163.245 17.1921 161.96 10.5284C161.129 5.95676 158.108 2.85736 153.651 2.00503Z" fill="#B1B1B1"/>
</g>
<path fill-rule="evenodd" clip-rule="evenodd" d="M8.70394 9.09093C10.7375 5.1979 15.5868 2.61587 17.0801 3.3959C18.5472 4.16224 17.0557 8.97589 15.0221 12.8689C12.9885 16.7619 9.1392 21.344 7.67212 20.5776C6.17885 19.7976 6.67037 12.984 8.70394 9.09093Z" fill="white"/>
<path fill-rule="evenodd" clip-rule="evenodd" d="M158.647 50.8505C156.613 54.7435 151.764 57.3255 150.271 56.5455C148.804 55.7792 150.295 50.9655 152.329 47.0725C154.362 43.1795 158.212 38.5974 159.679 39.3638C161.172 40.1438 160.68 46.9575 158.647 50.8505Z" fill="white"/>
<g filter="url(#filter3_i_1_2581)">
<path d="M55.894 41.925C55.4107 41.8417 55.1357 41.525 55.069 40.975C54.9024 39.475 54.819 37.3833 54.819 34.7C54.819 31.4833 55.044 28.3417 55.494 25.275C55.5107 25.225 55.519 25.1667 55.519 25.1C55.5524 25 55.594 24.925 55.644 24.875C55.8774 24.525 56.4524 24.3 57.369 24.2C57.819 24.15 58.4107 24.125 59.144 24.125C59.6774 24.125 60.2107 24.1583 60.744 24.225C61.294 24.275 61.919 24.375 62.619 24.525C63.3357 24.6583 63.994 24.8833 64.594 25.2C65.2107 25.5 65.7774 25.875 66.294 26.325C66.8274 26.7583 67.244 27.3333 67.544 28.05C67.8607 28.7667 68.019 29.575 68.019 30.475C68.019 31.1917 67.8857 31.925 67.619 32.675C67.3357 33.4417 66.919 34.125 66.369 34.725C65.819 35.3083 65.2274 35.775 64.594 36.125C63.9607 36.475 63.2607 36.7667 62.494 37C61.744 37.2333 61.044 37.3917 60.394 37.475C59.7607 37.5583 59.1274 37.6 58.494 37.6C58.544 38.5667 58.6274 39.425 58.744 40.175C58.744 40.1917 58.744 40.225 58.744 40.275C58.7607 40.3083 58.769 40.3417 58.769 40.375C58.769 40.875 58.5107 41.275 57.994 41.575C57.494 41.8583 56.969 42 56.419 42C56.2524 42 56.0774 41.975 55.894 41.925ZM58.469 33.5H58.494C59.044 33.5 59.6024 33.4583 60.169 33.375C60.7524 33.275 61.3524 33.125 61.969 32.925C62.5857 32.7083 63.0857 32.3917 63.469 31.975C63.869 31.5417 64.069 31.025 64.069 30.425C64.069 30.125 64.0274 29.8917 63.944 29.725C63.7107 29.175 63.069 28.7833 62.019 28.55C60.9857 28.3167 59.994 28.2 59.044 28.2H58.869C58.6857 29.8333 58.5524 31.6 58.469 33.5ZM75.0132 38.175C75.2965 38.275 75.6799 38.325 76.1632 38.325C76.7132 38.325 77.5049 38.225 78.5382 38.025C79.5715 37.8083 80.2049 37.6833 80.4382 37.65H80.6132C81.0632 37.65 81.4215 37.9083 81.6882 38.425C81.9715 38.925 82.1132 39.4583 82.1132 40.025C82.1132 40.6083 81.9799 41.0333 81.7132 41.3C81.3965 41.6667 80.4632 41.9333 78.9132 42.1C77.6965 42.3 76.7132 42.4 75.9632 42.4C74.3799 42.4 73.0215 42.175 71.8882 41.725C71.0049 41.3417 70.5632 39.75 70.5632 36.95C70.5632 35.2 70.6549 33.15 70.8382 30.8C71.0382 28.45 71.2882 26.575 71.5882 25.175C71.6549 24.925 71.7799 24.7417 71.9632 24.625C72.1132 24.4917 72.2965 24.4 72.5132 24.35C72.8132 24.25 73.1382 24.2 73.4882 24.2C74.4549 24.2 75.1132 24.375 75.4632 24.725C75.7299 24.8917 75.8632 25.1583 75.8632 25.525V25.625C75.8132 26.125 75.7132 26.9833 75.5632 28.2C75.4132 29.4167 75.2965 30.3833 75.2132 31.1C75.1465 31.8167 75.0715 32.6833 74.9882 33.7C74.9215 34.7167 74.8882 35.6167 74.8882 36.4C74.8882 36.9667 74.9299 37.5583 75.0132 38.175ZM93.9351 38.8H88.2851C88.2351 39.0167 88.1601 39.4583 88.0601 40.125C88.0601 40.1583 88.0017 40.475 87.8851 41.075C87.8517 41.1583 87.8184 41.2667 87.7851 41.4C87.7684 41.4167 87.7601 41.4417 87.7601 41.475C87.7601 41.5083 87.7517 41.5333 87.7351 41.55L87.6601 41.7C87.4934 41.9 87.2101 42.0333 86.8101 42.1C86.6101 42.1167 86.3434 42.125 86.0101 42.125C85.7434 42.125 85.4767 42.1083 85.2101 42.075C84.9601 42.0583 84.6684 42.0167 84.3351 41.95C84.0017 41.8667 83.7267 41.7333 83.5101 41.55C83.3101 41.3667 83.2101 41.15 83.2101 40.9C83.2101 40.8333 83.2184 40.7583 83.2351 40.675C83.2517 40.625 83.2767 40.5333 83.3101 40.4C83.3101 40.35 83.3184 40.3 83.3351 40.25C83.3517 40.1833 83.3601 40.1333 83.3601 40.1L83.3851 40.025C84.3684 35.4917 86.2351 30.7833 88.9851 25.9C89.0351 25.7833 89.1267 25.6083 89.2601 25.375C89.6434 24.6417 90.3517 24.275 91.3851 24.275C92.2017 24.275 92.7851 24.5083 93.1351 24.975C94.0184 26.175 94.9351 28.0833 95.8851 30.7C96.1851 31.5167 96.6684 32.9833 97.3351 35.1C98.0184 37.2167 98.5851 38.8417 99.0351 39.975C99.0851 40.075 99.1101 40.2 99.1101 40.35C99.1101 40.75 98.9434 41.0667 98.6101 41.3C98.4434 41.45 98.1434 41.6333 97.7101 41.85C97.0434 42.1 96.4684 42.225 95.9851 42.225C95.7184 42.225 95.4934 42.175 95.3101 42.075C95.0101 41.9083 94.7017 41.35 94.3851 40.4C94.2851 39.9833 94.1351 39.45 93.9351 38.8ZM89.6351 34.725H92.7351C92.5017 34.1083 91.9851 32.8333 91.1851 30.9C90.7684 31.85 90.2517 33.125 89.6351 34.725ZM103.513 35.3C102.863 34.9667 102.271 34.4667 101.738 33.8C101.205 33.1333 100.746 32.35 100.363 31.45C99.9963 30.5333 99.688 29.6833 99.438 28.9C99.2047 28.1167 98.9797 27.225 98.763 26.225C98.7463 26.1583 98.738 26.0583 98.738 25.925C98.738 25.3917 98.963 24.9917 99.413 24.725C99.8797 24.4417 100.396 24.3 100.963 24.3C101.863 24.3 102.421 24.675 102.638 25.425C103.238 27.5583 103.613 28.825 103.763 29.225C104.38 30.8583 104.955 31.675 105.488 31.675C106.171 31.675 106.988 30.7917 107.938 29.025C108.238 28.4417 108.613 27.6333 109.063 26.6C109.513 25.5667 109.763 25 109.813 24.9C110.03 24.4667 110.413 24.25 110.963 24.25C111.546 24.25 112.105 24.45 112.638 24.85C113.171 25.2333 113.438 25.7 113.438 26.25C113.438 26.3833 113.413 26.5167 113.363 26.65C112.53 28.7833 111.646 30.6167 110.713 32.15C109.796 33.6667 108.713 34.7 107.463 35.25C107.446 35.4833 107.438 35.825 107.438 36.275C107.438 36.9917 107.505 38.0667 107.638 39.5C107.721 40.25 107.763 40.7083 107.763 40.875C107.763 41.125 107.655 41.3583 107.438 41.575C107.305 41.6917 107.105 41.7833 106.838 41.85C106.521 41.95 106.18 42 105.813 42C104.596 42 103.921 41.6 103.788 40.8C103.538 39.2333 103.446 37.4 103.513 35.3Z" fill="#8F8F8F"/>
</g>
<defs>
<filter id="filter0_dd_1_2581" x="0" y="3" width="168" height="70" filterUnits="userSpaceOnUse" color-interpolation-filters="sRGB">
<feFlood flood-opacity="0" result="BackgroundImageFix"/>
<feColorMatrix in="SourceAlpha" type="matrix" values="0 0 0 0 0 0 0 0 0 0 0 0 0 0 0 0 0 0 127 0" result="hardAlpha"/>
<feOffset dy="6"/>
<feComposite in2="hardAlpha" operator="out"/>
<feColorMatrix type="matrix" values="0 0 0 0 0 0 0 0 0 0 0 0 0 0 0 0 0 0 0.25 0"/>
<feBlend mode="normal" in2="BackgroundImageFix" result="effect1_dropShadow_1_2581"/>
<feColorMatrix in="SourceAlpha" type="matrix" values="0 0 0 0 0 0 0 0 0 0 0 0 0 0 0 0 0 0 127 0" result="hardAlpha"/>
<feOffset dy="2"/>
<feComposite in2="hardAlpha" operator="out"/>
<feColorMatrix type="matrix" values="0 0 0 0 0.901961 0 0 0 0 0.901961 0 0 0 0 0.901961 0 0 0 1 0"/>
<feBlend mode="normal" in2="effect1_dropShadow_1_2581" result="effect2_dropShadow_1_2581"/>
<feBlend mode="normal" in="SourceGraphic" in2="effect2_dropShadow_1_2581" result="shape"/>
</filter>
<filter id="filter1_di_1_2581" x="4" y="-2" width="160" height="66" filterUnits="userSpaceOnUse" color-interpolation-filters="sRGB">
<feFlood flood-opacity="0" result="BackgroundImageFix"/>
<feColorMatrix in="SourceAlpha" type="matrix" values="0 0 0 0 0 0 0 0 0 0 0 0 0 0 0 0 0 0 127 0" result="hardAlpha"/>
<feOffset dy="4"/>
<feComposite in2="hardAlpha" operator="out"/>
<feColorMatrix type="matrix" values="0 0 0 0 0.466667 0 0 0 0 0.466667 0 0 0 0 0.466667 0 0 0 1 0"/>
<feBlend mode="normal" in2="BackgroundImageFix" result="effect1_dropShadow_1_2581"/>
<feBlend mode="normal" in="SourceGraphic" in2="effect1_dropShadow_1_2581" result="shape"/>
<feColorMatrix in="SourceAlpha" type="matrix" values="0 0 0 0 0 0 0 0 0 0 0 0 0 0 0 0 0 0 127 0" result="hardAlpha"/>
<feOffset dy="-2"/>
<feGaussianBlur stdDeviation="5.5"/>
<feComposite in2="hardAlpha" operator="arithmetic" k2="-1" k3="1"/>
<feColorMatrix type="matrix" values="0 0 0 0 0.495833 0 0 0 0 0.495833 0 0 0 0 0.495833 0 0 0 1 0"/>
<feBlend mode="normal" in2="shape" result="effect2_innerShadow_1_2581"/>
</filter>
<filter id="filter2_i_1_2581" x="4" y="0" width="160" height="37.3589" filterUnits="userSpaceOnUse" color-interpolation-filters="sRGB">
<feFlood flood-opacity="0" result="BackgroundImageFix"/>
<feBlend mode="normal" in="SourceGraphic" in2="BackgroundImageFix" result="shape"/>
<feColorMatrix in="SourceAlpha" type="matrix" values="0 0 0 0 0 0 0 0 0 0 0 0 0 0 0 0 0 0 127 0" result="hardAlpha"/>
<feOffset dy="4"/>
<feGaussianBlur stdDeviation="2"/>
<feComposite in2="hardAlpha" operator="arithmetic" k2="-1" k3="1"/>
<feColorMatrix type="matrix" values="0 0 0 0 0.795833 0 0 0 0 0.795833 0 0 0 0 0.795833 0 0 0 1 0"/>
<feBlend mode="normal" in2="shape" result="effect1_innerShadow_1_2581"/>
</filter>
<filter id="filter3_i_1_2581" x="54.819" y="24.125" width="58.619" height="18.275" filterUnits="userSpaceOnUse" color-interpolation-filters="sRGB">
<feFlood flood-opacity="0" result="BackgroundImageFix"/>
<feBlend mode="normal" in="SourceGraphic" in2="BackgroundImageFix" result="shape"/>
<feColorMatrix in="SourceAlpha" type="matrix" values="0 0 0 0 0 0 0 0 0 0 0 0 0 0 0 0 0 0 127 0" result="hardAlpha"/>
<feOffset/>
<feGaussianBlur stdDeviation="1"/>
<feComposite in2="hardAlpha" operator="arithmetic" k2="-1" k3="1"/>
<feColorMatrix type="matrix" values="0 0 0 0 0 0 0 0 0 0 0 0 0 0 0 0 0 0 0.25 0"/>
<feBlend mode="normal" in2="shape" result="effect1_innerShadow_1_2581"/>
</filter>
</defs>
</svg>
