<svg width="168" height="73" viewBox="0 0 168 73" fill="none" xmlns="http://www.w3.org/2000/svg">
<g filter="url(#filter0_dd_1_2601)">
<path fill-rule="evenodd" clip-rule="evenodd" d="M10.9192 4.97456C27.0797 2.34181 140.506 2.34181 156.363 4.97456C161.447 5.87524 164.709 8.92368 165.695 13.5656C168.806 28.1843 168.73 42.803 165.695 57.4909C164.785 62.1329 161.447 65.597 156.363 66.0127C140.506 67.3291 27.0797 67.3291 10.9192 66.0127C5.76003 65.597 2.11823 62.1329 1.51127 57.4909C-0.309626 42.803 -0.688979 28.1843 1.51127 13.5656C2.19411 8.92368 5.8359 5.80595 10.9192 4.97456Z" fill="white"/>
</g>
<path fill-rule="evenodd" clip-rule="evenodd" d="M13.4643 4.882C28.9514 2.37267 137.652 2.37267 152.848 4.882C157.72 5.74046 160.846 8.64601 161.791 13.0704C164.772 27.0038 164.7 40.9372 161.791 54.9367C160.919 59.361 157.72 62.6628 152.848 63.059C137.652 64.3137 28.9514 64.3137 13.4643 63.059C8.52002 62.6628 5.02997 59.361 4.4483 54.9367C2.70328 40.9372 2.33973 27.0038 4.4483 13.0704C5.10268 8.64601 8.59273 5.67442 13.4643 4.882Z" fill="#E6E6E6"/>
<g filter="url(#filter1_di_1_2601)">
<path d="M13.745 2.00503C28.1737 -0.62946 139.449 -0.706945 153.651 2.00503C158.108 2.85736 161.129 5.95676 161.96 10.5284C163.245 17.1921 163.924 23.8558 164 30.5195C163.924 37.1832 163.245 42.8079 161.96 49.4716C161.129 54.0432 158.108 57.1426 153.651 57.995C139.449 60.7069 28.1737 60.6295 13.745 57.995C9.21247 57.2201 5.96412 54.1207 5.35977 49.4716C4.5288 42.8079 4.07554 36.9507 4 30.3645C4.07554 23.7783 4.5288 17.1921 5.35977 10.5284C5.96412 5.87927 9.21247 2.77988 13.745 2.00503Z" fill="#98DE01"/>
</g>
<g filter="url(#filter2_i_1_2601)">
<path fill-rule="evenodd" clip-rule="evenodd" d="M153.651 2.00503C139.449 -0.706944 28.1737 -0.62946 13.745 2.00503C9.21246 2.77988 5.96412 5.87927 5.35977 10.5284C4.5288 17.1921 4.07554 23.7783 4 30.3645C16.8333 32.5893 50.7 35.7351 83.5 30.5195C116.3 25.3039 150.833 28.3463 164 30.5195C163.924 23.8558 163.245 17.1921 161.96 10.5284C161.129 5.95676 158.108 2.85736 153.651 2.00503Z" fill="#B6E84B"/>
</g>
<path fill-rule="evenodd" clip-rule="evenodd" d="M8.70394 9.09093C10.7375 5.1979 15.5868 2.61587 17.0801 3.3959C18.5472 4.16224 17.0557 8.97589 15.0221 12.8689C12.9885 16.7619 9.1392 21.344 7.67212 20.5776C6.17885 19.7976 6.67037 12.984 8.70394 9.09093Z" fill="white"/>
<path fill-rule="evenodd" clip-rule="evenodd" d="M158.647 50.8505C156.613 54.7435 151.764 57.3255 150.271 56.5455C148.804 55.7792 150.295 50.9655 152.329 47.0725C154.362 43.1795 158.212 38.5974 159.679 39.3638C161.172 40.1438 160.68 46.9575 158.647 50.8505Z" fill="white"/>
<g filter="url(#filter3_i_1_2601)">
<path d="M34.8752 41.925C34.3419 41.8417 34.0502 41.525 34.0002 40.975C33.8335 39.475 33.7502 37.3833 33.7502 34.7C33.7502 31.4833 33.9752 28.3417 34.4252 25.275C34.4419 25.225 34.4502 25.1667 34.4502 25.1C34.6002 24.6333 35.2335 24.3333 36.3502 24.2C36.8502 24.15 37.4752 24.125 38.2252 24.125C38.7585 24.125 39.3085 24.1583 39.8752 24.225C40.4419 24.275 41.0919 24.375 41.8252 24.525C42.5752 24.6583 43.2669 24.8833 43.9002 25.2C44.5335 25.5 45.1252 25.875 45.6752 26.325C46.2252 26.7583 46.6585 27.3333 46.9752 28.05C47.3085 28.75 47.4752 29.5417 47.4752 30.425C47.4752 32.975 46.2419 34.9167 43.7752 36.25C44.0419 37 44.7252 37.8583 45.8252 38.825C46.0252 39.0583 46.1252 39.3333 46.1252 39.65C46.1252 40.2667 45.7919 40.8167 45.1252 41.3C44.4752 41.7833 43.9169 42.025 43.4502 42.025C43.2002 42.025 42.9169 41.9167 42.6002 41.7C41.2169 40.7 40.1752 39.2833 39.4752 37.45C38.8252 37.55 38.3085 37.6 37.9252 37.6C37.9752 38.5667 38.0585 39.425 38.1752 40.175C38.1752 40.1917 38.1752 40.225 38.1752 40.275C38.1919 40.3083 38.2002 40.3417 38.2002 40.375C38.2002 40.925 37.8169 41.3667 37.0502 41.7C36.5169 41.9 36.0002 42 35.5002 42C35.3335 42 35.1252 41.975 34.8752 41.925ZM37.9002 33.5H37.9252C38.4752 33.5 39.0335 33.4583 39.6002 33.375C40.1835 33.275 40.7835 33.125 41.4002 32.925C42.0169 32.7083 42.5169 32.3917 42.9002 31.975C43.3002 31.5417 43.5002 31.025 43.5002 30.425C43.5002 30.125 43.4585 29.8917 43.3752 29.725C43.1419 29.175 42.5002 28.7833 41.4502 28.55C40.4169 28.3167 39.4252 28.2 38.4752 28.2H38.3002C38.1169 29.8333 37.9835 31.6 37.9002 33.5ZM54.2885 31.675H57.9385C58.3218 31.675 58.6218 31.8667 58.8385 32.25C59.0551 32.6333 59.1635 33.0667 59.1635 33.55C59.1635 34.05 59.0551 34.5417 58.8385 35.025C58.6218 35.5083 58.3135 35.75 57.9135 35.75H54.1385C54.1885 36.6 54.3135 37.4083 54.5135 38.175C54.8135 38.275 55.1968 38.325 55.6635 38.325C56.2135 38.325 56.9885 38.225 57.9885 38.025C58.9885 37.8083 59.6385 37.6833 59.9385 37.65H60.1385C60.5885 37.65 60.9468 37.9167 61.2135 38.45C61.4801 38.9667 61.6135 39.5167 61.6135 40.1C61.6135 40.6167 61.4801 41.0167 61.2135 41.3C60.9301 41.6 60.1135 41.85 58.7635 42.05C57.4301 42.2667 56.3801 42.375 55.6135 42.375C54.0635 42.375 52.7635 42 51.7135 41.25C51.1635 40.85 50.7635 39.9417 50.5135 38.525C50.2801 37.1083 50.1635 35.825 50.1635 34.675C50.1635 32.3417 50.4885 29.4833 51.1385 26.1C51.2885 25.45 51.6218 24.975 52.1385 24.675C52.4885 24.4417 53.6468 24.275 55.6135 24.175C56.6301 24.1417 57.8718 24.125 59.3385 24.125C59.6551 24.125 59.8885 24.1333 60.0385 24.15C60.2718 24.1833 60.4801 24.2417 60.6635 24.325C61.1301 24.5917 61.3635 25.1417 61.3635 25.975C61.3635 26.4083 61.2801 26.8583 61.1135 27.325C60.9635 27.7917 60.7301 28.0833 60.4135 28.2C60.2968 28.25 59.7218 28.275 58.6885 28.275C57.6885 28.2417 57.0801 28.225 56.8635 28.225C56.1635 28.225 55.4718 28.25 54.7885 28.3C54.5051 30.1833 54.3385 31.3083 54.2885 31.675ZM67.2766 36.775C67.3432 37.3583 67.6432 37.775 68.1766 38.025C68.7099 38.2583 69.3099 38.375 69.9766 38.375C70.4099 38.375 70.8849 38.325 71.4016 38.225C71.9182 38.1083 72.4099 37.9 72.8766 37.6C73.3432 37.2833 73.5766 36.9083 73.5766 36.475C73.5766 36.125 73.1599 35.7833 72.3266 35.45C72.0432 35.35 71.5349 35.1917 70.8016 34.975C70.0849 34.7417 69.5266 34.55 69.1266 34.4C68.4766 34.1667 67.9016 33.925 67.4016 33.675C66.9182 33.4083 66.4266 33.075 65.9266 32.675C65.4266 32.2583 65.0349 31.75 64.7516 31.15C64.4849 30.55 64.3516 29.875 64.3516 29.125C64.3516 28.0917 64.6849 27.1917 65.3516 26.425C66.0182 25.6417 66.8182 25.075 67.7516 24.725C68.6849 24.375 69.6599 24.2 70.6766 24.2C71.8932 24.2 73.0932 24.4167 74.2766 24.85C75.4766 25.2833 76.3932 26.0167 77.0266 27.05C77.3099 27.5167 77.4516 27.9833 77.4516 28.45C77.4516 29.15 77.2266 29.7083 76.7766 30.125C76.3266 30.5417 75.8599 30.75 75.3766 30.75C74.7766 30.75 74.3182 30.45 74.0016 29.85C73.8182 29.5 73.7099 29.2917 73.6766 29.225C73.5432 29.0083 73.4099 28.8583 73.2766 28.775C72.7599 28.4417 71.9349 28.275 70.8016 28.275C70.4516 28.275 70.0349 28.325 69.5516 28.425C69.0682 28.525 68.7266 28.6583 68.5266 28.825C68.3766 28.9417 68.3016 29.0417 68.3016 29.125C68.3016 29.2417 68.3599 29.3833 68.4766 29.55C68.9932 30.0667 69.9682 30.5167 71.4016 30.9C72.7349 31.3167 73.6016 31.6083 74.0016 31.775C76.3516 32.825 77.5266 34.4 77.5266 36.5C77.5266 37.75 77.1432 38.8333 76.3766 39.75C75.6266 40.6667 74.7016 41.3333 73.6016 41.75C72.5182 42.15 71.3599 42.35 70.1266 42.35C69.3766 42.35 68.6349 42.25 67.9016 42.05C67.1849 41.8667 66.5099 41.5917 65.8766 41.225C65.2599 40.8583 64.7599 40.3667 64.3766 39.75C63.9932 39.1167 63.8016 38.4083 63.8016 37.625C63.8016 37.075 64.0432 36.6083 64.5266 36.225C65.0099 35.825 65.5349 35.625 66.1016 35.625C66.2516 35.625 66.4016 35.65 66.5516 35.7C66.7682 35.7333 66.9266 35.825 67.0266 35.975C67.1099 36.0417 67.1849 36.175 67.2516 36.375C67.2516 36.3917 67.2516 36.425 67.2516 36.475C67.2682 36.5083 67.2766 36.5417 67.2766 36.575V36.775ZM85.3107 25.6V25.9C84.9774 27.75 84.8107 29.5583 84.8107 31.325C84.8107 31.875 84.8191 32.3667 84.8357 32.8C84.8691 33.2167 84.9191 33.725 84.9857 34.325C85.0524 34.925 85.1607 35.4417 85.3107 35.875C85.4607 36.3083 85.6524 36.725 85.8857 37.125C86.1357 37.525 86.4524 37.8333 86.8357 38.05C87.2191 38.2667 87.6691 38.375 88.1857 38.375C89.0691 38.375 89.8274 38.1333 90.4607 37.65C91.0941 37.15 91.5691 36.4917 91.8857 35.675C92.2024 34.8583 92.4274 34.0333 92.5607 33.2C92.6941 32.3667 92.7607 31.4917 92.7607 30.575C92.7607 29.725 92.6191 28.2333 92.3357 26.1C92.3357 26.0667 92.3274 26.0333 92.3107 26C92.3107 25.9667 92.3107 25.9333 92.3107 25.9C92.3107 25.4167 92.6191 25.0083 93.2357 24.675C93.8691 24.3417 94.4857 24.175 95.0857 24.175C95.6024 24.175 96.0107 24.35 96.3107 24.7C96.8107 25.2333 97.0607 26.9083 97.0607 29.725C97.0607 32.275 96.8691 34.225 96.4857 35.575C95.9191 37.6083 94.9357 39.2667 93.5357 40.55C92.1524 41.8333 90.4441 42.475 88.4107 42.475C87.0107 42.475 85.7691 42.1917 84.6857 41.625C83.6191 41.0417 82.7774 40.2667 82.1607 39.3C81.5607 38.3167 81.1107 37.25 80.8107 36.1C80.5107 34.9333 80.3607 33.6917 80.3607 32.375C80.3607 31.5917 80.4441 30.225 80.6107 28.275C80.7941 26.3083 80.9774 25.1917 81.1607 24.925C81.4941 24.4417 82.1524 24.2 83.1357 24.2C83.7191 24.2 84.2274 24.325 84.6607 24.575C85.0941 24.8083 85.3107 25.15 85.3107 25.6ZM104.415 31.95C104.298 33.55 104.24 34.9083 104.24 36.025C104.24 37.1583 104.273 38.1667 104.34 39.05C104.34 39.1 104.348 39.2167 104.365 39.4C104.398 39.5833 104.423 39.7333 104.44 39.85C104.49 40.1833 104.515 40.4667 104.515 40.7C104.515 41.15 104.231 41.4833 103.665 41.7C103.115 41.9 102.573 42 102.04 42C101.756 42 101.506 41.9583 101.29 41.875C100.906 41.7583 100.673 41.5 100.59 41.1C100.556 40.85 100.523 40.4417 100.49 39.875C100.34 38.1917 100.265 36.5167 100.265 34.85C100.265 34.1 100.273 33.5333 100.29 33.15C100.373 29.8833 100.623 27.475 101.04 25.925C101.19 25.3417 101.531 24.9167 102.065 24.65C102.615 24.3833 103.131 24.25 103.615 24.25C104.398 24.25 104.906 24.4583 105.14 24.875C105.19 24.975 105.256 25.125 105.34 25.325C105.44 25.525 105.506 25.6583 105.54 25.725C105.856 26.4083 106.181 27.0583 106.515 27.675C106.681 28.0083 107.098 28.8167 107.765 30.1C108.448 31.3833 108.965 32.375 109.315 33.075C110.265 31.0417 111.281 29.0833 112.365 27.2C112.931 26.1833 113.348 25.4583 113.615 25.025C113.815 24.7083 114.156 24.5 114.64 24.4C114.956 24.3167 115.298 24.275 115.665 24.275C116.948 24.275 117.698 24.5583 117.915 25.125C118.581 26.775 118.915 29.65 118.915 33.75C118.915 34.5333 118.89 35.7083 118.84 37.275C118.806 38.8417 118.79 40.0167 118.79 40.8C118.79 41 118.756 41.1583 118.69 41.275C118.506 41.5417 118.206 41.7417 117.79 41.875C117.473 41.9417 117.173 41.975 116.89 41.975C116.49 41.975 116.123 41.925 115.79 41.825C115.556 41.7417 115.373 41.6417 115.24 41.525C115.023 41.3583 114.89 41.1417 114.84 40.875C114.84 40.8417 114.781 39.7583 114.665 37.625C114.581 35.2083 114.448 33.225 114.265 31.675C113.681 32.9083 113.065 34.3583 112.415 36.025C112.348 36.2083 112.206 36.6083 111.99 37.225C111.79 37.8417 111.64 38.275 111.54 38.525C111.256 39.1417 110.548 39.45 109.415 39.45C108.331 39.45 107.631 39.1583 107.315 38.575C107.298 38.5417 107.04 37.95 106.54 36.8C105.49 34.3667 104.781 32.75 104.415 31.95ZM126.237 31.675H129.887C130.27 31.675 130.57 31.8667 130.787 32.25C131.003 32.6333 131.112 33.0667 131.112 33.55C131.112 34.05 131.003 34.5417 130.787 35.025C130.57 35.5083 130.262 35.75 129.862 35.75H126.087C126.137 36.6 126.262 37.4083 126.462 38.175C126.762 38.275 127.145 38.325 127.612 38.325C128.162 38.325 128.937 38.225 129.937 38.025C130.937 37.8083 131.587 37.6833 131.887 37.65H132.087C132.537 37.65 132.895 37.9167 133.162 38.45C133.428 38.9667 133.562 39.5167 133.562 40.1C133.562 40.6167 133.428 41.0167 133.162 41.3C132.878 41.6 132.062 41.85 130.712 42.05C129.378 42.2667 128.328 42.375 127.562 42.375C126.012 42.375 124.712 42 123.662 41.25C123.112 40.85 122.712 39.9417 122.462 38.525C122.228 37.1083 122.112 35.825 122.112 34.675C122.112 32.3417 122.437 29.4833 123.087 26.1C123.237 25.45 123.57 24.975 124.087 24.675C124.437 24.4417 125.595 24.275 127.562 24.175C128.578 24.1417 129.82 24.125 131.287 24.125C131.603 24.125 131.837 24.1333 131.987 24.15C132.22 24.1833 132.428 24.2417 132.612 24.325C133.078 24.5917 133.312 25.1417 133.312 25.975C133.312 26.4083 133.228 26.8583 133.062 27.325C132.912 27.7917 132.678 28.0833 132.362 28.2C132.245 28.25 131.67 28.275 130.637 28.275C129.637 28.2417 129.028 28.225 128.812 28.225C128.112 28.225 127.42 28.25 126.737 28.3C126.453 30.1833 126.287 31.3083 126.237 31.675Z" fill="#5F8B01"/>
</g>
<defs>
<filter id="filter0_dd_1_2601" x="0" y="3" width="168" height="70" filterUnits="userSpaceOnUse" color-interpolation-filters="sRGB">
<feFlood flood-opacity="0" result="BackgroundImageFix"/>
<feColorMatrix in="SourceAlpha" type="matrix" values="0 0 0 0 0 0 0 0 0 0 0 0 0 0 0 0 0 0 127 0" result="hardAlpha"/>
<feOffset dy="6"/>
<feComposite in2="hardAlpha" operator="out"/>
<feColorMatrix type="matrix" values="0 0 0 0 0 0 0 0 0 0 0 0 0 0 0 0 0 0 0.25 0"/>
<feBlend mode="normal" in2="BackgroundImageFix" result="effect1_dropShadow_1_2601"/>
<feColorMatrix in="SourceAlpha" type="matrix" values="0 0 0 0 0 0 0 0 0 0 0 0 0 0 0 0 0 0 127 0" result="hardAlpha"/>
<feOffset dy="2"/>
<feComposite in2="hardAlpha" operator="out"/>
<feColorMatrix type="matrix" values="0 0 0 0 0.901961 0 0 0 0 0.901961 0 0 0 0 0.901961 0 0 0 1 0"/>
<feBlend mode="normal" in2="effect1_dropShadow_1_2601" result="effect2_dropShadow_1_2601"/>
<feBlend mode="normal" in="SourceGraphic" in2="effect2_dropShadow_1_2601" result="shape"/>
</filter>
<filter id="filter1_di_1_2601" x="4" y="-2" width="160" height="66" filterUnits="userSpaceOnUse" color-interpolation-filters="sRGB">
<feFlood flood-opacity="0" result="BackgroundImageFix"/>
<feColorMatrix in="SourceAlpha" type="matrix" values="0 0 0 0 0 0 0 0 0 0 0 0 0 0 0 0 0 0 127 0" result="hardAlpha"/>
<feOffset dy="4"/>
<feComposite in2="hardAlpha" operator="out"/>
<feColorMatrix type="matrix" values="0 0 0 0 0.427451 0 0 0 0 0.764706 0 0 0 0 0 0 0 0 1 0"/>
<feBlend mode="normal" in2="BackgroundImageFix" result="effect1_dropShadow_1_2601"/>
<feBlend mode="normal" in="SourceGraphic" in2="effect1_dropShadow_1_2601" result="shape"/>
<feColorMatrix in="SourceAlpha" type="matrix" values="0 0 0 0 0 0 0 0 0 0 0 0 0 0 0 0 0 0 127 0" result="hardAlpha"/>
<feOffset dy="-2"/>
<feGaussianBlur stdDeviation="5.5"/>
<feComposite in2="hardAlpha" operator="arithmetic" k2="-1" k3="1"/>
<feColorMatrix type="matrix" values="0 0 0 0 0.788235 0 0 0 0 0.984314 0 0 0 0 0.0235294 0 0 0 1 0"/>
<feBlend mode="normal" in2="shape" result="effect2_innerShadow_1_2601"/>
</filter>
<filter id="filter2_i_1_2601" x="4" y="0" width="160" height="37.3588" filterUnits="userSpaceOnUse" color-interpolation-filters="sRGB">
<feFlood flood-opacity="0" result="BackgroundImageFix"/>
<feBlend mode="normal" in="SourceGraphic" in2="BackgroundImageFix" result="shape"/>
<feColorMatrix in="SourceAlpha" type="matrix" values="0 0 0 0 0 0 0 0 0 0 0 0 0 0 0 0 0 0 127 0" result="hardAlpha"/>
<feOffset dy="4"/>
<feGaussianBlur stdDeviation="2"/>
<feComposite in2="hardAlpha" operator="arithmetic" k2="-1" k3="1"/>
<feColorMatrix type="matrix" values="0 0 0 0 0.788235 0 0 0 0 0.984314 0 0 0 0 0.0235294 0 0 0 1 0"/>
<feBlend mode="normal" in2="shape" result="effect1_innerShadow_1_2601"/>
</filter>
<filter id="filter3_i_1_2601" x="33.7502" y="24.125" width="99.8115" height="18.35" filterUnits="userSpaceOnUse" color-interpolation-filters="sRGB">
<feFlood flood-opacity="0" result="BackgroundImageFix"/>
<feBlend mode="normal" in="SourceGraphic" in2="BackgroundImageFix" result="shape"/>
<feColorMatrix in="SourceAlpha" type="matrix" values="0 0 0 0 0 0 0 0 0 0 0 0 0 0 0 0 0 0 127 0" result="hardAlpha"/>
<feOffset/>
<feGaussianBlur stdDeviation="1"/>
<feComposite in2="hardAlpha" operator="arithmetic" k2="-1" k3="1"/>
<feColorMatrix type="matrix" values="0 0 0 0 0 0 0 0 0 0 0 0 0 0 0 0 0 0 0.25 0"/>
<feBlend mode="normal" in2="shape" result="effect1_innerShadow_1_2601"/>
</filter>
</defs>
</svg>
