<svg width="168" height="73" viewBox="0 0 168 73" fill="none" xmlns="http://www.w3.org/2000/svg">
<g filter="url(#filter0_dd_1_2280)">
<path fill-rule="evenodd" clip-rule="evenodd" d="M10.9192 4.97456C27.0797 2.34181 140.506 2.34181 156.363 4.97456C161.447 5.87524 164.709 8.92368 165.695 13.5656C168.806 28.1843 168.73 42.803 165.695 57.4909C164.785 62.1329 161.447 65.597 156.363 66.0127C140.506 67.3291 27.0797 67.3291 10.9192 66.0127C5.76003 65.597 2.11823 62.1329 1.51127 57.4909C-0.309626 42.803 -0.688979 28.1843 1.51127 13.5656C2.19411 8.92368 5.8359 5.80595 10.9192 4.97456Z" fill="white"/>
</g>
<path fill-rule="evenodd" clip-rule="evenodd" d="M13.4643 4.882C28.9514 2.37267 137.652 2.37267 152.848 4.882C157.72 5.74046 160.846 8.64601 161.791 13.0704C164.772 27.0038 164.7 40.9372 161.791 54.9367C160.919 59.361 157.72 62.6628 152.848 63.059C137.652 64.3137 28.9514 64.3137 13.4643 63.059C8.52002 62.6628 5.02997 59.361 4.4483 54.9367C2.70328 40.9372 2.33973 27.0038 4.4483 13.0704C5.10268 8.64601 8.59273 5.67442 13.4643 4.882Z" fill="#E6E6E6"/>
<g filter="url(#filter1_di_1_2280)">
<path d="M13.745 2.00503C28.1737 -0.62946 139.449 -0.706945 153.651 2.00503C158.108 2.85736 161.129 5.95676 161.96 10.5284C163.245 17.1921 163.924 23.8558 164 30.5195C163.924 37.1832 163.245 42.8079 161.96 49.4716C161.129 54.0432 158.108 57.1426 153.651 57.995C139.449 60.7069 28.1737 60.6295 13.745 57.995C9.21247 57.2201 5.96412 54.1207 5.35977 49.4716C4.5288 42.8079 4.07554 36.9507 4 30.3645C4.07554 23.7783 4.5288 17.1921 5.35977 10.5284C5.96412 5.87927 9.21247 2.77988 13.745 2.00503Z" fill="#DE01C1"/>
</g>
<g filter="url(#filter2_i_1_2280)">
<path fill-rule="evenodd" clip-rule="evenodd" d="M153.651 2.00503C139.449 -0.706944 28.1737 -0.62946 13.745 2.00503C9.21246 2.77988 5.96412 5.87927 5.35977 10.5284C4.5288 17.1921 4.07554 23.7783 4 30.3645C16.8333 32.5893 50.7 35.7351 83.5 30.5195C116.3 25.3039 150.833 28.3463 164 30.5195C163.924 23.8558 163.245 17.1921 161.96 10.5284C161.129 5.95676 158.108 2.85736 153.651 2.00503Z" fill="#E84BB4"/>
</g>
<path fill-rule="evenodd" clip-rule="evenodd" d="M8.70394 9.09093C10.7375 5.1979 15.5868 2.61587 17.0801 3.3959C18.5472 4.16224 17.0557 8.97589 15.0221 12.8689C12.9885 16.7619 9.1392 21.344 7.67212 20.5776C6.17885 19.7976 6.67037 12.984 8.70394 9.09093Z" fill="white"/>
<path fill-rule="evenodd" clip-rule="evenodd" d="M158.647 50.8505C156.613 54.7435 151.764 57.3255 150.271 56.5455C148.804 55.7792 150.295 50.9655 152.329 47.0725C154.362 43.1795 158.212 38.5974 159.679 39.3638C161.172 40.1438 160.68 46.9575 158.647 50.8505Z" fill="white"/>
<g filter="url(#filter3_i_1_2280)">
<path d="M33.8498 42.925C33.3165 42.8417 33.0248 42.525 32.9748 41.975C32.8081 40.475 32.7248 38.3833 32.7248 35.7C32.7248 32.4833 32.9498 29.3417 33.3998 26.275C33.4165 26.225 33.4248 26.1667 33.4248 26.1C33.5748 25.6333 34.2081 25.3333 35.3248 25.2C35.8248 25.15 36.4498 25.125 37.1998 25.125C37.7331 25.125 38.2831 25.1583 38.8498 25.225C39.4165 25.275 40.0665 25.375 40.7998 25.525C41.5498 25.6583 42.2415 25.8833 42.8748 26.2C43.5081 26.5 44.0998 26.875 44.6498 27.325C45.1998 27.7583 45.6331 28.3333 45.9498 29.05C46.2831 29.75 46.4498 30.5417 46.4498 31.425C46.4498 33.975 45.2165 35.9167 42.7498 37.25C43.0165 38 43.6998 38.8583 44.7998 39.825C44.9998 40.0583 45.0998 40.3333 45.0998 40.65C45.0998 41.2667 44.7665 41.8167 44.0998 42.3C43.4498 42.7833 42.8915 43.025 42.4248 43.025C42.1748 43.025 41.8915 42.9167 41.5748 42.7C40.1915 41.7 39.1498 40.2833 38.4498 38.45C37.7998 38.55 37.2831 38.6 36.8998 38.6C36.9498 39.5667 37.0331 40.425 37.1498 41.175C37.1498 41.1917 37.1498 41.225 37.1498 41.275C37.1665 41.3083 37.1748 41.3417 37.1748 41.375C37.1748 41.925 36.7915 42.3667 36.0248 42.7C35.4915 42.9 34.9748 43 34.4748 43C34.3081 43 34.0998 42.975 33.8498 42.925ZM36.8748 34.5H36.8998C37.4498 34.5 38.0081 34.4583 38.5748 34.375C39.1581 34.275 39.7581 34.125 40.3748 33.925C40.9915 33.7083 41.4915 33.3917 41.8748 32.975C42.2748 32.5417 42.4748 32.025 42.4748 31.425C42.4748 31.125 42.4331 30.8917 42.3498 30.725C42.1165 30.175 41.4748 29.7833 40.4248 29.55C39.3915 29.3167 38.3998 29.2 37.4498 29.2H37.2748C37.0915 30.8333 36.9581 32.6 36.8748 34.5ZM53.2631 32.675H56.9131C57.2964 32.675 57.5964 32.8667 57.8131 33.25C58.0298 33.6333 58.1381 34.0667 58.1381 34.55C58.1381 35.05 58.0298 35.5417 57.8131 36.025C57.5964 36.5083 57.2881 36.75 56.8881 36.75H53.1131C53.1631 37.6 53.2881 38.4083 53.4881 39.175C53.7881 39.275 54.1714 39.325 54.6381 39.325C55.1881 39.325 55.9631 39.225 56.9631 39.025C57.9631 38.8083 58.6131 38.6833 58.9131 38.65H59.1131C59.5631 38.65 59.9214 38.9167 60.1881 39.45C60.4548 39.9667 60.5881 40.5167 60.5881 41.1C60.5881 41.6167 60.4548 42.0167 60.1881 42.3C59.9048 42.6 59.0881 42.85 57.7381 43.05C56.4048 43.2667 55.3548 43.375 54.5881 43.375C53.0381 43.375 51.7381 43 50.6881 42.25C50.1381 41.85 49.7381 40.9417 49.4881 39.525C49.2548 38.1083 49.1381 36.825 49.1381 35.675C49.1381 33.3417 49.4631 30.4833 50.1131 27.1C50.2631 26.45 50.5964 25.975 51.1131 25.675C51.4631 25.4417 52.6214 25.275 54.5881 25.175C55.6048 25.1417 56.8464 25.125 58.3131 25.125C58.6298 25.125 58.8631 25.1333 59.0131 25.15C59.2464 25.1833 59.4548 25.2417 59.6381 25.325C60.1048 25.5917 60.3381 26.1417 60.3381 26.975C60.3381 27.4083 60.2548 27.8583 60.0881 28.325C59.9381 28.7917 59.7048 29.0833 59.3881 29.2C59.2714 29.25 58.6964 29.275 57.6631 29.275C56.6631 29.2417 56.0548 29.225 55.8381 29.225C55.1381 29.225 54.4464 29.25 53.7631 29.3C53.4798 31.1833 53.3131 32.3083 53.2631 32.675ZM66.2512 37.775C66.3178 38.3583 66.6178 38.775 67.1512 39.025C67.6845 39.2583 68.2845 39.375 68.9512 39.375C69.3845 39.375 69.8595 39.325 70.3762 39.225C70.8928 39.1083 71.3845 38.9 71.8512 38.6C72.3178 38.2833 72.5512 37.9083 72.5512 37.475C72.5512 37.125 72.1345 36.7833 71.3012 36.45C71.0178 36.35 70.5095 36.1917 69.7762 35.975C69.0595 35.7417 68.5012 35.55 68.1012 35.4C67.4512 35.1667 66.8762 34.925 66.3762 34.675C65.8928 34.4083 65.4012 34.075 64.9012 33.675C64.4012 33.2583 64.0095 32.75 63.7262 32.15C63.4595 31.55 63.3262 30.875 63.3262 30.125C63.3262 29.0917 63.6595 28.1917 64.3262 27.425C64.9928 26.6417 65.7928 26.075 66.7262 25.725C67.6595 25.375 68.6345 25.2 69.6512 25.2C70.8678 25.2 72.0678 25.4167 73.2512 25.85C74.4512 26.2833 75.3678 27.0167 76.0012 28.05C76.2845 28.5167 76.4262 28.9833 76.4262 29.45C76.4262 30.15 76.2012 30.7083 75.7512 31.125C75.3012 31.5417 74.8345 31.75 74.3512 31.75C73.7512 31.75 73.2928 31.45 72.9762 30.85C72.7928 30.5 72.6845 30.2917 72.6512 30.225C72.5178 30.0083 72.3845 29.8583 72.2512 29.775C71.7345 29.4417 70.9095 29.275 69.7762 29.275C69.4262 29.275 69.0095 29.325 68.5262 29.425C68.0428 29.525 67.7012 29.6583 67.5012 29.825C67.3512 29.9417 67.2762 30.0417 67.2762 30.125C67.2762 30.2417 67.3345 30.3833 67.4512 30.55C67.9678 31.0667 68.9428 31.5167 70.3762 31.9C71.7095 32.3167 72.5762 32.6083 72.9762 32.775C75.3262 33.825 76.5012 35.4 76.5012 37.5C76.5012 38.75 76.1178 39.8333 75.3512 40.75C74.6012 41.6667 73.6762 42.3333 72.5762 42.75C71.4928 43.15 70.3345 43.35 69.1012 43.35C68.3512 43.35 67.6095 43.25 66.8762 43.05C66.1595 42.8667 65.4845 42.5917 64.8512 42.225C64.2345 41.8583 63.7345 41.3667 63.3512 40.75C62.9678 40.1167 62.7762 39.4083 62.7762 38.625C62.7762 38.075 63.0178 37.6083 63.5012 37.225C63.9845 36.825 64.5095 36.625 65.0762 36.625C65.2262 36.625 65.3762 36.65 65.5262 36.7C65.7428 36.7333 65.9012 36.825 66.0012 36.975C66.0845 37.0417 66.1595 37.175 66.2262 37.375C66.2262 37.3917 66.2262 37.425 66.2262 37.475C66.2428 37.5083 66.2512 37.5417 66.2512 37.575V37.775ZM82.4354 29.3C82.1187 29.3 81.6354 29.3 80.9854 29.3C80.352 29.2833 79.8687 29.275 79.5354 29.275C79.152 29.275 78.852 29.0667 78.6354 28.65C78.4187 28.2333 78.3104 27.7833 78.3104 27.3C78.3104 26.7667 78.4104 26.2833 78.6104 25.85C78.8104 25.4167 79.1187 25.2 79.5354 25.2C80.252 25.2 81.327 25.2167 82.7604 25.25C84.1937 25.2667 85.277 25.275 86.0104 25.275C86.3604 25.275 86.8854 25.2667 87.5854 25.25C88.302 25.2167 88.8437 25.2 89.2104 25.2C89.6437 25.2 89.9604 25.4 90.1604 25.8C90.377 26.2 90.4854 26.675 90.4854 27.225C90.4854 28.125 90.2437 28.75 89.7604 29.1C89.6104 29.1833 89.3687 29.2417 89.0354 29.275C88.452 29.325 87.5604 29.35 86.3604 29.35C86.2437 35.85 86.1854 40.0167 86.1854 41.85C86.1854 42.0333 86.127 42.225 86.0104 42.425C85.7604 42.775 85.1854 42.95 84.2854 42.95C83.9187 42.95 83.5687 42.9 83.2354 42.8C82.9687 42.7333 82.7604 42.65 82.6104 42.55C82.377 42.35 82.2604 42.125 82.2604 41.875C82.2604 41.625 82.277 41.2667 82.3104 40.8C82.3604 40.3333 82.3854 40.0167 82.3854 39.85C82.4354 38.4667 82.4604 37.0833 82.4604 35.7C82.4604 35.2167 82.452 34.2333 82.4354 32.75C82.4187 31.2667 82.4187 30.1167 82.4354 29.3ZM100.563 39.8H94.9135C94.8635 40.0167 94.7885 40.4583 94.6885 41.125C94.6885 41.1583 94.6301 41.475 94.5135 42.075C94.4801 42.1583 94.4468 42.2667 94.4135 42.4C94.3968 42.4167 94.3885 42.4417 94.3885 42.475C94.3885 42.5083 94.3801 42.5333 94.3635 42.55L94.2885 42.7C94.1218 42.9 93.8385 43.0333 93.4385 43.1C93.2385 43.1167 92.9718 43.125 92.6385 43.125C92.3718 43.125 92.1051 43.1083 91.8385 43.075C91.5885 43.0583 91.2968 43.0167 90.9635 42.95C90.6301 42.8667 90.3551 42.7333 90.1385 42.55C89.9385 42.3667 89.8385 42.15 89.8385 41.9C89.8385 41.8333 89.8468 41.7583 89.8635 41.675C89.8801 41.625 89.9051 41.5333 89.9385 41.4C89.9385 41.35 89.9468 41.3 89.9635 41.25C89.9801 41.1833 89.9885 41.1333 89.9885 41.1L90.0135 41.025C90.9968 36.4917 92.8635 31.7833 95.6135 26.9C95.6635 26.7833 95.7551 26.6083 95.8885 26.375C96.2718 25.6417 96.9801 25.275 98.0135 25.275C98.8301 25.275 99.4135 25.5083 99.7635 25.975C100.647 27.175 101.563 29.0833 102.513 31.7C102.813 32.5167 103.297 33.9833 103.963 36.1C104.647 38.2167 105.213 39.8417 105.663 40.975C105.713 41.075 105.738 41.2 105.738 41.35C105.738 41.75 105.572 42.0667 105.238 42.3C105.072 42.45 104.772 42.6333 104.338 42.85C103.672 43.1 103.097 43.225 102.613 43.225C102.347 43.225 102.122 43.175 101.938 43.075C101.638 42.9083 101.33 42.35 101.013 41.4C100.913 40.9833 100.763 40.45 100.563 39.8ZM96.2635 35.725H99.3635C99.1301 35.1083 98.6135 33.8333 97.8135 31.9C97.3968 32.85 96.8801 34.125 96.2635 35.725ZM108.777 42.925C108.243 42.8417 107.952 42.525 107.902 41.975C107.735 40.475 107.652 38.3833 107.652 35.7C107.652 32.4833 107.877 29.3417 108.327 26.275C108.343 26.225 108.352 26.1667 108.352 26.1C108.502 25.6333 109.135 25.3333 110.252 25.2C110.752 25.15 111.377 25.125 112.127 25.125C112.66 25.125 113.21 25.1583 113.777 25.225C114.343 25.275 114.993 25.375 115.727 25.525C116.477 25.6583 117.168 25.8833 117.802 26.2C118.435 26.5 119.027 26.875 119.577 27.325C120.127 27.7583 120.56 28.3333 120.877 29.05C121.21 29.75 121.377 30.5417 121.377 31.425C121.377 33.975 120.143 35.9167 117.677 37.25C117.943 38 118.627 38.8583 119.727 39.825C119.927 40.0583 120.027 40.3333 120.027 40.65C120.027 41.2667 119.693 41.8167 119.027 42.3C118.377 42.7833 117.818 43.025 117.352 43.025C117.102 43.025 116.818 42.9167 116.502 42.7C115.118 41.7 114.077 40.2833 113.377 38.45C112.727 38.55 112.21 38.6 111.827 38.6C111.877 39.5667 111.96 40.425 112.077 41.175C112.077 41.1917 112.077 41.225 112.077 41.275C112.093 41.3083 112.102 41.3417 112.102 41.375C112.102 41.925 111.718 42.3667 110.952 42.7C110.418 42.9 109.902 43 109.402 43C109.235 43 109.027 42.975 108.777 42.925ZM111.802 34.5H111.827C112.377 34.5 112.935 34.4583 113.502 34.375C114.085 34.275 114.685 34.125 115.302 33.925C115.918 33.7083 116.418 33.3917 116.802 32.975C117.202 32.5417 117.402 32.025 117.402 31.425C117.402 31.125 117.36 30.8917 117.277 30.725C117.043 30.175 116.402 29.7833 115.352 29.55C114.318 29.3167 113.327 29.2 112.377 29.2H112.202C112.018 30.8333 111.885 32.6 111.802 34.5ZM127.04 29.3C126.723 29.3 126.24 29.3 125.59 29.3C124.957 29.2833 124.473 29.275 124.14 29.275C123.757 29.275 123.457 29.0667 123.24 28.65C123.023 28.2333 122.915 27.7833 122.915 27.3C122.915 26.7667 123.015 26.2833 123.215 25.85C123.415 25.4167 123.723 25.2 124.14 25.2C124.857 25.2 125.932 25.2167 127.365 25.25C128.798 25.2667 129.882 25.275 130.615 25.275C130.965 25.275 131.49 25.2667 132.19 25.25C132.907 25.2167 133.448 25.2 133.815 25.2C134.248 25.2 134.565 25.4 134.765 25.8C134.982 26.2 135.09 26.675 135.09 27.225C135.09 28.125 134.848 28.75 134.365 29.1C134.215 29.1833 133.973 29.2417 133.64 29.275C133.057 29.325 132.165 29.35 130.965 29.35C130.848 35.85 130.79 40.0167 130.79 41.85C130.79 42.0333 130.732 42.225 130.615 42.425C130.365 42.775 129.79 42.95 128.89 42.95C128.523 42.95 128.173 42.9 127.84 42.8C127.573 42.7333 127.365 42.65 127.215 42.55C126.982 42.35 126.865 42.125 126.865 41.875C126.865 41.625 126.882 41.2667 126.915 40.8C126.965 40.3333 126.99 40.0167 126.99 39.85C127.04 38.4667 127.065 37.0833 127.065 35.7C127.065 35.2167 127.057 34.2333 127.04 32.75C127.023 31.2667 127.023 30.1167 127.04 29.3Z" fill="#8B0162"/>
</g>
<defs>
<filter id="filter0_dd_1_2280" x="0" y="3" width="168" height="70" filterUnits="userSpaceOnUse" color-interpolation-filters="sRGB">
<feFlood flood-opacity="0" result="BackgroundImageFix"/>
<feColorMatrix in="SourceAlpha" type="matrix" values="0 0 0 0 0 0 0 0 0 0 0 0 0 0 0 0 0 0 127 0" result="hardAlpha"/>
<feOffset dy="6"/>
<feComposite in2="hardAlpha" operator="out"/>
<feColorMatrix type="matrix" values="0 0 0 0 0 0 0 0 0 0 0 0 0 0 0 0 0 0 0.25 0"/>
<feBlend mode="normal" in2="BackgroundImageFix" result="effect1_dropShadow_1_2280"/>
<feColorMatrix in="SourceAlpha" type="matrix" values="0 0 0 0 0 0 0 0 0 0 0 0 0 0 0 0 0 0 127 0" result="hardAlpha"/>
<feOffset dy="2"/>
<feComposite in2="hardAlpha" operator="out"/>
<feColorMatrix type="matrix" values="0 0 0 0 0.901961 0 0 0 0 0.901961 0 0 0 0 0.901961 0 0 0 1 0"/>
<feBlend mode="normal" in2="effect1_dropShadow_1_2280" result="effect2_dropShadow_1_2280"/>
<feBlend mode="normal" in="SourceGraphic" in2="effect2_dropShadow_1_2280" result="shape"/>
</filter>
<filter id="filter1_di_1_2280" x="4" y="-2" width="160" height="66" filterUnits="userSpaceOnUse" color-interpolation-filters="sRGB">
<feFlood flood-opacity="0" result="BackgroundImageFix"/>
<feColorMatrix in="SourceAlpha" type="matrix" values="0 0 0 0 0 0 0 0 0 0 0 0 0 0 0 0 0 0 127 0" result="hardAlpha"/>
<feOffset dy="4"/>
<feComposite in2="hardAlpha" operator="out"/>
<feColorMatrix type="matrix" values="0 0 0 0 0.637255 0 0 0 0 0 0 0 0 0 0.764706 0 0 0 1 0"/>
<feBlend mode="normal" in2="BackgroundImageFix" result="effect1_dropShadow_1_2280"/>
<feBlend mode="normal" in="SourceGraphic" in2="effect1_dropShadow_1_2280" result="shape"/>
<feColorMatrix in="SourceAlpha" type="matrix" values="0 0 0 0 0 0 0 0 0 0 0 0 0 0 0 0 0 0 127 0" result="hardAlpha"/>
<feOffset dy="-2"/>
<feGaussianBlur stdDeviation="5.5"/>
<feComposite in2="hardAlpha" operator="arithmetic" k2="-1" k3="1"/>
<feColorMatrix type="matrix" values="0 0 0 0 0.824183 0 0 0 0 0.0235294 0 0 0 0 0.984314 0 0 0 1 0"/>
<feBlend mode="normal" in2="shape" result="effect2_innerShadow_1_2280"/>
</filter>
<filter id="filter2_i_1_2280" x="4" y="0" width="160" height="37.3589" filterUnits="userSpaceOnUse" color-interpolation-filters="sRGB">
<feFlood flood-opacity="0" result="BackgroundImageFix"/>
<feBlend mode="normal" in="SourceGraphic" in2="BackgroundImageFix" result="shape"/>
<feColorMatrix in="SourceAlpha" type="matrix" values="0 0 0 0 0 0 0 0 0 0 0 0 0 0 0 0 0 0 127 0" result="hardAlpha"/>
<feOffset dy="4"/>
<feGaussianBlur stdDeviation="2"/>
<feComposite in2="hardAlpha" operator="arithmetic" k2="-1" k3="1"/>
<feColorMatrix type="matrix" values="0 0 0 0 1 0 0 0 0 0.258333 0 0 0 0 0.839306 0 0 0 1 0"/>
<feBlend mode="normal" in2="shape" result="effect1_innerShadow_1_2280"/>
</filter>
<filter id="filter3_i_1_2280" x="32.7248" y="25.125" width="102.365" height="18.25" filterUnits="userSpaceOnUse" color-interpolation-filters="sRGB">
<feFlood flood-opacity="0" result="BackgroundImageFix"/>
<feBlend mode="normal" in="SourceGraphic" in2="BackgroundImageFix" result="shape"/>
<feColorMatrix in="SourceAlpha" type="matrix" values="0 0 0 0 0 0 0 0 0 0 0 0 0 0 0 0 0 0 127 0" result="hardAlpha"/>
<feOffset/>
<feGaussianBlur stdDeviation="1"/>
<feComposite in2="hardAlpha" operator="arithmetic" k2="-1" k3="1"/>
<feColorMatrix type="matrix" values="0 0 0 0 0 0 0 0 0 0 0 0 0 0 0 0 0 0 0.25 0"/>
<feBlend mode="normal" in2="shape" result="effect1_innerShadow_1_2280"/>
</filter>
</defs>
</svg>
