<svg width="168" height="73" viewBox="0 0 168 73" fill="none" xmlns="http://www.w3.org/2000/svg">
<g filter="url(#filter0_dd_1_2631)">
<path fill-rule="evenodd" clip-rule="evenodd" d="M10.9192 4.97456C27.0797 2.34181 140.506 2.34181 156.363 4.97456C161.447 5.87524 164.709 8.92368 165.695 13.5656C168.806 28.1843 168.73 42.803 165.695 57.4909C164.785 62.1329 161.447 65.597 156.363 66.0127C140.506 67.3291 27.0797 67.3291 10.9192 66.0127C5.76003 65.597 2.11823 62.1329 1.51127 57.4909C-0.309626 42.803 -0.688979 28.1843 1.51127 13.5656C2.19411 8.92368 5.8359 5.80595 10.9192 4.97456Z" fill="white"/>
</g>
<path fill-rule="evenodd" clip-rule="evenodd" d="M13.4643 4.882C28.9514 2.37267 137.652 2.37267 152.848 4.882C157.72 5.74046 160.846 8.64601 161.791 13.0704C164.772 27.0038 164.7 40.9372 161.791 54.9367C160.919 59.361 157.72 62.6628 152.848 63.059C137.652 64.3137 28.9514 64.3137 13.4643 63.059C8.52002 62.6628 5.02997 59.361 4.4483 54.9367C2.70328 40.9372 2.33973 27.0038 4.4483 13.0704C5.10268 8.64601 8.59273 5.67442 13.4643 4.882Z" fill="#E6E6E6"/>
<g filter="url(#filter1_di_1_2631)">
<path d="M13.745 2.00503C28.1737 -0.62946 139.449 -0.706945 153.651 2.00503C158.108 2.85736 161.129 5.95676 161.96 10.5284C163.245 17.1921 163.924 23.8558 164 30.5195C163.924 37.1832 163.245 42.8079 161.96 49.4716C161.129 54.0432 158.108 57.1426 153.651 57.995C139.449 60.7069 28.1737 60.6295 13.745 57.995C9.21247 57.2201 5.96412 54.1207 5.35977 49.4716C4.5288 42.8079 4.07554 36.9507 4 30.3645C4.07554 23.7783 4.5288 17.1921 5.35977 10.5284C5.96412 5.87927 9.21247 2.77988 13.745 2.00503Z" fill="#98DE01"/>
</g>
<g filter="url(#filter2_i_1_2631)">
<path fill-rule="evenodd" clip-rule="evenodd" d="M153.651 2.00503C139.449 -0.706944 28.1737 -0.62946 13.745 2.00503C9.21246 2.77988 5.96412 5.87927 5.35977 10.5284C4.5288 17.1921 4.07554 23.7783 4 30.3645C16.8333 32.5893 50.7 35.7351 83.5 30.5195C116.3 25.3039 150.833 28.3463 164 30.5195C163.924 23.8558 163.245 17.1921 161.96 10.5284C161.129 5.95676 158.108 2.85736 153.651 2.00503Z" fill="#B6E84B"/>
</g>
<path fill-rule="evenodd" clip-rule="evenodd" d="M8.70394 9.09093C10.7375 5.1979 15.5868 2.61587 17.0801 3.3959C18.5472 4.16224 17.0557 8.97589 15.0221 12.8689C12.9885 16.7619 9.1392 21.344 7.67212 20.5776C6.17885 19.7976 6.67037 12.984 8.70394 9.09093Z" fill="white"/>
<path fill-rule="evenodd" clip-rule="evenodd" d="M158.647 50.8505C156.613 54.7435 151.764 57.3255 150.271 56.5455C148.804 55.7792 150.295 50.9655 152.329 47.0725C154.362 43.1795 158.212 38.5974 159.679 39.3638C161.172 40.1438 160.68 46.9575 158.647 50.8505Z" fill="white"/>
<g filter="url(#filter3_i_1_2631)">
<path d="M32.8493 33.775C32.916 34.3583 33.216 34.775 33.7493 35.025C34.2827 35.2583 34.8827 35.375 35.5493 35.375C35.9827 35.375 36.4577 35.325 36.9743 35.225C37.491 35.1083 37.9827 34.9 38.4493 34.6C38.916 34.2833 39.1493 33.9083 39.1493 33.475C39.1493 33.125 38.7327 32.7833 37.8993 32.45C37.616 32.35 37.1076 32.1917 36.3743 31.975C35.6577 31.7417 35.0993 31.55 34.6993 31.4C34.0493 31.1667 33.4743 30.925 32.9743 30.675C32.491 30.4083 31.9993 30.075 31.4993 29.675C30.9993 29.2583 30.6076 28.75 30.3243 28.15C30.0576 27.55 29.9243 26.875 29.9243 26.125C29.9243 25.0917 30.2576 24.1917 30.9243 23.425C31.591 22.6417 32.391 22.075 33.3243 21.725C34.2577 21.375 35.2327 21.2 36.2493 21.2C37.466 21.2 38.666 21.4167 39.8493 21.85C41.0493 22.2833 41.966 23.0167 42.5993 24.05C42.8827 24.5167 43.0243 24.9833 43.0243 25.45C43.0243 26.15 42.7993 26.7083 42.3493 27.125C41.8993 27.5417 41.4327 27.75 40.9493 27.75C40.3493 27.75 39.891 27.45 39.5743 26.85C39.391 26.5 39.2827 26.2917 39.2493 26.225C39.116 26.0083 38.9827 25.8583 38.8493 25.775C38.3327 25.4417 37.5077 25.275 36.3743 25.275C36.0243 25.275 35.6077 25.325 35.1243 25.425C34.641 25.525 34.2993 25.6583 34.0993 25.825C33.9493 25.9417 33.8743 26.0417 33.8743 26.125C33.8743 26.2417 33.9327 26.3833 34.0493 26.55C34.566 27.0667 35.541 27.5167 36.9743 27.9C38.3077 28.3167 39.1743 28.6083 39.5743 28.775C41.9243 29.825 43.0993 31.4 43.0993 33.5C43.0993 34.75 42.716 35.8333 41.9493 36.75C41.1993 37.6667 40.2743 38.3333 39.1743 38.75C38.091 39.15 36.9327 39.35 35.6993 39.35C34.9493 39.35 34.2077 39.25 33.4743 39.05C32.7577 38.8667 32.0827 38.5917 31.4493 38.225C30.8326 37.8583 30.3326 37.3667 29.9493 36.75C29.566 36.1167 29.3743 35.4083 29.3743 34.625C29.3743 34.075 29.616 33.6083 30.0993 33.225C30.5826 32.825 31.1076 32.625 31.6743 32.625C31.8243 32.625 31.9743 32.65 32.1243 32.7C32.341 32.7333 32.4993 32.825 32.5993 32.975C32.6826 33.0417 32.7576 33.175 32.8243 33.375C32.8243 33.3917 32.8243 33.425 32.8243 33.475C32.841 33.5083 32.8493 33.5417 32.8493 33.575V33.775ZM50.1835 28.675H53.8335C54.2168 28.675 54.5168 28.8667 54.7335 29.25C54.9502 29.6333 55.0585 30.0667 55.0585 30.55C55.0585 31.05 54.9502 31.5417 54.7335 32.025C54.5168 32.5083 54.2085 32.75 53.8085 32.75H50.0335C50.0835 33.6 50.2085 34.4083 50.4085 35.175C50.7085 35.275 51.0918 35.325 51.5585 35.325C52.1085 35.325 52.8835 35.225 53.8835 35.025C54.8835 34.8083 55.5335 34.6833 55.8335 34.65H56.0335C56.4835 34.65 56.8418 34.9167 57.1085 35.45C57.3752 35.9667 57.5085 36.5167 57.5085 37.1C57.5085 37.6167 57.3752 38.0167 57.1085 38.3C56.8252 38.6 56.0085 38.85 54.6585 39.05C53.3252 39.2667 52.2752 39.375 51.5085 39.375C49.9585 39.375 48.6585 39 47.6085 38.25C47.0585 37.85 46.6585 36.9417 46.4085 35.525C46.1752 34.1083 46.0585 32.825 46.0585 31.675C46.0585 29.3417 46.3835 26.4833 47.0335 23.1C47.1835 22.45 47.5168 21.975 48.0335 21.675C48.3835 21.4417 49.5418 21.275 51.5085 21.175C52.5252 21.1417 53.7668 21.125 55.2335 21.125C55.5502 21.125 55.7835 21.1333 55.9335 21.15C56.1668 21.1833 56.3752 21.2417 56.5585 21.325C57.0252 21.5917 57.2585 22.1417 57.2585 22.975C57.2585 23.4083 57.1752 23.8583 57.0085 24.325C56.8585 24.7917 56.6252 25.0833 56.3085 25.2C56.1918 25.25 55.6168 25.275 54.5835 25.275C53.5835 25.2417 52.9752 25.225 52.7585 25.225C52.0585 25.225 51.3668 25.25 50.6835 25.3C50.4002 27.1833 50.2335 28.3083 50.1835 28.675ZM63.0716 25.3C62.7549 25.3 62.2716 25.3 61.6216 25.3C60.9882 25.2833 60.5049 25.275 60.1716 25.275C59.7882 25.275 59.4882 25.0667 59.2716 24.65C59.0549 24.2333 58.9466 23.7833 58.9466 23.3C58.9466 22.7667 59.0466 22.2833 59.2466 21.85C59.4466 21.4167 59.7549 21.2 60.1716 21.2C60.8882 21.2 61.9632 21.2167 63.3966 21.25C64.8299 21.2667 65.9132 21.275 66.6466 21.275C66.9966 21.275 67.5216 21.2667 68.2216 21.25C68.9382 21.2167 69.4799 21.2 69.8466 21.2C70.2799 21.2 70.5966 21.4 70.7966 21.8C71.0132 22.2 71.1216 22.675 71.1216 23.225C71.1216 24.125 70.8799 24.75 70.3966 25.1C70.2466 25.1833 70.0049 25.2417 69.6716 25.275C69.0882 25.325 68.1966 25.35 66.9966 25.35C66.8799 31.85 66.8216 36.0167 66.8216 37.85C66.8216 38.0333 66.7632 38.225 66.6466 38.425C66.3966 38.775 65.8216 38.95 64.9216 38.95C64.5549 38.95 64.2049 38.9 63.8716 38.8C63.6049 38.7333 63.3966 38.65 63.2466 38.55C63.0132 38.35 62.8966 38.125 62.8966 37.875C62.8966 37.625 62.9132 37.2667 62.9466 36.8C62.9966 36.3333 63.0216 36.0167 63.0216 35.85C63.0716 34.4667 63.0966 33.0833 63.0966 31.7C63.0966 31.2167 63.0882 30.2333 63.0716 28.75C63.0549 27.2667 63.0549 26.1167 63.0716 25.3ZM76.1819 25.3C75.8653 25.3 75.3819 25.3 74.7319 25.3C74.0986 25.2833 73.6153 25.275 73.2819 25.275C72.8986 25.275 72.5986 25.0667 72.3819 24.65C72.1653 24.2333 72.0569 23.7833 72.0569 23.3C72.0569 22.7667 72.1569 22.2833 72.3569 21.85C72.5569 21.4167 72.8653 21.2 73.2819 21.2C73.9986 21.2 75.0736 21.2167 76.5069 21.25C77.9403 21.2667 79.0236 21.275 79.7569 21.275C80.1069 21.275 80.6319 21.2667 81.3319 21.25C82.0486 21.2167 82.5903 21.2 82.9569 21.2C83.3903 21.2 83.7069 21.4 83.9069 21.8C84.1236 22.2 84.2319 22.675 84.2319 23.225C84.2319 24.125 83.9903 24.75 83.5069 25.1C83.3569 25.1833 83.1153 25.2417 82.7819 25.275C82.1986 25.325 81.3069 25.35 80.1069 25.35C79.9903 31.85 79.9319 36.0167 79.9319 37.85C79.9319 38.0333 79.8736 38.225 79.7569 38.425C79.5069 38.775 78.9319 38.95 78.0319 38.95C77.6653 38.95 77.3153 38.9 76.9819 38.8C76.7153 38.7333 76.5069 38.65 76.3569 38.55C76.1236 38.35 76.0069 38.125 76.0069 37.875C76.0069 37.625 76.0236 37.2667 76.0569 36.8C76.1069 36.3333 76.1319 36.0167 76.1319 35.85C76.1819 34.4667 76.2069 33.0833 76.2069 31.7C76.2069 31.2167 76.1986 30.2333 76.1819 28.75C76.1653 27.2667 76.1653 26.1167 76.1819 25.3ZM91.2923 37.025C91.2923 37.0417 91.3006 37.0667 91.3173 37.1V37.125V37.175C91.334 37.2083 91.3423 37.2417 91.3423 37.275C91.3423 37.8917 91.0256 38.3583 90.3923 38.675C89.7756 38.975 89.1506 39.125 88.5173 39.125C87.8673 39.125 87.3923 38.975 87.0923 38.675C86.8923 38.425 86.7923 38.1667 86.7923 37.9C86.7756 37.7667 86.7423 37.3083 86.6923 36.525C86.5756 34.6583 86.5173 33.0583 86.5173 31.725C86.5173 29.2083 86.609 27.0833 86.7923 25.35C86.8923 24.0667 87.0423 23.0833 87.2423 22.4C87.459 21.65 88.1673 21.275 89.3673 21.275C89.884 21.275 90.3923 21.3583 90.8923 21.525C91.5423 21.7917 91.8673 22.1917 91.8673 22.725C91.8673 22.8417 91.859 22.9333 91.8423 23C91.259 25.9667 90.9673 29.0583 90.9673 32.275C90.9673 34.225 91.0756 35.8083 91.2923 37.025ZM98.5274 28.875C98.4441 30.275 98.4024 33.2083 98.4024 37.675C98.4024 38.125 98.1774 38.45 97.7274 38.65C97.2774 38.85 96.7941 38.95 96.2774 38.95C95.1608 38.95 94.5524 38.5417 94.4524 37.725C94.4024 37.1417 94.3774 35.95 94.3774 34.15C94.3774 31.45 94.5191 28.6833 94.8024 25.85C94.8024 25.8167 94.8441 25.425 94.9274 24.675C95.0274 23.9083 95.1108 23.3417 95.1774 22.975C95.3108 22.3417 95.7441 21.8917 96.4774 21.625C97.0108 21.3917 97.5358 21.275 98.0524 21.275C98.5358 21.275 98.9274 21.4083 99.2274 21.675C99.3274 21.775 99.4024 21.8667 99.4524 21.95C100.286 23.4 100.844 24.4083 101.127 24.975C101.361 25.3917 101.694 26.0167 102.127 26.85C102.577 27.6667 102.911 28.2833 103.127 28.7C103.644 29.6667 104.219 30.65 104.852 31.65C104.869 31.3333 104.927 30.025 105.027 27.725C105.127 25.425 105.177 23.6667 105.177 22.45C105.177 22.1333 105.302 21.8833 105.552 21.7C105.986 21.3333 106.586 21.15 107.352 21.15C108.169 21.15 108.711 21.3583 108.977 21.775C109.077 21.9583 109.127 22.1833 109.127 22.45V26.275C109.127 29.7417 109.094 32.3417 109.027 34.075C108.994 35.975 108.944 37.225 108.877 37.825C108.861 37.9917 108.777 38.1917 108.627 38.425C108.261 38.875 107.552 39.1 106.502 39.1C105.652 39.1 105.052 38.9167 104.702 38.55C104.469 38.3167 104.044 37.775 103.427 36.925C103.161 36.5417 102.777 35.95 102.277 35.15C102.111 34.9 100.861 32.8083 98.5274 28.875ZM124.286 33C123.952 32.9333 123.577 32.9 123.161 32.9C122.494 32.9 121.744 33 120.911 33.2C120.811 33.2333 120.736 33.25 120.686 33.25C120.219 33.25 119.894 32.9333 119.711 32.3C119.561 31.9 119.486 31.4167 119.486 30.85C119.486 29.7667 119.719 29.1583 120.186 29.025C120.886 28.775 122.152 28.65 123.986 28.65C125.986 28.65 127.286 29.1167 127.886 30.05C128.119 30.4667 128.236 30.975 128.236 31.575C128.236 32.9917 128.019 34.225 127.586 35.275C127.169 36.325 126.594 37.1417 125.861 37.725C125.127 38.3083 124.336 38.7333 123.486 39C122.652 39.2833 121.752 39.425 120.786 39.425C118.302 39.425 116.244 38.5333 114.611 36.75C112.977 34.95 112.161 32.8 112.161 30.3C112.161 27.8167 113.002 25.675 114.686 23.875C116.369 22.0583 118.444 21.15 120.911 21.15C122.327 21.15 123.652 21.4833 124.886 22.15C126.136 22.8167 127.086 23.9 127.736 25.4C127.752 25.4333 127.769 25.4833 127.786 25.55C127.819 25.6167 127.836 25.6583 127.836 25.675C127.869 25.8417 127.886 25.975 127.886 26.075C127.886 26.6583 127.519 27.1167 126.786 27.45C126.269 27.7167 125.802 27.85 125.386 27.85C124.969 27.85 124.586 27.6167 124.236 27.15C124.186 27.0833 124.111 26.9917 124.011 26.875C123.927 26.7417 123.861 26.6417 123.811 26.575C123.527 26.1083 123.127 25.7417 122.611 25.475C122.111 25.1917 121.586 25.05 121.036 25.05C119.852 25.05 118.819 25.5917 117.936 26.675C117.052 27.7417 116.611 29.0583 116.611 30.625C116.611 32.0917 117.002 33.2 117.786 33.95C118.586 34.7 119.577 35.075 120.761 35.075C121.494 35.075 122.236 34.8917 122.986 34.525C123.752 34.1417 124.186 33.6333 124.286 33ZM134.217 33.775C134.283 34.3583 134.583 34.775 135.117 35.025C135.65 35.2583 136.25 35.375 136.917 35.375C137.35 35.375 137.825 35.325 138.342 35.225C138.858 35.1083 139.35 34.9 139.817 34.6C140.283 34.2833 140.517 33.9083 140.517 33.475C140.517 33.125 140.1 32.7833 139.267 32.45C138.983 32.35 138.475 32.1917 137.742 31.975C137.025 31.7417 136.467 31.55 136.067 31.4C135.417 31.1667 134.842 30.925 134.342 30.675C133.858 30.4083 133.367 30.075 132.867 29.675C132.367 29.2583 131.975 28.75 131.692 28.15C131.425 27.55 131.292 26.875 131.292 26.125C131.292 25.0917 131.625 24.1917 132.292 23.425C132.958 22.6417 133.758 22.075 134.692 21.725C135.625 21.375 136.6 21.2 137.617 21.2C138.833 21.2 140.033 21.4167 141.217 21.85C142.417 22.2833 143.333 23.0167 143.967 24.05C144.25 24.5167 144.392 24.9833 144.392 25.45C144.392 26.15 144.167 26.7083 143.717 27.125C143.267 27.5417 142.8 27.75 142.317 27.75C141.717 27.75 141.258 27.45 140.942 26.85C140.758 26.5 140.65 26.2917 140.617 26.225C140.483 26.0083 140.35 25.8583 140.217 25.775C139.7 25.4417 138.875 25.275 137.742 25.275C137.392 25.275 136.975 25.325 136.492 25.425C136.008 25.525 135.667 25.6583 135.467 25.825C135.317 25.9417 135.242 26.0417 135.242 26.125C135.242 26.2417 135.3 26.3833 135.417 26.55C135.933 27.0667 136.908 27.5167 138.342 27.9C139.675 28.3167 140.542 28.6083 140.942 28.775C143.292 29.825 144.467 31.4 144.467 33.5C144.467 34.75 144.083 35.8333 143.317 36.75C142.567 37.6667 141.642 38.3333 140.542 38.75C139.458 39.15 138.3 39.35 137.067 39.35C136.317 39.35 135.575 39.25 134.842 39.05C134.125 38.8667 133.45 38.5917 132.817 38.225C132.2 37.8583 131.7 37.3667 131.317 36.75C130.933 36.1167 130.742 35.4083 130.742 34.625C130.742 34.075 130.983 33.6083 131.467 33.225C131.95 32.825 132.475 32.625 133.042 32.625C133.192 32.625 133.342 32.65 133.492 32.7C133.708 32.7333 133.867 32.825 133.967 32.975C134.05 33.0417 134.125 33.175 134.192 33.375C134.192 33.3917 134.192 33.425 134.192 33.475C134.208 33.5083 134.217 33.5417 134.217 33.575V33.775Z" fill="#5F8B01"/>
</g>
<defs>
<filter id="filter0_dd_1_2631" x="0" y="3" width="168" height="70" filterUnits="userSpaceOnUse" color-interpolation-filters="sRGB">
<feFlood flood-opacity="0" result="BackgroundImageFix"/>
<feColorMatrix in="SourceAlpha" type="matrix" values="0 0 0 0 0 0 0 0 0 0 0 0 0 0 0 0 0 0 127 0" result="hardAlpha"/>
<feOffset dy="6"/>
<feComposite in2="hardAlpha" operator="out"/>
<feColorMatrix type="matrix" values="0 0 0 0 0 0 0 0 0 0 0 0 0 0 0 0 0 0 0.25 0"/>
<feBlend mode="normal" in2="BackgroundImageFix" result="effect1_dropShadow_1_2631"/>
<feColorMatrix in="SourceAlpha" type="matrix" values="0 0 0 0 0 0 0 0 0 0 0 0 0 0 0 0 0 0 127 0" result="hardAlpha"/>
<feOffset dy="2"/>
<feComposite in2="hardAlpha" operator="out"/>
<feColorMatrix type="matrix" values="0 0 0 0 0.901961 0 0 0 0 0.901961 0 0 0 0 0.901961 0 0 0 1 0"/>
<feBlend mode="normal" in2="effect1_dropShadow_1_2631" result="effect2_dropShadow_1_2631"/>
<feBlend mode="normal" in="SourceGraphic" in2="effect2_dropShadow_1_2631" result="shape"/>
</filter>
<filter id="filter1_di_1_2631" x="4" y="-2" width="160" height="66" filterUnits="userSpaceOnUse" color-interpolation-filters="sRGB">
<feFlood flood-opacity="0" result="BackgroundImageFix"/>
<feColorMatrix in="SourceAlpha" type="matrix" values="0 0 0 0 0 0 0 0 0 0 0 0 0 0 0 0 0 0 127 0" result="hardAlpha"/>
<feOffset dy="4"/>
<feComposite in2="hardAlpha" operator="out"/>
<feColorMatrix type="matrix" values="0 0 0 0 0.427451 0 0 0 0 0.764706 0 0 0 0 0 0 0 0 1 0"/>
<feBlend mode="normal" in2="BackgroundImageFix" result="effect1_dropShadow_1_2631"/>
<feBlend mode="normal" in="SourceGraphic" in2="effect1_dropShadow_1_2631" result="shape"/>
<feColorMatrix in="SourceAlpha" type="matrix" values="0 0 0 0 0 0 0 0 0 0 0 0 0 0 0 0 0 0 127 0" result="hardAlpha"/>
<feOffset dy="-2"/>
<feGaussianBlur stdDeviation="5.5"/>
<feComposite in2="hardAlpha" operator="arithmetic" k2="-1" k3="1"/>
<feColorMatrix type="matrix" values="0 0 0 0 0.788235 0 0 0 0 0.984314 0 0 0 0 0.0235294 0 0 0 1 0"/>
<feBlend mode="normal" in2="shape" result="effect2_innerShadow_1_2631"/>
</filter>
<filter id="filter2_i_1_2631" x="4" y="0" width="160" height="37.3588" filterUnits="userSpaceOnUse" color-interpolation-filters="sRGB">
<feFlood flood-opacity="0" result="BackgroundImageFix"/>
<feBlend mode="normal" in="SourceGraphic" in2="BackgroundImageFix" result="shape"/>
<feColorMatrix in="SourceAlpha" type="matrix" values="0 0 0 0 0 0 0 0 0 0 0 0 0 0 0 0 0 0 127 0" result="hardAlpha"/>
<feOffset dy="4"/>
<feGaussianBlur stdDeviation="2"/>
<feComposite in2="hardAlpha" operator="arithmetic" k2="-1" k3="1"/>
<feColorMatrix type="matrix" values="0 0 0 0 0.788235 0 0 0 0 0.984314 0 0 0 0 0.0235294 0 0 0 1 0"/>
<feBlend mode="normal" in2="shape" result="effect1_innerShadow_1_2631"/>
</filter>
<filter id="filter3_i_1_2631" x="29.3743" y="21.125" width="115.092" height="18.3" filterUnits="userSpaceOnUse" color-interpolation-filters="sRGB">
<feFlood flood-opacity="0" result="BackgroundImageFix"/>
<feBlend mode="normal" in="SourceGraphic" in2="BackgroundImageFix" result="shape"/>
<feColorMatrix in="SourceAlpha" type="matrix" values="0 0 0 0 0 0 0 0 0 0 0 0 0 0 0 0 0 0 127 0" result="hardAlpha"/>
<feOffset/>
<feGaussianBlur stdDeviation="1"/>
<feComposite in2="hardAlpha" operator="arithmetic" k2="-1" k3="1"/>
<feColorMatrix type="matrix" values="0 0 0 0 0 0 0 0 0 0 0 0 0 0 0 0 0 0 0.25 0"/>
<feBlend mode="normal" in2="shape" result="effect1_innerShadow_1_2631"/>
</filter>
</defs>
</svg>
