<svg width="62" height="67" viewBox="0 0 62 67" fill="none" xmlns="http://www.w3.org/2000/svg">
<g filter="url(#filter0_dd_1_2484)">
<path fill-rule="evenodd" clip-rule="evenodd" d="M4.02972 3.8203C9.99369 1.39323 51.8535 1.39323 57.7055 3.8203C59.5815 4.65061 60.7855 7.46089 61.1495 11.7402C62.2975 25.2168 62.2695 38.6934 61.1495 52.2338C60.8135 56.5131 59.5815 59.7066 57.7055 60.0899C51.8535 61.3034 9.99369 61.3034 4.02972 60.0899C2.12572 59.7066 0.781729 56.5131 0.55773 52.2338C-0.114267 38.6934 -0.254266 25.2168 0.55773 11.7402C0.809729 7.46089 2.15372 4.58674 4.02972 3.8203Z" fill="white"/>
</g>
<path fill-rule="evenodd" clip-rule="evenodd" d="M4.89972 3.72774C10.6713 1.42409 51.1808 1.42409 56.844 3.72774C58.6595 4.51583 59.8246 7.18322 60.1769 11.2449C61.2879 24.0363 61.2608 36.8276 60.1769 49.6796C59.8517 53.7413 58.6595 56.7724 56.844 57.1361C51.1808 58.288 10.6713 58.288 4.89972 57.1361C3.05715 56.7724 1.75651 53.7413 1.53974 49.6796C0.889419 36.8276 0.753936 24.0363 1.53974 11.2449C1.78361 7.18322 3.08425 4.45521 4.89972 3.72774Z" fill="#E6E6E6"/>
<g filter="url(#filter1_di_1_2484)">
<path d="M5.90896 1.79555C11.0621 -0.563695 50.8031 -0.633085 55.8752 1.79555C57.467 2.55883 58.5462 5.33441 58.843 9.42839C59.3017 15.3959 59.5445 21.3634 59.5714 27.3309C59.5445 33.2984 59.3017 38.3355 58.843 44.303C58.5462 48.3969 57.467 51.1725 55.8752 51.9358C50.8031 54.3644 11.0621 54.295 5.90896 51.9358C4.29018 51.2419 3.13006 48.4663 2.91422 44.303C2.61745 38.3355 2.45557 33.0902 2.42859 27.1921C2.45557 21.294 2.61745 15.3959 2.91422 9.42839C3.13006 5.26502 4.29018 2.48944 5.90896 1.79555Z" fill="#DE01C1"/>
</g>
<g filter="url(#filter2_i_1_2484)">
<path fill-rule="evenodd" clip-rule="evenodd" d="M55.8752 1.79555C50.8031 -0.633085 11.0621 -0.563695 5.90896 1.79555C4.29018 2.48944 3.13006 5.26502 2.91422 9.42839C2.61745 15.3959 2.45557 21.294 2.42859 27.1921C7.01192 29.1845 19.1072 32.0016 30.8214 27.3309C42.5357 22.6602 54.8691 25.3848 59.5714 27.3309C59.5445 21.3634 59.3017 15.3959 58.843 9.42839C58.5462 5.33441 57.467 2.55883 55.8752 1.79555Z" fill="#E84BB4"/>
</g>
<path fill-rule="evenodd" clip-rule="evenodd" d="M6.18457 6.10528C7.4968 3.59316 10.626 1.92702 11.5896 2.43036C12.5363 2.92487 11.5738 6.03105 10.2616 8.54316C8.94936 11.0553 6.46544 14.012 5.51876 13.5175C4.55517 13.0141 4.87234 8.61739 6.18457 6.10528Z" fill="white"/>
<path fill-rule="evenodd" clip-rule="evenodd" d="M55.8703 47.2923C54.5581 49.8044 51.4289 51.4706 50.4653 50.9672C49.5186 50.4727 50.4811 47.3665 51.7933 44.8544C53.1055 42.3423 55.5894 39.3856 56.5361 39.8801C57.4997 40.3834 57.1825 44.7802 55.8703 47.2923Z" fill="white"/>
<defs>
<filter id="filter0_dd_1_2484" x="0" y="2" width="62" height="65" filterUnits="userSpaceOnUse" color-interpolation-filters="sRGB">
<feFlood flood-opacity="0" result="BackgroundImageFix"/>
<feColorMatrix in="SourceAlpha" type="matrix" values="0 0 0 0 0 0 0 0 0 0 0 0 0 0 0 0 0 0 127 0" result="hardAlpha"/>
<feOffset dy="6"/>
<feComposite in2="hardAlpha" operator="out"/>
<feColorMatrix type="matrix" values="0 0 0 0 0 0 0 0 0 0 0 0 0 0 0 0 0 0 0.25 0"/>
<feBlend mode="normal" in2="BackgroundImageFix" result="effect1_dropShadow_1_2484"/>
<feColorMatrix in="SourceAlpha" type="matrix" values="0 0 0 0 0 0 0 0 0 0 0 0 0 0 0 0 0 0 127 0" result="hardAlpha"/>
<feOffset dy="2"/>
<feComposite in2="hardAlpha" operator="out"/>
<feColorMatrix type="matrix" values="0 0 0 0 0.901961 0 0 0 0 0.901961 0 0 0 0 0.901961 0 0 0 1 0"/>
<feBlend mode="normal" in2="effect1_dropShadow_1_2484" result="effect2_dropShadow_1_2484"/>
<feBlend mode="normal" in="SourceGraphic" in2="effect2_dropShadow_1_2484" result="shape"/>
</filter>
<filter id="filter1_di_1_2484" x="2.42859" y="-2" width="57.1429" height="59.7313" filterUnits="userSpaceOnUse" color-interpolation-filters="sRGB">
<feFlood flood-opacity="0" result="BackgroundImageFix"/>
<feColorMatrix in="SourceAlpha" type="matrix" values="0 0 0 0 0 0 0 0 0 0 0 0 0 0 0 0 0 0 127 0" result="hardAlpha"/>
<feOffset dy="4"/>
<feComposite in2="hardAlpha" operator="out"/>
<feColorMatrix type="matrix" values="0 0 0 0 0.635294 0 0 0 0 0 0 0 0 0 0.764706 0 0 0 1 0"/>
<feBlend mode="normal" in2="BackgroundImageFix" result="effect1_dropShadow_1_2484"/>
<feBlend mode="normal" in="SourceGraphic" in2="effect1_dropShadow_1_2484" result="shape"/>
<feColorMatrix in="SourceAlpha" type="matrix" values="0 0 0 0 0 0 0 0 0 0 0 0 0 0 0 0 0 0 127 0" result="hardAlpha"/>
<feOffset dy="-2"/>
<feGaussianBlur stdDeviation="5.5"/>
<feComposite in2="hardAlpha" operator="arithmetic" k2="-1" k3="1"/>
<feColorMatrix type="matrix" values="0 0 0 0 0.823529 0 0 0 0 0.0235294 0 0 0 0 0.984314 0 0 0 1 0"/>
<feBlend mode="normal" in2="shape" result="effect2_innerShadow_1_2484"/>
</filter>
<filter id="filter2_i_1_2484" x="2.42859" y="0" width="57.1429" height="33.8735" filterUnits="userSpaceOnUse" color-interpolation-filters="sRGB">
<feFlood flood-opacity="0" result="BackgroundImageFix"/>
<feBlend mode="normal" in="SourceGraphic" in2="BackgroundImageFix" result="shape"/>
<feColorMatrix in="SourceAlpha" type="matrix" values="0 0 0 0 0 0 0 0 0 0 0 0 0 0 0 0 0 0 127 0" result="hardAlpha"/>
<feOffset dy="4"/>
<feGaussianBlur stdDeviation="2"/>
<feComposite in2="hardAlpha" operator="arithmetic" k2="-1" k3="1"/>
<feColorMatrix type="matrix" values="0 0 0 0 1 0 0 0 0 0.258333 0 0 0 0 0.839306 0 0 0 1 0"/>
<feBlend mode="normal" in2="shape" result="effect1_innerShadow_1_2484"/>
</filter>
</defs>
</svg>
